<mxfile host="app.diagrams.net" agent="Mozilla/5.0 (Macintosh; Intel Mac OS X 10_15_7) AppleWebKit/537.36 (KHTML, like Gecko) Chrome/128.0.0.0 Safari/537.36" version="26.0.10">
  <diagram name="第 1 页" id="sMI9rQai5pcgbiWbLUpD">
    <mxGraphModel dx="3731" dy="2057" grid="1" gridSize="10" guides="1" tooltips="1" connect="1" arrows="1" fold="1" page="1" pageScale="1" pageWidth="827" pageHeight="1169" math="0" shadow="0">
      <root>
        <mxCell id="0" />
        <mxCell id="1" parent="0" />
        <mxCell id="EMGSAr9kfIs654__upMz-1" value="" style="rounded=0;whiteSpace=wrap;html=1;strokeColor=none;" vertex="1" parent="1">
          <mxGeometry x="220" y="140" width="910" height="830" as="geometry" />
        </mxCell>
        <mxCell id="EMGSAr9kfIs654__upMz-2" value="&lt;font style=&quot;font-size: 18px;&quot;&gt;开发者玩法服务端&lt;/font&gt;" style="rounded=0;whiteSpace=wrap;html=1;fontSize=14;strokeWidth=1.5;fillColor=#f5f5f5;strokeColor=#666666;fontColor=#333333;" vertex="1" parent="1">
          <mxGeometry x="720" y="760" width="370" height="200" as="geometry" />
        </mxCell>
        <mxCell id="EMGSAr9kfIs654__upMz-3" value="&lt;font style=&quot;font-size: 18px;&quot;&gt;平台服务端&lt;/font&gt;" style="rounded=0;whiteSpace=wrap;html=1;fontSize=14;strokeWidth=1.5;fillColor=#f5f5f5;strokeColor=#666666;fontColor=#333333;" vertex="1" parent="1">
          <mxGeometry x="720" y="320" width="380" height="200" as="geometry" />
        </mxCell>
        <mxCell id="EMGSAr9kfIs654__upMz-4" value="&lt;font style=&quot;font-size: 18px;&quot;&gt;平台伴侣客户端&lt;/font&gt;" style="whiteSpace=wrap;html=1;aspect=fixed;fontSize=14;strokeWidth=1.5;fillColor=#f5f5f5;strokeColor=#666666;fontColor=#333333;" vertex="1" parent="1">
          <mxGeometry x="240" y="320" width="200" height="200" as="geometry" />
        </mxCell>
        <mxCell id="EMGSAr9kfIs654__upMz-5" value="&lt;font style=&quot;font-size: 18px;&quot;&gt;开发者玩法客户端&lt;/font&gt;" style="whiteSpace=wrap;html=1;aspect=fixed;fontSize=14;strokeWidth=1.5;fillColor=#f5f5f5;strokeColor=#666666;fontColor=#333333;" vertex="1" parent="1">
          <mxGeometry x="240" y="760" width="200" height="200" as="geometry" />
        </mxCell>
        <mxCell id="EMGSAr9kfIs654__upMz-6" value="" style="edgeStyle=orthogonalEdgeStyle;rounded=0;orthogonalLoop=1;jettySize=auto;html=1;fontSize=14;strokeWidth=1.5;" edge="1" parent="1" target="EMGSAr9kfIs654__upMz-4">
          <mxGeometry relative="1" as="geometry">
            <mxPoint x="340" y="240" as="sourcePoint" />
          </mxGeometry>
        </mxCell>
        <mxCell id="EMGSAr9kfIs654__upMz-7" value="&lt;font color=&quot;#cc0000&quot; style=&quot;font-size: 14px;&quot;&gt;A0、开启玩法&lt;/font&gt;" style="edgeLabel;html=1;align=center;verticalAlign=middle;resizable=0;points=[];fontSize=14;" vertex="1" connectable="0" parent="EMGSAr9kfIs654__upMz-6">
          <mxGeometry x="0.0001" relative="1" as="geometry">
            <mxPoint x="15" as="offset" />
          </mxGeometry>
        </mxCell>
        <mxCell id="EMGSAr9kfIs654__upMz-8" value="主播" style="shape=umlActor;verticalLabelPosition=bottom;verticalAlign=top;html=1;outlineConnect=0;" vertex="1" parent="1">
          <mxGeometry x="325" y="150" width="30" height="60" as="geometry" />
        </mxCell>
        <mxCell id="EMGSAr9kfIs654__upMz-9" value="" style="endArrow=classic;html=1;rounded=0;exitX=1;exitY=0.25;exitDx=0;exitDy=0;entryX=0;entryY=0.25;entryDx=0;entryDy=0;fontSize=14;strokeWidth=1.5;" edge="1" parent="1" source="EMGSAr9kfIs654__upMz-4">
          <mxGeometry width="50" height="50" relative="1" as="geometry">
            <mxPoint x="560" y="630" as="sourcePoint" />
            <mxPoint x="720" y="370" as="targetPoint" />
          </mxGeometry>
        </mxCell>
        <mxCell id="EMGSAr9kfIs654__upMz-10" value="&lt;font color=&quot;#cc0000&quot; style=&quot;font-size: 14px;&quot;&gt;A1、创建玩法记录&lt;/font&gt;" style="text;html=1;align=center;verticalAlign=middle;resizable=0;points=[];autosize=1;strokeColor=none;fillColor=none;fontSize=14;" vertex="1" parent="1">
          <mxGeometry x="510" y="338" width="140" height="30" as="geometry" />
        </mxCell>
        <mxCell id="EMGSAr9kfIs654__upMz-11" value="" style="endArrow=classic;html=1;rounded=0;exitX=0;exitY=0.75;exitDx=0;exitDy=0;entryX=1;entryY=0.75;entryDx=0;entryDy=0;dashed=1;fontSize=14;strokeWidth=1.5;" edge="1" parent="1">
          <mxGeometry width="50" height="50" relative="1" as="geometry">
            <mxPoint x="720" y="380" as="sourcePoint" />
            <mxPoint x="440" y="380" as="targetPoint" />
          </mxGeometry>
        </mxCell>
        <mxCell id="EMGSAr9kfIs654__upMz-12" value="返回roomCode" style="text;html=1;align=center;verticalAlign=middle;resizable=0;points=[];autosize=1;strokeColor=none;fillColor=none;fontSize=14;" vertex="1" parent="1">
          <mxGeometry x="515" y="380" width="120" height="30" as="geometry" />
        </mxCell>
        <mxCell id="EMGSAr9kfIs654__upMz-13" value="" style="endArrow=classic;html=1;rounded=0;exitX=0.75;exitY=1;exitDx=0;exitDy=0;entryX=0.75;entryY=0;entryDx=0;entryDy=0;fontSize=14;strokeWidth=1.5;" edge="1" parent="1" source="EMGSAr9kfIs654__upMz-4" target="EMGSAr9kfIs654__upMz-5">
          <mxGeometry width="50" height="50" relative="1" as="geometry">
            <mxPoint x="560" y="630" as="sourcePoint" />
            <mxPoint x="610" y="580" as="targetPoint" />
          </mxGeometry>
        </mxCell>
        <mxCell id="EMGSAr9kfIs654__upMz-14" value="&lt;font color=&quot;#cc0000&quot; style=&quot;font-size: 14px;&quot;&gt;A2、调起玩法进程&lt;/font&gt;&lt;br style=&quot;font-size: 14px;&quot;&gt;传入roomCode" style="text;html=1;align=center;verticalAlign=middle;resizable=0;points=[];autosize=1;strokeColor=none;fillColor=none;fontSize=14;" vertex="1" parent="1">
          <mxGeometry x="310" y="608" width="140" height="50" as="geometry" />
        </mxCell>
        <mxCell id="EMGSAr9kfIs654__upMz-15" value="" style="endArrow=classic;html=1;rounded=0;exitX=1;exitY=0.25;exitDx=0;exitDy=0;entryX=0;entryY=0.25;entryDx=0;entryDy=0;fontSize=14;strokeWidth=1.5;" edge="1" parent="1" source="EMGSAr9kfIs654__upMz-5">
          <mxGeometry width="50" height="50" relative="1" as="geometry">
            <mxPoint x="560" y="620" as="sourcePoint" />
            <mxPoint x="720" y="810" as="targetPoint" />
          </mxGeometry>
        </mxCell>
        <mxCell id="EMGSAr9kfIs654__upMz-16" value="&lt;font color=&quot;#cc0000&quot; style=&quot;font-size: 14px;&quot;&gt;A3、与开发者服务端建联&lt;/font&gt;&lt;br style=&quot;font-size: 14px;&quot;&gt;传入roomCode" style="text;html=1;align=center;verticalAlign=middle;resizable=0;points=[];autosize=1;strokeColor=none;fillColor=none;fontSize=14;" vertex="1" parent="1">
          <mxGeometry x="490" y="765" width="180" height="50" as="geometry" />
        </mxCell>
        <mxCell id="EMGSAr9kfIs654__upMz-17" value="" style="endArrow=classic;html=1;rounded=0;exitX=0.25;exitY=0;exitDx=0;exitDy=0;entryX=0.25;entryY=1;entryDx=0;entryDy=0;fontSize=14;strokeWidth=1.5;" edge="1" parent="1">
          <mxGeometry width="50" height="50" relative="1" as="geometry">
            <mxPoint x="770" y="760" as="sourcePoint" />
            <mxPoint x="770" y="520" as="targetPoint" />
          </mxGeometry>
        </mxCell>
        <mxCell id="EMGSAr9kfIs654__upMz-18" value="&lt;font color=&quot;#cc0000&quot; style=&quot;font-size: 14px;&quot;&gt;A4、与平台服务端绑定&lt;/font&gt;&lt;br style=&quot;font-size: 14px;&quot;&gt;传入roomCode" style="text;html=1;align=center;verticalAlign=middle;resizable=0;points=[];autosize=1;strokeColor=none;fillColor=none;fontSize=14;" vertex="1" parent="1">
          <mxGeometry x="626" y="609" width="170" height="50" as="geometry" />
        </mxCell>
        <mxCell id="EMGSAr9kfIs654__upMz-19" value="" style="endArrow=classic;html=1;rounded=0;exitX=0.5;exitY=0;exitDx=0;exitDy=0;fontSize=14;strokeWidth=1.5;" edge="1" parent="1">
          <mxGeometry width="50" height="50" relative="1" as="geometry">
            <mxPoint x="847.5" y="760" as="sourcePoint" />
            <mxPoint x="847.5" y="520" as="targetPoint" />
          </mxGeometry>
        </mxCell>
        <mxCell id="EMGSAr9kfIs654__upMz-20" value="&lt;font color=&quot;#006600&quot; style=&quot;font-size: 14px;&quot;&gt;B1、轮询绑定状态&lt;/font&gt;" style="text;html=1;align=center;verticalAlign=middle;resizable=0;points=[];autosize=1;strokeColor=none;fillColor=none;fontSize=14;" vertex="1" parent="1">
          <mxGeometry x="778" y="613" width="140" height="30" as="geometry" />
        </mxCell>
        <mxCell id="EMGSAr9kfIs654__upMz-21" value="" style="endArrow=classic;html=1;rounded=0;exitX=1;exitY=0.5;exitDx=0;exitDy=0;entryX=0;entryY=0.5;entryDx=0;entryDy=0;fontSize=14;strokeWidth=1.5;" edge="1" parent="1">
          <mxGeometry width="50" height="50" relative="1" as="geometry">
            <mxPoint x="440" y="870.1" as="sourcePoint" />
            <mxPoint x="720" y="870.1" as="targetPoint" />
          </mxGeometry>
        </mxCell>
        <mxCell id="EMGSAr9kfIs654__upMz-22" value="&lt;font color=&quot;#000099&quot; style=&quot;font-size: 14px;&quot;&gt;C1、请求礼物置顶&lt;/font&gt;" style="text;html=1;align=center;verticalAlign=middle;resizable=0;points=[];autosize=1;strokeColor=none;fillColor=none;fontSize=14;" vertex="1" parent="1">
          <mxGeometry x="505" y="845" width="140" height="30" as="geometry" />
        </mxCell>
        <mxCell id="EMGSAr9kfIs654__upMz-23" value="" style="endArrow=classic;html=1;rounded=0;exitX=0.65;exitY=-0.012;exitDx=0;exitDy=0;exitPerimeter=0;fontSize=14;entryX=0.65;entryY=-0.012;entryDx=0;entryDy=0;entryPerimeter=0;dashed=1;strokeWidth=1.5;" edge="1" parent="1" target="EMGSAr9kfIs654__upMz-2">
          <mxGeometry width="50" height="50" relative="1" as="geometry">
            <mxPoint x="960" y="520" as="sourcePoint" />
            <mxPoint x="730" y="700" as="targetPoint" />
          </mxGeometry>
        </mxCell>
        <mxCell id="EMGSAr9kfIs654__upMz-24" value="&lt;font color=&quot;#000099&quot; style=&quot;font-size: 14px;&quot;&gt;C2、礼物置顶&lt;/font&gt;" style="edgeLabel;html=1;align=center;verticalAlign=middle;resizable=0;points=[];fontSize=14;" vertex="1" connectable="0" parent="EMGSAr9kfIs654__upMz-23">
          <mxGeometry x="0.1176" y="1" relative="1" as="geometry">
            <mxPoint x="-1" y="-25" as="offset" />
          </mxGeometry>
        </mxCell>
        <mxCell id="EMGSAr9kfIs654__upMz-25" value="观众" style="shape=umlActor;verticalLabelPosition=bottom;verticalAlign=top;html=1;outlineConnect=0;" vertex="1" parent="1">
          <mxGeometry x="895" y="150" width="30" height="60" as="geometry" />
        </mxCell>
        <mxCell id="EMGSAr9kfIs654__upMz-26" value="" style="endArrow=classic;html=1;rounded=0;exitX=0.446;exitY=0.003;exitDx=0;exitDy=0;exitPerimeter=0;fontSize=14;strokeWidth=1.5;" edge="1" parent="1" source="EMGSAr9kfIs654__upMz-3">
          <mxGeometry width="50" height="50" relative="1" as="geometry">
            <mxPoint x="850" y="310" as="sourcePoint" />
            <mxPoint x="890" y="240" as="targetPoint" />
          </mxGeometry>
        </mxCell>
        <mxCell id="EMGSAr9kfIs654__upMz-27" value="&lt;font color=&quot;#000099&quot; style=&quot;font-size: 14px;&quot;&gt;C3、置顶礼物&lt;/font&gt;" style="text;html=1;align=center;verticalAlign=middle;resizable=0;points=[];autosize=1;strokeColor=none;fillColor=none;fontSize=14;" vertex="1" parent="1">
          <mxGeometry x="790" y="268" width="110" height="30" as="geometry" />
        </mxCell>
        <mxCell id="EMGSAr9kfIs654__upMz-28" value="" style="endArrow=classic;html=1;rounded=0;entryX=0.569;entryY=-0.004;entryDx=0;entryDy=0;entryPerimeter=0;fontSize=14;strokeWidth=1.5;" edge="1" parent="1" target="EMGSAr9kfIs654__upMz-3">
          <mxGeometry width="50" height="50" relative="1" as="geometry">
            <mxPoint x="936" y="240" as="sourcePoint" />
            <mxPoint x="1000" y="240" as="targetPoint" />
          </mxGeometry>
        </mxCell>
        <mxCell id="EMGSAr9kfIs654__upMz-29" value="&lt;font color=&quot;#663300&quot; style=&quot;font-size: 14px;&quot;&gt;D1、互动消息&lt;/font&gt;" style="text;html=1;align=center;verticalAlign=middle;resizable=0;points=[];autosize=1;strokeColor=none;fillColor=none;fontSize=14;" vertex="1" parent="1">
          <mxGeometry x="905" y="268" width="110" height="30" as="geometry" />
        </mxCell>
        <mxCell id="EMGSAr9kfIs654__upMz-30" value="" style="endArrow=classic;html=1;rounded=0;exitX=0.694;exitY=-0.001;exitDx=0;exitDy=0;exitPerimeter=0;entryX=0.694;entryY=1.009;entryDx=0;entryDy=0;entryPerimeter=0;dashed=1;fontSize=14;strokeWidth=1.5;" edge="1" parent="1" source="EMGSAr9kfIs654__upMz-5" target="EMGSAr9kfIs654__upMz-4">
          <mxGeometry width="50" height="50" relative="1" as="geometry">
            <mxPoint x="710" y="700" as="sourcePoint" />
            <mxPoint x="760" y="650" as="targetPoint" />
          </mxGeometry>
        </mxCell>
        <mxCell id="EMGSAr9kfIs654__upMz-31" value="" style="endArrow=classic;html=1;rounded=0;exitX=-0.003;exitY=0.299;exitDx=0;exitDy=0;exitPerimeter=0;entryX=0.999;entryY=0.309;entryDx=0;entryDy=0;entryPerimeter=0;dashed=1;fontSize=14;strokeWidth=1.5;" edge="1" parent="1" source="EMGSAr9kfIs654__upMz-2" target="EMGSAr9kfIs654__upMz-5">
          <mxGeometry width="50" height="50" relative="1" as="geometry">
            <mxPoint x="710" y="700" as="sourcePoint" />
            <mxPoint x="760" y="650" as="targetPoint" />
          </mxGeometry>
        </mxCell>
        <mxCell id="EMGSAr9kfIs654__upMz-32" value="" style="endArrow=classic;html=1;rounded=0;exitX=0.165;exitY=1.019;exitDx=0;exitDy=0;exitPerimeter=0;entryX=0.168;entryY=-0.001;entryDx=0;entryDy=0;entryPerimeter=0;dashed=1;fontSize=14;strokeWidth=1.5;" edge="1" parent="1" source="EMGSAr9kfIs654__upMz-3" target="EMGSAr9kfIs654__upMz-2">
          <mxGeometry width="50" height="50" relative="1" as="geometry">
            <mxPoint x="710" y="700" as="sourcePoint" />
            <mxPoint x="760" y="650" as="targetPoint" />
          </mxGeometry>
        </mxCell>
        <mxCell id="EMGSAr9kfIs654__upMz-33" value="" style="endArrow=classic;html=1;rounded=0;entryX=0.377;entryY=-0.002;entryDx=0;entryDy=0;entryPerimeter=0;dashed=1;fontSize=14;strokeWidth=1.5;" edge="1" parent="1" target="EMGSAr9kfIs654__upMz-2">
          <mxGeometry width="50" height="50" relative="1" as="geometry">
            <mxPoint x="859" y="520" as="sourcePoint" />
            <mxPoint x="760" y="650" as="targetPoint" />
          </mxGeometry>
        </mxCell>
        <mxCell id="EMGSAr9kfIs654__upMz-34" value="" style="endArrow=classic;html=1;rounded=0;exitX=-0.009;exitY=0.644;exitDx=0;exitDy=0;exitPerimeter=0;dashed=1;fontSize=14;strokeWidth=1.5;" edge="1" parent="1">
          <mxGeometry width="50" height="50" relative="1" as="geometry">
            <mxPoint x="717.5299999999999" y="880" as="sourcePoint" />
            <mxPoint x="442" y="880" as="targetPoint" />
          </mxGeometry>
        </mxCell>
        <mxCell id="EMGSAr9kfIs654__upMz-35" value="" style="endArrow=classic;html=1;rounded=0;entryX=0.668;entryY=0.004;entryDx=0;entryDy=0;entryPerimeter=0;fontSize=14;strokeWidth=1.5;" edge="1" parent="1">
          <mxGeometry width="50" height="50" relative="1" as="geometry">
            <mxPoint x="950.8000000000002" y="760.8" as="sourcePoint" />
            <mxPoint x="951" y="520" as="targetPoint" />
          </mxGeometry>
        </mxCell>
        <mxCell id="EMGSAr9kfIs654__upMz-36" value="" style="endArrow=classic;html=1;rounded=0;exitX=0.865;exitY=1.003;exitDx=0;exitDy=0;exitPerimeter=0;fontSize=14;entryX=0.891;entryY=0.008;entryDx=0;entryDy=0;entryPerimeter=0;strokeWidth=1.5;" edge="1" parent="1" source="EMGSAr9kfIs654__upMz-3" target="EMGSAr9kfIs654__upMz-2">
          <mxGeometry width="50" height="50" relative="1" as="geometry">
            <mxPoint x="710" y="700" as="sourcePoint" />
            <mxPoint x="1019" y="760" as="targetPoint" />
          </mxGeometry>
        </mxCell>
        <mxCell id="EMGSAr9kfIs654__upMz-37" value="&lt;font color=&quot;#663300&quot; style=&quot;font-size: 14px;&quot;&gt;D2、推送互动消息&lt;/font&gt;" style="edgeLabel;html=1;align=center;verticalAlign=middle;resizable=0;points=[];fontSize=14;" vertex="1" connectable="0" parent="EMGSAr9kfIs654__upMz-36">
          <mxGeometry x="-0.0979" y="2" relative="1" as="geometry">
            <mxPoint x="19" y="-2" as="offset" />
          </mxGeometry>
        </mxCell>
        <mxCell id="EMGSAr9kfIs654__upMz-38" value="" style="endArrow=classic;html=1;rounded=0;exitX=1;exitY=0.5;exitDx=0;exitDy=0;entryX=0;entryY=0.5;entryDx=0;entryDy=0;fontSize=14;strokeWidth=1.5;" edge="1" parent="1">
          <mxGeometry width="50" height="50" relative="1" as="geometry">
            <mxPoint x="720" y="925.1" as="sourcePoint" />
            <mxPoint x="440" y="925.1" as="targetPoint" />
          </mxGeometry>
        </mxCell>
        <mxCell id="EMGSAr9kfIs654__upMz-39" value="&lt;font color=&quot;#663300&quot; style=&quot;font-size: 14px;&quot;&gt;D3、推送互动消息&lt;/font&gt;" style="text;html=1;align=center;verticalAlign=middle;resizable=0;points=[];autosize=1;strokeColor=none;fillColor=none;fontSize=14;" vertex="1" parent="1">
          <mxGeometry x="505" y="900" width="140" height="30" as="geometry" />
        </mxCell>
        <mxCell id="EMGSAr9kfIs654__upMz-40" value="" style="endArrow=classic;html=1;rounded=0;exitX=-0.009;exitY=0.644;exitDx=0;exitDy=0;exitPerimeter=0;dashed=1;fontSize=14;strokeWidth=1.5;" edge="1" parent="1">
          <mxGeometry width="50" height="50" relative="1" as="geometry">
            <mxPoint x="442" y="935" as="sourcePoint" />
            <mxPoint x="717.5299999999999" y="935" as="targetPoint" />
          </mxGeometry>
        </mxCell>
        <mxCell id="EMGSAr9kfIs654__upMz-41" value="" style="endArrow=classic;html=1;rounded=0;entryX=0.836;entryY=0.998;entryDx=0;entryDy=0;entryPerimeter=0;dashed=1;fontSize=14;strokeWidth=1.5;" edge="1" parent="1" target="EMGSAr9kfIs654__upMz-3">
          <mxGeometry width="50" height="50" relative="1" as="geometry">
            <mxPoint x="1040" y="760" as="sourcePoint" />
            <mxPoint x="1028.65" y="522.5999999999999" as="targetPoint" />
          </mxGeometry>
        </mxCell>
        <mxCell id="EMGSAr9kfIs654__upMz-42" value="" style="rounded=0;whiteSpace=wrap;html=1;strokeWidth=0;strokeColor=none;" vertex="1" parent="1">
          <mxGeometry x="190" y="1040" width="1950" height="1110" as="geometry" />
        </mxCell>
        <mxCell id="EMGSAr9kfIs654__upMz-43" value="" style="rounded=1;whiteSpace=wrap;html=1;fontSize=14;fillColor=#E6E6E6;" vertex="1" parent="1">
          <mxGeometry x="880" y="2040" width="920" height="100" as="geometry" />
        </mxCell>
        <mxCell id="EMGSAr9kfIs654__upMz-44" value="" style="rounded=0;whiteSpace=wrap;html=1;fillColor=#FFFFFF;strokeWidth=3;fontSize=14;" vertex="1" parent="1">
          <mxGeometry x="1740.4299999999998" y="1505.5" width="163" height="424.5" as="geometry" />
        </mxCell>
        <mxCell id="EMGSAr9kfIs654__upMz-45" value="" style="rounded=0;whiteSpace=wrap;html=1;fillColor=#FFFFFF;strokeWidth=3;fontSize=14;" vertex="1" parent="1">
          <mxGeometry x="920" y="1505.5" width="760" height="434.5" as="geometry" />
        </mxCell>
        <mxCell id="EMGSAr9kfIs654__upMz-46" value="" style="rounded=1;whiteSpace=wrap;html=1;fillColor=#E6E6E6;fontSize=14;" vertex="1" parent="1">
          <mxGeometry x="1455" y="1540" width="180" height="325" as="geometry" />
        </mxCell>
        <mxCell id="EMGSAr9kfIs654__upMz-47" value="" style="edgeStyle=orthogonalEdgeStyle;rounded=0;orthogonalLoop=1;jettySize=auto;html=1;" edge="1" parent="1" source="EMGSAr9kfIs654__upMz-48" target="EMGSAr9kfIs654__upMz-86">
          <mxGeometry relative="1" as="geometry" />
        </mxCell>
        <mxCell id="EMGSAr9kfIs654__upMz-48" value="" style="rounded=1;whiteSpace=wrap;html=1;fillColor=#E6E6E6;fontSize=14;" vertex="1" parent="1">
          <mxGeometry x="1069" y="1645" width="190" height="160" as="geometry" />
        </mxCell>
        <mxCell id="EMGSAr9kfIs654__upMz-49" value="直播弹幕互动系统" style="text;html=1;align=center;verticalAlign=middle;resizable=0;points=[];autosize=1;fillColor=#000000;fontColor=#FFFFFF;fontSize=14;" vertex="1" parent="1">
          <mxGeometry x="920" y="1505.5" width="140" height="30" as="geometry" />
        </mxCell>
        <mxCell id="EMGSAr9kfIs654__upMz-50" value="" style="rounded=0;whiteSpace=wrap;html=1;fillColor=#FFFFFF;strokeWidth=3;fontSize=14;" vertex="1" parent="1">
          <mxGeometry x="416" y="1510" width="327" height="420" as="geometry" />
        </mxCell>
        <mxCell id="EMGSAr9kfIs654__upMz-51" value="伴侣客户端" style="text;html=1;align=center;verticalAlign=middle;resizable=0;points=[];autosize=1;fillColor=#000000;fontColor=#FFFFFF;fontSize=14;" vertex="1" parent="1">
          <mxGeometry x="416" y="1510" width="90" height="30" as="geometry" />
        </mxCell>
        <mxCell id="EMGSAr9kfIs654__upMz-52" value="" style="edgeStyle=orthogonalEdgeStyle;rounded=0;orthogonalLoop=1;jettySize=auto;html=1;entryX=-0.019;entryY=0.377;entryDx=0;entryDy=0;entryPerimeter=0;" edge="1" parent="1" source="EMGSAr9kfIs654__upMz-54" target="EMGSAr9kfIs654__upMz-80">
          <mxGeometry relative="1" as="geometry">
            <mxPoint x="807" y="1685" as="targetPoint" />
            <Array as="points">
              <mxPoint x="760" y="1685" />
              <mxPoint x="760" y="1704" />
            </Array>
          </mxGeometry>
        </mxCell>
        <mxCell id="EMGSAr9kfIs654__upMz-53" value="&lt;b&gt;&lt;font color=&quot;#ff3333&quot;&gt;2.1&lt;/font&gt;&lt;/b&gt;&amp;nbsp;开启游戏" style="edgeLabel;html=1;align=center;verticalAlign=middle;resizable=0;points=[];" vertex="1" connectable="0" parent="EMGSAr9kfIs654__upMz-52">
          <mxGeometry x="-0.2331" y="4" relative="1" as="geometry">
            <mxPoint x="87" y="-8" as="offset" />
          </mxGeometry>
        </mxCell>
        <mxCell id="EMGSAr9kfIs654__upMz-54" value="打开游戏" style="rounded=1;whiteSpace=wrap;html=1;fillColor=#E6E6E6;fontSize=14;" vertex="1" parent="1">
          <mxGeometry x="533" y="1650" width="150" height="70" as="geometry" />
        </mxCell>
        <mxCell id="EMGSAr9kfIs654__upMz-55" value="" style="edgeStyle=orthogonalEdgeStyle;rounded=0;orthogonalLoop=1;jettySize=auto;html=1;entryX=0.01;entryY=0.108;entryDx=0;entryDy=0;entryPerimeter=0;" edge="1" parent="1" source="EMGSAr9kfIs654__upMz-56" target="EMGSAr9kfIs654__upMz-80">
          <mxGeometry relative="1" as="geometry">
            <mxPoint x="809" y="1670" as="targetPoint" />
            <Array as="points">
              <mxPoint x="760" y="1595" />
              <mxPoint x="760" y="1658" />
            </Array>
          </mxGeometry>
        </mxCell>
        <mxCell id="EMGSAr9kfIs654__upMz-56" value="获取房间码" style="rounded=1;whiteSpace=wrap;html=1;fillColor=#E6E6E6;fontSize=14;" vertex="1" parent="1">
          <mxGeometry x="535" y="1560" width="150" height="70" as="geometry" />
        </mxCell>
        <mxCell id="EMGSAr9kfIs654__upMz-57" value="" style="rounded=0;whiteSpace=wrap;html=1;fillColor=#FFFFFF;strokeWidth=3;fontSize=14;" vertex="1" parent="1">
          <mxGeometry x="487" y="1057" width="270" height="240" as="geometry" />
        </mxCell>
        <mxCell id="EMGSAr9kfIs654__upMz-58" value="游戏客户端" style="text;html=1;align=center;verticalAlign=middle;resizable=0;points=[];autosize=1;fillColor=#000000;fontColor=#FFFFFF;fontSize=14;" vertex="1" parent="1">
          <mxGeometry x="487" y="1057" width="90" height="30" as="geometry" />
        </mxCell>
        <mxCell id="EMGSAr9kfIs654__upMz-59" value="" style="rounded=0;whiteSpace=wrap;html=1;fillColor=#FFFFFF;strokeWidth=3;fontSize=14;" vertex="1" parent="1">
          <mxGeometry x="920" y="1055" width="730" height="140" as="geometry" />
        </mxCell>
        <mxCell id="EMGSAr9kfIs654__upMz-60" value="游戏服务端" style="text;html=1;align=center;verticalAlign=middle;resizable=0;points=[];autosize=1;fillColor=#000000;fontColor=#FFFFFF;fontSize=14;" vertex="1" parent="1">
          <mxGeometry x="920" y="1055" width="90" height="30" as="geometry" />
        </mxCell>
        <mxCell id="EMGSAr9kfIs654__upMz-61" value="" style="edgeStyle=orthogonalEdgeStyle;rounded=0;orthogonalLoop=1;jettySize=auto;html=1;" edge="1" parent="1" source="EMGSAr9kfIs654__upMz-62" target="EMGSAr9kfIs654__upMz-63">
          <mxGeometry relative="1" as="geometry" />
        </mxCell>
        <mxCell id="EMGSAr9kfIs654__upMz-62" value="回调api服务" style="rounded=1;whiteSpace=wrap;html=1;fillColor=#E6E6E6;fontSize=14;" vertex="1" parent="1">
          <mxGeometry x="1279" y="1100" width="150" height="70" as="geometry" />
        </mxCell>
        <mxCell id="EMGSAr9kfIs654__upMz-63" value="webSocket服务" style="rounded=1;whiteSpace=wrap;html=1;fillColor=#E6E6E6;fontSize=14;" vertex="1" parent="1">
          <mxGeometry x="1089" y="1100" width="150" height="70" as="geometry" />
        </mxCell>
        <mxCell id="EMGSAr9kfIs654__upMz-64" value="游戏进程" style="rounded=1;whiteSpace=wrap;html=1;fillColor=#E6E6E6;fontSize=14;" vertex="1" parent="1">
          <mxGeometry x="547" y="1102" width="150" height="70" as="geometry" />
        </mxCell>
        <mxCell id="EMGSAr9kfIs654__upMz-65" value="" style="rounded=0;whiteSpace=wrap;html=1;fillColor=#FFFFFF;strokeWidth=3;fontSize=14;" vertex="1" parent="1">
          <mxGeometry x="920" y="1270" width="730" height="150" as="geometry" />
        </mxCell>
        <mxCell id="EMGSAr9kfIs654__upMz-66" value="商业生态系统" style="text;html=1;align=center;verticalAlign=middle;resizable=0;points=[];autosize=1;fillColor=#000000;fontColor=#FFFFFF;fontSize=14;" vertex="1" parent="1">
          <mxGeometry x="920" y="1270" width="110" height="30" as="geometry" />
        </mxCell>
        <mxCell id="EMGSAr9kfIs654__upMz-67" value="" style="edgeStyle=orthogonalEdgeStyle;rounded=0;orthogonalLoop=1;jettySize=auto;html=1;entryX=0.5;entryY=1;entryDx=0;entryDy=0;" edge="1" parent="1" source="EMGSAr9kfIs654__upMz-69" target="EMGSAr9kfIs654__upMz-62">
          <mxGeometry relative="1" as="geometry" />
        </mxCell>
        <mxCell id="EMGSAr9kfIs654__upMz-68" value="&lt;b&gt;&lt;font color=&quot;#ff3333&quot;&gt;3.5&lt;/font&gt;&lt;/b&gt; 推送数据" style="edgeLabel;html=1;align=center;verticalAlign=middle;resizable=0;points=[];" vertex="1" connectable="0" parent="EMGSAr9kfIs654__upMz-67">
          <mxGeometry x="0.0938" y="-2" relative="1" as="geometry">
            <mxPoint as="offset" />
          </mxGeometry>
        </mxCell>
        <mxCell id="EMGSAr9kfIs654__upMz-69" value="webhook服务" style="rounded=1;whiteSpace=wrap;html=1;fillColor=#E6E6E6;fontSize=14;" vertex="1" parent="1">
          <mxGeometry x="1279" y="1304.1599999999999" width="150" height="70" as="geometry" />
        </mxCell>
        <mxCell id="EMGSAr9kfIs654__upMz-70" value="" style="edgeStyle=orthogonalEdgeStyle;rounded=0;orthogonalLoop=1;jettySize=auto;html=1;entryX=0.5;entryY=0;entryDx=0;entryDy=0;" edge="1" parent="1" source="EMGSAr9kfIs654__upMz-71" target="EMGSAr9kfIs654__upMz-74">
          <mxGeometry relative="1" as="geometry">
            <mxPoint x="1164" y="1454.1599999999999" as="targetPoint" />
          </mxGeometry>
        </mxCell>
        <mxCell id="EMGSAr9kfIs654__upMz-71" value="openApi网关" style="rounded=1;whiteSpace=wrap;html=1;fillColor=#E6E6E6;fontSize=14;" vertex="1" parent="1">
          <mxGeometry x="1089" y="1304.1599999999999" width="150" height="70" as="geometry" />
        </mxCell>
        <mxCell id="EMGSAr9kfIs654__upMz-72" value="" style="rounded=0;whiteSpace=wrap;html=1;fillColor=#FFFFFF;strokeWidth=3;fontSize=14;" vertex="1" parent="1">
          <mxGeometry x="1083.5" y="2060" width="156.5" height="60" as="geometry" />
        </mxCell>
        <mxCell id="EMGSAr9kfIs654__upMz-73" value="音视频系统" style="text;html=1;align=center;verticalAlign=middle;resizable=0;points=[];autosize=1;fillColor=#000000;fontColor=#FFFFFF;fontSize=14;" vertex="1" parent="1">
          <mxGeometry x="1083.5" y="2060" width="90" height="30" as="geometry" />
        </mxCell>
        <mxCell id="EMGSAr9kfIs654__upMz-74" value="outerWriteRpc" style="rounded=1;whiteSpace=wrap;html=1;fillColor=#E6E6E6;fontSize=14;" vertex="1" parent="1">
          <mxGeometry x="1089" y="1535.5" width="150" height="70" as="geometry" />
        </mxCell>
        <mxCell id="EMGSAr9kfIs654__upMz-75" value="" style="edgeStyle=orthogonalEdgeStyle;rounded=0;orthogonalLoop=1;jettySize=auto;html=1;" edge="1" parent="1" source="EMGSAr9kfIs654__upMz-76" target="EMGSAr9kfIs654__upMz-77">
          <mxGeometry relative="1" as="geometry" />
        </mxCell>
        <mxCell id="EMGSAr9kfIs654__upMz-76" value="db" style="shape=cylinder3;whiteSpace=wrap;html=1;boundedLbl=1;backgroundOutline=1;size=15;" vertex="1" parent="1">
          <mxGeometry x="1083.5" y="1685" width="60" height="80" as="geometry" />
        </mxCell>
        <mxCell id="EMGSAr9kfIs654__upMz-77" value="redis" style="shape=cylinder3;whiteSpace=wrap;html=1;boundedLbl=1;backgroundOutline=1;size=15;" vertex="1" parent="1">
          <mxGeometry x="1180" y="1685" width="60" height="80" as="geometry" />
        </mxCell>
        <mxCell id="EMGSAr9kfIs654__upMz-78" value="" style="edgeStyle=orthogonalEdgeStyle;rounded=0;orthogonalLoop=1;jettySize=auto;html=1;exitX=1.004;exitY=0.298;exitDx=0;exitDy=0;exitPerimeter=0;" edge="1" parent="1" source="EMGSAr9kfIs654__upMz-80">
          <mxGeometry relative="1" as="geometry">
            <mxPoint x="1070" y="1690" as="targetPoint" />
            <Array as="points">
              <mxPoint x="1040" y="1691" />
              <mxPoint x="1069" y="1690" />
            </Array>
          </mxGeometry>
        </mxCell>
        <mxCell id="EMGSAr9kfIs654__upMz-79" value="&lt;b&gt;&lt;font color=&quot;#ff3333&quot;&gt;2.1.1&lt;/font&gt;&lt;/b&gt;&lt;br&gt;创建记录" style="edgeLabel;html=1;align=center;verticalAlign=middle;resizable=0;points=[];" vertex="1" connectable="0" parent="EMGSAr9kfIs654__upMz-78">
          <mxGeometry x="-0.2942" y="3" relative="1" as="geometry">
            <mxPoint x="8" y="-15" as="offset" />
          </mxGeometry>
        </mxCell>
        <mxCell id="EMGSAr9kfIs654__upMz-80" value="api服务" style="rounded=1;whiteSpace=wrap;html=1;fillColor=#E6E6E6;fontSize=14;" vertex="1" parent="1">
          <mxGeometry x="950" y="1640" width="60" height="170" as="geometry" />
        </mxCell>
        <mxCell id="EMGSAr9kfIs654__upMz-81" value="" style="edgeStyle=orthogonalEdgeStyle;rounded=0;orthogonalLoop=1;jettySize=auto;html=1;entryX=0.01;entryY=0.92;entryDx=0;entryDy=0;entryPerimeter=0;" edge="1" parent="1" source="EMGSAr9kfIs654__upMz-82" target="EMGSAr9kfIs654__upMz-80">
          <mxGeometry relative="1" as="geometry">
            <mxPoint x="807" y="1855" as="targetPoint" />
            <Array as="points">
              <mxPoint x="760" y="1865" />
              <mxPoint x="760" y="1796" />
            </Array>
          </mxGeometry>
        </mxCell>
        <mxCell id="EMGSAr9kfIs654__upMz-82" value="关闭游戏" style="rounded=1;whiteSpace=wrap;html=1;fillColor=#E6E6E6;fontSize=14;" vertex="1" parent="1">
          <mxGeometry x="533" y="1830" width="150" height="70" as="geometry" />
        </mxCell>
        <mxCell id="EMGSAr9kfIs654__upMz-83" value="" style="edgeStyle=orthogonalEdgeStyle;rounded=0;orthogonalLoop=1;jettySize=auto;html=1;entryX=0.01;entryY=0.647;entryDx=0;entryDy=0;entryPerimeter=0;" edge="1" parent="1" source="EMGSAr9kfIs654__upMz-84" target="EMGSAr9kfIs654__upMz-80">
          <mxGeometry relative="1" as="geometry">
            <mxPoint x="807" y="1775" as="targetPoint" />
            <Array as="points">
              <mxPoint x="760" y="1775" />
              <mxPoint x="760" y="1750" />
            </Array>
          </mxGeometry>
        </mxCell>
        <mxCell id="EMGSAr9kfIs654__upMz-84" value="上报心跳" style="rounded=1;whiteSpace=wrap;html=1;fillColor=#E6E6E6;fontSize=14;" vertex="1" parent="1">
          <mxGeometry x="533" y="1740" width="150" height="70" as="geometry" />
        </mxCell>
        <mxCell id="EMGSAr9kfIs654__upMz-85" value="OAuthClient服务" style="rounded=1;whiteSpace=wrap;html=1;fillColor=#E6E6E6;fontSize=14;" vertex="1" parent="1">
          <mxGeometry x="1470" y="1304.1599999999999" width="150" height="70" as="geometry" />
        </mxCell>
        <mxCell id="EMGSAr9kfIs654__upMz-86" value="readRpc" style="rounded=1;whiteSpace=wrap;html=1;fillColor=#E6E6E6;fontSize=14;" vertex="1" parent="1">
          <mxGeometry x="1089" y="1840" width="150" height="70" as="geometry" />
        </mxCell>
        <mxCell id="EMGSAr9kfIs654__upMz-87" value="送礼consumer" style="rounded=1;whiteSpace=wrap;html=1;fontSize=14;" vertex="1" parent="1">
          <mxGeometry x="1470" y="1565" width="150" height="70" as="geometry" />
        </mxCell>
        <mxCell id="EMGSAr9kfIs654__upMz-88" value="点赞consumer" style="rounded=1;whiteSpace=wrap;html=1;fontSize=14;" vertex="1" parent="1">
          <mxGeometry x="1470" y="1665" width="150" height="70" as="geometry" />
        </mxCell>
        <mxCell id="EMGSAr9kfIs654__upMz-89" value="评论consumer" style="rounded=1;whiteSpace=wrap;html=1;fontSize=14;" vertex="1" parent="1">
          <mxGeometry x="1470" y="1765" width="150" height="70" as="geometry" />
        </mxCell>
        <mxCell id="EMGSAr9kfIs654__upMz-90" value="" style="rounded=0;whiteSpace=wrap;html=1;fillColor=#FFFFFF;strokeWidth=3;fontSize=14;" vertex="1" parent="1">
          <mxGeometry x="1685.4299999999998" y="1270" width="149.57" height="150" as="geometry" />
        </mxCell>
        <mxCell id="EMGSAr9kfIs654__upMz-91" value="社交系统" style="text;html=1;align=center;verticalAlign=middle;resizable=0;points=[];autosize=1;fillColor=#000000;fontColor=#FFFFFF;fontSize=14;" vertex="1" parent="1">
          <mxGeometry x="1685.4299999999998" y="1270" width="80" height="30" as="geometry" />
        </mxCell>
        <mxCell id="EMGSAr9kfIs654__upMz-92" value="" style="outlineConnect=0;fillColor=#82B366;strokeColor=#82b366;dashed=0;verticalLabelPosition=bottom;verticalAlign=top;align=center;html=1;fontSize=12;fontStyle=0;aspect=fixed;pointerEvents=1;shape=mxgraph.aws4.elasticache_for_memcached;" vertex="1" parent="1">
          <mxGeometry x="1740.43" y="1321.6599999999994" width="39.57" height="35" as="geometry" />
        </mxCell>
        <mxCell id="EMGSAr9kfIs654__upMz-93" value="&lt;span style=&quot;font-family: arial; font-size: 13px;&quot;&gt;userCacheNew&lt;/span&gt;" style="text;html=1;strokeColor=none;fillColor=none;align=center;verticalAlign=middle;whiteSpace=wrap;rounded=0;" vertex="1" parent="1">
          <mxGeometry x="1680" y="1356.6599999999999" width="160.43" height="30" as="geometry" />
        </mxCell>
        <mxCell id="EMGSAr9kfIs654__upMz-94" value="" style="endArrow=classic;html=1;rounded=0;entryX=1;entryY=0.5;entryDx=0;entryDy=0;exitX=-0.001;exitY=0.568;exitDx=0;exitDy=0;exitPerimeter=0;" edge="1" parent="1" source="EMGSAr9kfIs654__upMz-46" target="EMGSAr9kfIs654__upMz-48">
          <mxGeometry width="50" height="50" relative="1" as="geometry">
            <mxPoint x="1400" y="1650" as="sourcePoint" />
            <mxPoint x="1450" y="1600" as="targetPoint" />
          </mxGeometry>
        </mxCell>
        <mxCell id="EMGSAr9kfIs654__upMz-95" value="&lt;b&gt;&lt;font color=&quot;#ff3333&quot;&gt;3.2&lt;/font&gt;&lt;/b&gt; 查询游戏记录" style="edgeLabel;html=1;align=center;verticalAlign=middle;resizable=0;points=[];" vertex="1" connectable="0" parent="EMGSAr9kfIs654__upMz-94">
          <mxGeometry x="0.0135" y="-4" relative="1" as="geometry">
            <mxPoint y="-11" as="offset" />
          </mxGeometry>
        </mxCell>
        <mxCell id="EMGSAr9kfIs654__upMz-96" value="" style="edgeStyle=orthogonalEdgeStyle;rounded=0;orthogonalLoop=1;jettySize=auto;html=1;entryX=0.5;entryY=1;entryDx=0;entryDy=0;exitX=0.5;exitY=0;exitDx=0;exitDy=0;" edge="1" parent="1" source="EMGSAr9kfIs654__upMz-46" target="EMGSAr9kfIs654__upMz-85">
          <mxGeometry relative="1" as="geometry">
            <mxPoint x="1550" y="1460" as="targetPoint" />
          </mxGeometry>
        </mxCell>
        <mxCell id="EMGSAr9kfIs654__upMz-97" value="&lt;b&gt;&lt;font color=&quot;#ff3333&quot;&gt;3.3&lt;/font&gt;&lt;/b&gt; 查询openId" style="edgeLabel;html=1;align=center;verticalAlign=middle;resizable=0;points=[];" vertex="1" connectable="0" parent="EMGSAr9kfIs654__upMz-96">
          <mxGeometry x="0.2113" relative="1" as="geometry">
            <mxPoint as="offset" />
          </mxGeometry>
        </mxCell>
        <mxCell id="EMGSAr9kfIs654__upMz-98" value="" style="endArrow=classic;html=1;rounded=0;exitX=0.25;exitY=0;exitDx=0;exitDy=0;entryX=0.5;entryY=1;entryDx=0;entryDy=0;" edge="1" parent="1" source="EMGSAr9kfIs654__upMz-46" target="EMGSAr9kfIs654__upMz-69">
          <mxGeometry width="50" height="50" relative="1" as="geometry">
            <mxPoint x="1370" y="1540" as="sourcePoint" />
            <mxPoint x="1420" y="1490" as="targetPoint" />
            <Array as="points">
              <mxPoint x="1500" y="1460" />
              <mxPoint x="1354" y="1460" />
            </Array>
          </mxGeometry>
        </mxCell>
        <mxCell id="EMGSAr9kfIs654__upMz-99" value="" style="endArrow=classic;html=1;rounded=0;entryX=0.551;entryY=1.011;entryDx=0;entryDy=0;entryPerimeter=0;" edge="1" parent="1" target="EMGSAr9kfIs654__upMz-90">
          <mxGeometry width="50" height="50" relative="1" as="geometry">
            <mxPoint x="1545" y="1460" as="sourcePoint" />
            <mxPoint x="1405" y="1540" as="targetPoint" />
            <Array as="points">
              <mxPoint x="1768" y="1460" />
            </Array>
          </mxGeometry>
        </mxCell>
        <mxCell id="EMGSAr9kfIs654__upMz-100" value="&lt;b&gt;&lt;font color=&quot;#ff3333&quot;&gt;3.4&lt;/font&gt;&lt;/b&gt; 推送互动信息" style="text;html=1;align=center;verticalAlign=middle;resizable=0;points=[];autosize=1;strokeColor=none;fillColor=none;" vertex="1" parent="1">
          <mxGeometry x="1350" y="1458" width="120" height="30" as="geometry" />
        </mxCell>
        <mxCell id="EMGSAr9kfIs654__upMz-101" value="3.3 查询用户头像、昵称" style="text;html=1;align=center;verticalAlign=middle;resizable=0;points=[];autosize=1;strokeColor=none;fillColor=none;" vertex="1" parent="1">
          <mxGeometry x="1555" y="1458" width="150" height="30" as="geometry" />
        </mxCell>
        <mxCell id="EMGSAr9kfIs654__upMz-102" value="" style="edgeStyle=orthogonalEdgeStyle;rounded=0;orthogonalLoop=1;jettySize=auto;html=1;" edge="1" parent="1" source="EMGSAr9kfIs654__upMz-103" target="EMGSAr9kfIs654__upMz-88">
          <mxGeometry relative="1" as="geometry" />
        </mxCell>
        <mxCell id="EMGSAr9kfIs654__upMz-103" value="点赞消息" style="outlineConnect=0;fontColor=#232F3E;gradientColor=#945DF2;gradientDirection=north;fillColor=#5A30B5;strokeColor=#ffffff;dashed=0;verticalLabelPosition=bottom;verticalAlign=top;align=center;html=1;fontSize=14;fontStyle=0;aspect=fixed;shape=mxgraph.aws4.resourceIcon;resIcon=mxgraph.aws4.managed_streaming_for_kafka;" vertex="1" parent="1">
          <mxGeometry x="1783.4299999999998" y="1669.28" width="61.43" height="61.43" as="geometry" />
        </mxCell>
        <mxCell id="EMGSAr9kfIs654__upMz-104" value="" style="edgeStyle=orthogonalEdgeStyle;rounded=0;orthogonalLoop=1;jettySize=auto;html=1;" edge="1" parent="1" source="EMGSAr9kfIs654__upMz-105" target="EMGSAr9kfIs654__upMz-89">
          <mxGeometry relative="1" as="geometry" />
        </mxCell>
        <mxCell id="EMGSAr9kfIs654__upMz-105" value="评论消息" style="outlineConnect=0;fontColor=#232F3E;gradientColor=#945DF2;gradientDirection=north;fillColor=#5A30B5;strokeColor=#ffffff;dashed=0;verticalLabelPosition=bottom;verticalAlign=top;align=center;html=1;fontSize=14;fontStyle=0;aspect=fixed;shape=mxgraph.aws4.resourceIcon;resIcon=mxgraph.aws4.managed_streaming_for_kafka;" vertex="1" parent="1">
          <mxGeometry x="1783.4299999999998" y="1768.57" width="61.43" height="61.43" as="geometry" />
        </mxCell>
        <mxCell id="EMGSAr9kfIs654__upMz-106" value="" style="edgeStyle=orthogonalEdgeStyle;rounded=0;orthogonalLoop=1;jettySize=auto;html=1;" edge="1" parent="1" source="EMGSAr9kfIs654__upMz-108" target="EMGSAr9kfIs654__upMz-87">
          <mxGeometry relative="1" as="geometry" />
        </mxCell>
        <mxCell id="EMGSAr9kfIs654__upMz-107" value="&lt;b&gt;&lt;font color=&quot;#ff3333&quot;&gt;3.1&lt;/font&gt;&lt;/b&gt; 互动" style="edgeLabel;html=1;align=center;verticalAlign=middle;resizable=0;points=[];" vertex="1" connectable="0" parent="EMGSAr9kfIs654__upMz-106">
          <mxGeometry x="-0.085" y="-3" relative="1" as="geometry">
            <mxPoint x="-1" y="-6" as="offset" />
          </mxGeometry>
        </mxCell>
        <mxCell id="EMGSAr9kfIs654__upMz-108" value="送礼消息" style="outlineConnect=0;fontColor=#232F3E;gradientColor=#945DF2;gradientDirection=north;fillColor=#5A30B5;strokeColor=#ffffff;dashed=0;verticalLabelPosition=bottom;verticalAlign=top;align=center;html=1;fontSize=14;fontStyle=0;aspect=fixed;shape=mxgraph.aws4.resourceIcon;resIcon=mxgraph.aws4.managed_streaming_for_kafka;" vertex="1" parent="1">
          <mxGeometry x="1783.4299999999998" y="1568.57" width="61.43" height="61.43" as="geometry" />
        </mxCell>
        <mxCell id="EMGSAr9kfIs654__upMz-109" value="" style="edgeStyle=orthogonalEdgeStyle;rounded=0;orthogonalLoop=1;jettySize=auto;html=1;" edge="1" parent="1" source="EMGSAr9kfIs654__upMz-110" target="EMGSAr9kfIs654__upMz-114">
          <mxGeometry relative="1" as="geometry" />
        </mxCell>
        <mxCell id="EMGSAr9kfIs654__upMz-110" value="" style="pointerEvents=1;shadow=0;dashed=0;html=1;strokeColor=none;fillColor=#505050;labelPosition=center;verticalLabelPosition=bottom;verticalAlign=top;outlineConnect=0;align=center;shape=mxgraph.office.services.user_services;fontSize=14;" vertex="1" parent="1">
          <mxGeometry x="196" y="1727.5" width="59" height="59" as="geometry" />
        </mxCell>
        <mxCell id="EMGSAr9kfIs654__upMz-111" value="" style="edgeStyle=orthogonalEdgeStyle;rounded=0;orthogonalLoop=1;jettySize=auto;html=1;" edge="1" parent="1" source="EMGSAr9kfIs654__upMz-112" target="EMGSAr9kfIs654__upMz-117">
          <mxGeometry relative="1" as="geometry" />
        </mxCell>
        <mxCell id="EMGSAr9kfIs654__upMz-112" value="" style="pointerEvents=1;shadow=0;dashed=0;html=1;strokeColor=none;fillColor=#505050;labelPosition=center;verticalLabelPosition=bottom;verticalAlign=top;outlineConnect=0;align=center;shape=mxgraph.office.services.user_services;fontSize=14;" vertex="1" parent="1">
          <mxGeometry x="2070" y="1673" width="59" height="59" as="geometry" />
        </mxCell>
        <mxCell id="EMGSAr9kfIs654__upMz-113" value="" style="html=1;strokeWidth=1;shadow=0;dashed=0;shape=mxgraph.ios7.misc.broadcast;fillColor=#D79B00;strokeColor=#d79b00;buttonText=;strokeColor2=#222222;fontSize=8;verticalLabelPosition=bottom;verticalAlign=top;align=center;sketch=0;" vertex="1" parent="1">
          <mxGeometry x="1279" y="1845" width="60" height="60" as="geometry" />
        </mxCell>
        <mxCell id="EMGSAr9kfIs654__upMz-114" value="" style="verticalLabelPosition=bottom;html=1;verticalAlign=top;align=center;strokeColor=none;fillColor=#505050;shape=mxgraph.azure.computer;pointerEvents=1;" vertex="1" parent="1">
          <mxGeometry x="306" y="1735" width="50" height="45" as="geometry" />
        </mxCell>
        <mxCell id="EMGSAr9kfIs654__upMz-115" value="" style="edgeStyle=orthogonalEdgeStyle;rounded=0;orthogonalLoop=1;jettySize=auto;html=1;" edge="1" parent="1" source="EMGSAr9kfIs654__upMz-117" target="EMGSAr9kfIs654__upMz-44">
          <mxGeometry relative="1" as="geometry">
            <Array as="points">
              <mxPoint x="1920" y="1703" />
              <mxPoint x="1920" y="1703" />
            </Array>
          </mxGeometry>
        </mxCell>
        <mxCell id="EMGSAr9kfIs654__upMz-116" value="" style="edgeStyle=orthogonalEdgeStyle;rounded=0;orthogonalLoop=1;jettySize=auto;html=1;entryX=0.796;entryY=-0.031;entryDx=0;entryDy=0;entryPerimeter=0;" edge="1" parent="1" source="EMGSAr9kfIs654__upMz-117" target="EMGSAr9kfIs654__upMz-72">
          <mxGeometry relative="1" as="geometry">
            <mxPoint x="1200" y="2030" as="targetPoint" />
            <Array as="points">
              <mxPoint x="1988" y="2000" />
              <mxPoint x="1208" y="2000" />
            </Array>
          </mxGeometry>
        </mxCell>
        <mxCell id="EMGSAr9kfIs654__upMz-117" value="" style="verticalLabelPosition=bottom;html=1;verticalAlign=top;align=center;strokeColor=none;fillColor=#505050;shape=mxgraph.azure.mobile;pointerEvents=1;" vertex="1" parent="1">
          <mxGeometry x="1970" y="1677.5" width="35" height="50" as="geometry" />
        </mxCell>
        <mxCell id="EMGSAr9kfIs654__upMz-118" value="" style="edgeStyle=orthogonalEdgeStyle;rounded=0;orthogonalLoop=1;jettySize=auto;html=1;entryX=0.294;entryY=-0.029;entryDx=0;entryDy=0;entryPerimeter=0;exitX=0.5;exitY=1;exitDx=0;exitDy=0;" edge="1" parent="1" source="EMGSAr9kfIs654__upMz-120" target="EMGSAr9kfIs654__upMz-73">
          <mxGeometry relative="1" as="geometry">
            <mxPoint x="1110" y="2020" as="targetPoint" />
            <Array as="points">
              <mxPoint x="485" y="1828" />
              <mxPoint x="485" y="2000" />
              <mxPoint x="1110" y="2000" />
            </Array>
          </mxGeometry>
        </mxCell>
        <mxCell id="EMGSAr9kfIs654__upMz-119" value="推流" style="edgeLabel;html=1;align=center;verticalAlign=middle;resizable=0;points=[];" vertex="1" connectable="0" parent="EMGSAr9kfIs654__upMz-118">
          <mxGeometry x="0.076" y="4" relative="1" as="geometry">
            <mxPoint y="-5" as="offset" />
          </mxGeometry>
        </mxCell>
        <mxCell id="EMGSAr9kfIs654__upMz-120" value="画面&lt;br&gt;合流" style="rounded=1;whiteSpace=wrap;html=1;fillColor=#E6E6E6;fontSize=14;" vertex="1" parent="1">
          <mxGeometry x="436" y="1607.75" width="70" height="220" as="geometry" />
        </mxCell>
        <mxCell id="EMGSAr9kfIs654__upMz-121" value="用户互动" style="text;html=1;align=center;verticalAlign=middle;resizable=0;points=[];autosize=1;fillColor=#000000;fontColor=#FFFFFF;fontSize=14;" vertex="1" parent="1">
          <mxGeometry x="1740.4299999999998" y="1505.5" width="80" height="30" as="geometry" />
        </mxCell>
        <mxCell id="EMGSAr9kfIs654__upMz-122" value="" style="endArrow=classic;html=1;rounded=0;exitX=1;exitY=0.5;exitDx=0;exitDy=0;exitPerimeter=0;entryX=-0.005;entryY=0.59;entryDx=0;entryDy=0;entryPerimeter=0;" edge="1" parent="1" source="EMGSAr9kfIs654__upMz-114" target="EMGSAr9kfIs654__upMz-50">
          <mxGeometry width="50" height="50" relative="1" as="geometry">
            <mxPoint x="656" y="1750" as="sourcePoint" />
            <mxPoint x="706" y="1700" as="targetPoint" />
          </mxGeometry>
        </mxCell>
        <mxCell id="EMGSAr9kfIs654__upMz-123" value="&lt;b&gt;&lt;font color=&quot;#ff3333&quot;&gt;2.1.2&lt;/font&gt;&lt;/b&gt; 拉低延时流" style="text;html=1;align=center;verticalAlign=middle;resizable=0;points=[];autosize=1;strokeColor=none;fillColor=none;" vertex="1" parent="1">
          <mxGeometry x="1814.8600000000001" y="1970" width="110" height="30" as="geometry" />
        </mxCell>
        <mxCell id="EMGSAr9kfIs654__upMz-124" value="" style="rounded=0;whiteSpace=wrap;html=1;fillColor=#FFFFFF;strokeWidth=3;fontSize=14;" vertex="1" parent="1">
          <mxGeometry x="903.5" y="2060" width="143" height="60" as="geometry" />
        </mxCell>
        <mxCell id="EMGSAr9kfIs654__upMz-125" value="搜索系统" style="text;html=1;align=center;verticalAlign=middle;resizable=0;points=[];autosize=1;fillColor=#000000;fontColor=#FFFFFF;fontSize=14;" vertex="1" parent="1">
          <mxGeometry x="903.5" y="2060" width="80" height="30" as="geometry" />
        </mxCell>
        <mxCell id="EMGSAr9kfIs654__upMz-126" style="edgeStyle=orthogonalEdgeStyle;rounded=0;orthogonalLoop=1;jettySize=auto;html=1;exitX=0.5;exitY=1;exitDx=0;exitDy=0;" edge="1" parent="1" source="EMGSAr9kfIs654__upMz-124" target="EMGSAr9kfIs654__upMz-124">
          <mxGeometry relative="1" as="geometry" />
        </mxCell>
        <mxCell id="EMGSAr9kfIs654__upMz-127" value="" style="rounded=0;whiteSpace=wrap;html=1;fillColor=#FFFFFF;strokeWidth=3;fontSize=14;" vertex="1" parent="1">
          <mxGeometry x="1279" y="2060" width="143" height="60" as="geometry" />
        </mxCell>
        <mxCell id="EMGSAr9kfIs654__upMz-128" value="审核系统" style="text;html=1;align=center;verticalAlign=middle;resizable=0;points=[];autosize=1;fillColor=#000000;fontColor=#FFFFFF;fontSize=14;" vertex="1" parent="1">
          <mxGeometry x="1279" y="2060" width="80" height="30" as="geometry" />
        </mxCell>
        <mxCell id="EMGSAr9kfIs654__upMz-129" style="edgeStyle=orthogonalEdgeStyle;rounded=0;orthogonalLoop=1;jettySize=auto;html=1;exitX=0.5;exitY=1;exitDx=0;exitDy=0;" edge="1" parent="1" source="EMGSAr9kfIs654__upMz-127" target="EMGSAr9kfIs654__upMz-127">
          <mxGeometry relative="1" as="geometry" />
        </mxCell>
        <mxCell id="EMGSAr9kfIs654__upMz-130" value="" style="rounded=0;whiteSpace=wrap;html=1;fillColor=#FFFFFF;strokeWidth=3;fontSize=14;" vertex="1" parent="1">
          <mxGeometry x="1455" y="2060" width="143" height="60" as="geometry" />
        </mxCell>
        <mxCell id="EMGSAr9kfIs654__upMz-131" value="推荐系统" style="text;html=1;align=center;verticalAlign=middle;resizable=0;points=[];autosize=1;fillColor=#000000;fontColor=#FFFFFF;fontSize=14;" vertex="1" parent="1">
          <mxGeometry x="1455" y="2060" width="80" height="30" as="geometry" />
        </mxCell>
        <mxCell id="EMGSAr9kfIs654__upMz-132" style="edgeStyle=orthogonalEdgeStyle;rounded=0;orthogonalLoop=1;jettySize=auto;html=1;exitX=0.5;exitY=1;exitDx=0;exitDy=0;" edge="1" parent="1" source="EMGSAr9kfIs654__upMz-130" target="EMGSAr9kfIs654__upMz-130">
          <mxGeometry relative="1" as="geometry" />
        </mxCell>
        <mxCell id="EMGSAr9kfIs654__upMz-133" value="" style="rounded=0;whiteSpace=wrap;html=1;fillColor=#FFFFFF;strokeWidth=3;fontSize=14;" vertex="1" parent="1">
          <mxGeometry x="1635" y="2059" width="143" height="60" as="geometry" />
        </mxCell>
        <mxCell id="EMGSAr9kfIs654__upMz-134" value="mmu系统" style="text;html=1;align=center;verticalAlign=middle;resizable=0;points=[];autosize=1;fillColor=#000000;fontColor=#FFFFFF;fontSize=14;" vertex="1" parent="1">
          <mxGeometry x="1635" y="2059" width="80" height="30" as="geometry" />
        </mxCell>
        <mxCell id="EMGSAr9kfIs654__upMz-135" style="edgeStyle=orthogonalEdgeStyle;rounded=0;orthogonalLoop=1;jettySize=auto;html=1;exitX=0.5;exitY=1;exitDx=0;exitDy=0;" edge="1" parent="1" source="EMGSAr9kfIs654__upMz-133" target="EMGSAr9kfIs654__upMz-133">
          <mxGeometry relative="1" as="geometry" />
        </mxCell>
        <mxCell id="EMGSAr9kfIs654__upMz-136" value="状态变更消息" style="outlineConnect=0;fontColor=#232F3E;gradientColor=#945DF2;gradientDirection=north;fillColor=#5A30B5;strokeColor=#ffffff;dashed=0;verticalLabelPosition=bottom;verticalAlign=top;align=center;html=1;fontSize=14;fontStyle=0;aspect=fixed;shape=mxgraph.aws4.resourceIcon;resIcon=mxgraph.aws4.managed_streaming_for_kafka;" vertex="1" parent="1">
          <mxGeometry x="998.5699999999999" y="1843.57" width="61.43" height="61.43" as="geometry" />
        </mxCell>
        <mxCell id="EMGSAr9kfIs654__upMz-137" value="&lt;font style=&quot;font-size: 14px;&quot;&gt;状态变更信令&lt;/font&gt;" style="text;html=1;align=center;verticalAlign=middle;resizable=0;points=[];autosize=1;strokeColor=none;fillColor=none;" vertex="1" parent="1">
          <mxGeometry x="1254" y="1905" width="110" height="30" as="geometry" />
        </mxCell>
        <mxCell id="EMGSAr9kfIs654__upMz-138" value="" style="edgeStyle=orthogonalEdgeStyle;rounded=0;orthogonalLoop=1;jettySize=auto;html=1;entryX=-0.021;entryY=0.22;entryDx=0;entryDy=0;entryPerimeter=0;" edge="1" parent="1" source="EMGSAr9kfIs654__upMz-140" target="EMGSAr9kfIs654__upMz-120">
          <mxGeometry relative="1" as="geometry">
            <mxPoint x="467" y="1237" as="targetPoint" />
            <Array as="points">
              <mxPoint x="390" y="1237" />
              <mxPoint x="390" y="1656" />
            </Array>
          </mxGeometry>
        </mxCell>
        <mxCell id="EMGSAr9kfIs654__upMz-139" value="窗口捕获" style="edgeLabel;html=1;align=center;verticalAlign=middle;resizable=0;points=[];" vertex="1" connectable="0" parent="EMGSAr9kfIs654__upMz-138">
          <mxGeometry x="0.0973" y="-1" relative="1" as="geometry">
            <mxPoint as="offset" />
          </mxGeometry>
        </mxCell>
        <mxCell id="EMGSAr9kfIs654__upMz-140" value="游戏画面" style="rounded=1;whiteSpace=wrap;html=1;fillColor=#E6E6E6;fontSize=14;" vertex="1" parent="1">
          <mxGeometry x="547" y="1202" width="150" height="70" as="geometry" />
        </mxCell>
        <mxCell id="EMGSAr9kfIs654__upMz-141" value="&lt;b&gt;&lt;font color=&quot;#ff3333&quot;&gt;1.1&lt;/font&gt;&lt;/b&gt; 获取roomCode" style="text;html=1;align=center;verticalAlign=middle;resizable=0;points=[];autosize=1;strokeColor=none;fillColor=none;" vertex="1" parent="1">
          <mxGeometry x="807" y="1630" width="120" height="30" as="geometry" />
        </mxCell>
        <mxCell id="EMGSAr9kfIs654__upMz-142" value="销毁游戏记录" style="text;html=1;align=center;verticalAlign=middle;resizable=0;points=[];autosize=1;strokeColor=none;fillColor=none;" vertex="1" parent="1">
          <mxGeometry x="822" y="1768.57" width="100" height="30" as="geometry" />
        </mxCell>
        <mxCell id="EMGSAr9kfIs654__upMz-143" value="" style="endArrow=classic;html=1;rounded=0;" edge="1" parent="1">
          <mxGeometry width="50" height="50" relative="1" as="geometry">
            <mxPoint x="780" y="1706" as="sourcePoint" />
            <mxPoint x="700" y="1141" as="targetPoint" />
            <Array as="points">
              <mxPoint x="780" y="1141" />
            </Array>
          </mxGeometry>
        </mxCell>
        <mxCell id="EMGSAr9kfIs654__upMz-144" value="&lt;b&gt;&lt;font color=&quot;#ff3333&quot;&gt;2.2&lt;/font&gt;&lt;/b&gt; 拉起游戏进程" style="edgeLabel;html=1;align=center;verticalAlign=middle;resizable=0;points=[];" vertex="1" connectable="0" parent="EMGSAr9kfIs654__upMz-143">
          <mxGeometry x="-0.0627" y="2" relative="1" as="geometry">
            <mxPoint x="-8" y="-18" as="offset" />
          </mxGeometry>
        </mxCell>
        <mxCell id="EMGSAr9kfIs654__upMz-145" value="" style="endArrow=classic;html=1;rounded=0;entryX=1;entryY=0.75;entryDx=0;entryDy=0;" edge="1" parent="1" target="EMGSAr9kfIs654__upMz-64">
          <mxGeometry width="50" height="50" relative="1" as="geometry">
            <mxPoint x="810" y="1750" as="sourcePoint" />
            <mxPoint x="850" y="1150" as="targetPoint" />
            <Array as="points">
              <mxPoint x="810" y="1155" />
            </Array>
          </mxGeometry>
        </mxCell>
        <mxCell id="EMGSAr9kfIs654__upMz-146" value="&lt;b&gt;&lt;font color=&quot;#ff3333&quot;&gt;2.3&lt;/font&gt;&lt;/b&gt; 监听游戏进程" style="edgeLabel;html=1;align=center;verticalAlign=middle;resizable=0;points=[];" vertex="1" connectable="0" parent="EMGSAr9kfIs654__upMz-145">
          <mxGeometry x="-0.1706" relative="1" as="geometry">
            <mxPoint as="offset" />
          </mxGeometry>
        </mxCell>
        <mxCell id="EMGSAr9kfIs654__upMz-147" value="" style="endArrow=classic;startArrow=classic;html=1;rounded=0;exitX=1;exitY=0.25;exitDx=0;exitDy=0;entryX=0;entryY=0.25;entryDx=0;entryDy=0;" edge="1" parent="1" source="EMGSAr9kfIs654__upMz-64" target="EMGSAr9kfIs654__upMz-63">
          <mxGeometry width="50" height="50" relative="1" as="geometry">
            <mxPoint x="780" y="1400" as="sourcePoint" />
            <mxPoint x="830" y="1350" as="targetPoint" />
          </mxGeometry>
        </mxCell>
        <mxCell id="EMGSAr9kfIs654__upMz-148" value="&lt;b&gt;&lt;font color=&quot;#ff3333&quot;&gt;2.2.1&lt;/font&gt;&lt;/b&gt; 建立连接" style="text;html=1;align=center;verticalAlign=middle;resizable=0;points=[];autosize=1;strokeColor=none;fillColor=none;" vertex="1" parent="1">
          <mxGeometry x="810" y="1087" width="100" height="30" as="geometry" />
        </mxCell>
        <mxCell id="EMGSAr9kfIs654__upMz-149" value="&lt;font style=&quot;font-size: 14px;&quot;&gt;主播&lt;/font&gt;" style="text;html=1;align=center;verticalAlign=middle;resizable=0;points=[];autosize=1;strokeColor=none;fillColor=none;" vertex="1" parent="1">
          <mxGeometry x="191" y="1788" width="50" height="30" as="geometry" />
        </mxCell>
        <mxCell id="EMGSAr9kfIs654__upMz-150" value="&lt;font style=&quot;font-size: 14px;&quot;&gt;观众&lt;/font&gt;" style="text;html=1;align=center;verticalAlign=middle;resizable=0;points=[];autosize=1;strokeColor=none;fillColor=none;" vertex="1" parent="1">
          <mxGeometry x="2065" y="1728" width="50" height="30" as="geometry" />
        </mxCell>
        <mxCell id="EMGSAr9kfIs654__upMz-151" value="" style="endArrow=classic;html=1;rounded=0;entryX=0.5;entryY=1;entryDx=0;entryDy=0;exitX=0.311;exitY=-0.009;exitDx=0;exitDy=0;exitPerimeter=0;" edge="1" parent="1" source="EMGSAr9kfIs654__upMz-43" target="EMGSAr9kfIs654__upMz-86">
          <mxGeometry width="50" height="50" relative="1" as="geometry">
            <mxPoint x="1140" y="1950" as="sourcePoint" />
            <mxPoint x="1190" y="1900" as="targetPoint" />
          </mxGeometry>
        </mxCell>
        <mxCell id="EMGSAr9kfIs654__upMz-152" value="对外提供游戏状态查询" style="edgeLabel;html=1;align=center;verticalAlign=middle;resizable=0;points=[];" vertex="1" connectable="0" parent="EMGSAr9kfIs654__upMz-151">
          <mxGeometry x="-0.1172" relative="1" as="geometry">
            <mxPoint as="offset" />
          </mxGeometry>
        </mxCell>
        <mxCell id="EMGSAr9kfIs654__upMz-153" value="" style="endArrow=classic;html=1;rounded=0;exitX=0.51;exitY=0.5;exitDx=0;exitDy=0;exitPerimeter=0;entryX=0.03;entryY=0.98;entryDx=0;entryDy=0;entryPerimeter=0;" edge="1" parent="1">
          <mxGeometry width="50" height="50" relative="1" as="geometry">
            <mxPoint x="1314" y="1924" as="sourcePoint" />
            <mxPoint x="1975.0500000000002" y="1730.5" as="targetPoint" />
            <Array as="points">
              <mxPoint x="1314" y="1964" />
              <mxPoint x="1974" y="1964" />
            </Array>
          </mxGeometry>
        </mxCell>
        <mxCell id="EMGSAr9kfIs654__upMz-154" value="" style="edgeStyle=orthogonalEdgeStyle;rounded=0;orthogonalLoop=1;jettySize=auto;html=1;exitX=1.004;exitY=0.298;exitDx=0;exitDy=0;exitPerimeter=0;" edge="1" parent="1">
          <mxGeometry relative="1" as="geometry">
            <mxPoint x="1009" y="1757.5" as="sourcePoint" />
            <mxPoint x="1069" y="1756.5" as="targetPoint" />
            <Array as="points">
              <mxPoint x="1039" y="1757.5" />
              <mxPoint x="1068" y="1756.5" />
            </Array>
          </mxGeometry>
        </mxCell>
        <mxCell id="EMGSAr9kfIs654__upMz-155" value="变更状态" style="edgeLabel;html=1;align=center;verticalAlign=middle;resizable=0;points=[];" vertex="1" connectable="0" parent="EMGSAr9kfIs654__upMz-154">
          <mxGeometry x="-0.2676" y="3" relative="1" as="geometry">
            <mxPoint x="9" y="-11" as="offset" />
          </mxGeometry>
        </mxCell>
        <mxCell id="EMGSAr9kfIs654__upMz-156" value="" style="endArrow=classic;startArrow=classic;html=1;rounded=0;entryX=0.506;entryY=-0.035;entryDx=0;entryDy=0;entryPerimeter=0;" edge="1" parent="1" source="EMGSAr9kfIs654__upMz-136" target="EMGSAr9kfIs654__upMz-113">
          <mxGeometry width="50" height="50" relative="1" as="geometry">
            <mxPoint x="1150" y="1900" as="sourcePoint" />
            <mxPoint x="1200" y="1850" as="targetPoint" />
            <Array as="points">
              <mxPoint x="1029" y="1820" />
              <mxPoint x="1310" y="1820" />
            </Array>
          </mxGeometry>
        </mxCell>
        <mxCell id="EMGSAr9kfIs654__upMz-157" value="2.1.2 发信令" style="edgeLabel;html=1;align=center;verticalAlign=middle;resizable=0;points=[];" vertex="1" connectable="0" parent="EMGSAr9kfIs654__upMz-156">
          <mxGeometry x="0.6246" y="1" relative="1" as="geometry">
            <mxPoint y="-9" as="offset" />
          </mxGeometry>
        </mxCell>
        <mxCell id="EMGSAr9kfIs654__upMz-158" value="&lt;b&gt;&lt;font color=&quot;#ff3333&quot;&gt;2.1.1&lt;/font&gt;&lt;/b&gt;发送开启游戏信令" style="text;html=1;align=center;verticalAlign=middle;resizable=0;points=[];autosize=1;strokeColor=none;fillColor=none;" vertex="1" parent="1">
          <mxGeometry x="1595" y="1938" width="150" height="30" as="geometry" />
        </mxCell>
        <mxCell id="EMGSAr9kfIs654__upMz-159" value="" style="edgeStyle=orthogonalEdgeStyle;rounded=0;orthogonalLoop=1;jettySize=auto;html=1;entryX=0.25;entryY=0;entryDx=0;entryDy=0;exitX=0.25;exitY=1;exitDx=0;exitDy=0;" edge="1" parent="1" source="EMGSAr9kfIs654__upMz-63" target="EMGSAr9kfIs654__upMz-71">
          <mxGeometry relative="1" as="geometry">
            <mxPoint x="1320" y="1250" as="targetPoint" />
          </mxGeometry>
        </mxCell>
        <mxCell id="EMGSAr9kfIs654__upMz-160" value="&lt;b&gt;&lt;font color=&quot;#ff3333&quot;&gt;2.2.2&lt;/font&gt;&lt;/b&gt; 开启绑定" style="edgeLabel;html=1;align=center;verticalAlign=middle;resizable=0;points=[];" vertex="1" connectable="0" parent="EMGSAr9kfIs654__upMz-159">
          <mxGeometry x="-0.1833" y="-1" relative="1" as="geometry">
            <mxPoint as="offset" />
          </mxGeometry>
        </mxCell>
        <mxCell id="EMGSAr9kfIs654__upMz-161" value="" style="endArrow=classic;html=1;rounded=0;exitX=0.5;exitY=1;exitDx=0;exitDy=0;entryX=0.5;entryY=0;entryDx=0;entryDy=0;" edge="1" parent="1" source="EMGSAr9kfIs654__upMz-74" target="EMGSAr9kfIs654__upMz-48">
          <mxGeometry width="50" height="50" relative="1" as="geometry">
            <mxPoint x="1140" y="1640" as="sourcePoint" />
            <mxPoint x="1190" y="1590" as="targetPoint" />
          </mxGeometry>
        </mxCell>
        <mxCell id="EMGSAr9kfIs654__upMz-162" value="&lt;b&gt;&lt;font color=&quot;#ff3333&quot;&gt;2.2.3&lt;/font&gt;&lt;/b&gt; 更新绑定状态" style="edgeLabel;html=1;align=center;verticalAlign=middle;resizable=0;points=[];" vertex="1" connectable="0" parent="EMGSAr9kfIs654__upMz-161">
          <mxGeometry x="-0.1417" y="4" relative="1" as="geometry">
            <mxPoint as="offset" />
          </mxGeometry>
        </mxCell>
        <mxCell id="EMGSAr9kfIs654__upMz-163" value="" style="endArrow=classic;html=1;rounded=0;exitX=0.75;exitY=1;exitDx=0;exitDy=0;entryX=0.75;entryY=0;entryDx=0;entryDy=0;" edge="1" parent="1" source="EMGSAr9kfIs654__upMz-63" target="EMGSAr9kfIs654__upMz-71">
          <mxGeometry width="50" height="50" relative="1" as="geometry">
            <mxPoint x="1100" y="1480" as="sourcePoint" />
            <mxPoint x="1150" y="1430" as="targetPoint" />
          </mxGeometry>
        </mxCell>
        <mxCell id="EMGSAr9kfIs654__upMz-164" value="&lt;b&gt;&lt;font color=&quot;#ff3333&quot;&gt;2.4&lt;/font&gt;&lt;/b&gt; 轮询绑定状态" style="edgeLabel;html=1;align=center;verticalAlign=middle;resizable=0;points=[];" vertex="1" connectable="0" parent="EMGSAr9kfIs654__upMz-163">
          <mxGeometry x="-0.2197" y="3" relative="1" as="geometry">
            <mxPoint x="26" y="3" as="offset" />
          </mxGeometry>
        </mxCell>
        <mxCell id="EMGSAr9kfIs654__upMz-165" value="&lt;b&gt;&lt;font color=&quot;#ff3333&quot;&gt;2.3.1&lt;/font&gt;&lt;/b&gt; 上报心跳" style="text;html=1;align=center;verticalAlign=middle;resizable=0;points=[];autosize=1;strokeColor=none;fillColor=none;" vertex="1" parent="1">
          <mxGeometry x="807" y="1720" width="100" height="30" as="geometry" />
        </mxCell>
        <mxCell id="EMGSAr9kfIs654__upMz-166" value="&lt;font color=&quot;#ff3333&quot;&gt;&lt;b&gt;3.1&lt;/b&gt;&lt;/font&gt; 互动" style="edgeLabel;html=1;align=center;verticalAlign=middle;resizable=0;points=[];" vertex="1" connectable="0" parent="1">
          <mxGeometry x="1707" y="1690" as="geometry" />
        </mxCell>
        <mxCell id="EMGSAr9kfIs654__upMz-167" value="&lt;b&gt;&lt;font color=&quot;#ff3333&quot;&gt;3.1&lt;/font&gt;&lt;/b&gt; 互动" style="edgeLabel;html=1;align=center;verticalAlign=middle;resizable=0;points=[];" vertex="1" connectable="0" parent="1">
          <mxGeometry x="1740" y="1640" as="geometry">
            <mxPoint x="-29" y="149" as="offset" />
          </mxGeometry>
        </mxCell>
        <mxCell id="EMGSAr9kfIs654__upMz-168" value="" style="rounded=0;whiteSpace=wrap;html=1;strokeColor=none;" vertex="1" parent="1">
          <mxGeometry x="180" y="2260" width="1440" height="540" as="geometry" />
        </mxCell>
        <mxCell id="EMGSAr9kfIs654__upMz-169" value="" style="rounded=0;whiteSpace=wrap;html=1;fillColor=#FFFFFF;strokeWidth=3;fontSize=14;" vertex="1" parent="1">
          <mxGeometry x="510" y="2270" width="780" height="520" as="geometry" />
        </mxCell>
        <mxCell id="EMGSAr9kfIs654__upMz-170" value="状态机系统" style="text;html=1;align=center;verticalAlign=middle;resizable=0;points=[];autosize=1;fillColor=#000000;fontColor=#FFFFFF;fontSize=14;" vertex="1" parent="1">
          <mxGeometry x="510" y="2270" width="90" height="30" as="geometry" />
        </mxCell>
        <mxCell id="EMGSAr9kfIs654__upMz-171" value="innerWriteRpc" style="rounded=1;whiteSpace=wrap;html=1;fillColor=#ffe6cc;fontSize=14;strokeColor=#d79b00;" vertex="1" parent="1">
          <mxGeometry x="590" y="2355.5" width="150" height="70" as="geometry" />
        </mxCell>
        <mxCell id="EMGSAr9kfIs654__upMz-172" value="" style="edgeStyle=orthogonalEdgeStyle;rounded=0;orthogonalLoop=1;jettySize=auto;html=1;" edge="1" parent="1" source="EMGSAr9kfIs654__upMz-173" target="EMGSAr9kfIs654__upMz-181">
          <mxGeometry relative="1" as="geometry">
            <mxPoint x="996" y="2395" as="targetPoint" />
          </mxGeometry>
        </mxCell>
        <mxCell id="EMGSAr9kfIs654__upMz-173" value="outerWriteRpc" style="rounded=1;whiteSpace=wrap;html=1;fillColor=#ffe6cc;fontSize=14;strokeColor=#d79b00;" vertex="1" parent="1">
          <mxGeometry x="1076" y="2355.5" width="150" height="70" as="geometry" />
        </mxCell>
        <mxCell id="EMGSAr9kfIs654__upMz-174" value="" style="endArrow=classic;html=1;exitX=1;exitY=0.5;exitDx=0;exitDy=0;fontSize=14;" edge="1" parent="1" source="EMGSAr9kfIs654__upMz-171" target="EMGSAr9kfIs654__upMz-181">
          <mxGeometry width="50" height="50" relative="1" as="geometry">
            <mxPoint x="696.5" y="2388.5" as="sourcePoint" />
            <mxPoint x="800" y="2391.5" as="targetPoint" />
          </mxGeometry>
        </mxCell>
        <mxCell id="EMGSAr9kfIs654__upMz-175" value="" style="edgeStyle=orthogonalEdgeStyle;rounded=0;orthogonalLoop=1;jettySize=auto;html=1;entryX=0;entryY=0.5;entryDx=0;entryDy=0;" edge="1" parent="1" source="EMGSAr9kfIs654__upMz-176" target="EMGSAr9kfIs654__upMz-171">
          <mxGeometry relative="1" as="geometry">
            <Array as="points" />
          </mxGeometry>
        </mxCell>
        <mxCell id="EMGSAr9kfIs654__upMz-176" value="" style="rounded=0;whiteSpace=wrap;html=1;fillColor=#FFFFFF;strokeWidth=3;fontSize=14;" vertex="1" parent="1">
          <mxGeometry x="187" y="2275.5" width="270" height="230" as="geometry" />
        </mxCell>
        <mxCell id="EMGSAr9kfIs654__upMz-177" value="伴侣客户端" style="text;html=1;align=center;verticalAlign=middle;resizable=0;points=[];autosize=1;fillColor=#000000;fontColor=#FFFFFF;fontSize=14;" vertex="1" parent="1">
          <mxGeometry x="187" y="2275.5" width="90" height="30" as="geometry" />
        </mxCell>
        <mxCell id="EMGSAr9kfIs654__upMz-178" value="关闭游戏" style="rounded=1;whiteSpace=wrap;html=1;fillColor=#E6E6E6;fontSize=14;" vertex="1" parent="1">
          <mxGeometry x="249" y="2413.5" width="150" height="70" as="geometry" />
        </mxCell>
        <mxCell id="EMGSAr9kfIs654__upMz-179" value="开启游戏" style="rounded=1;whiteSpace=wrap;html=1;fillColor=#E6E6E6;fontSize=14;" vertex="1" parent="1">
          <mxGeometry x="249" y="2320.5" width="150" height="70" as="geometry" />
        </mxCell>
        <mxCell id="EMGSAr9kfIs654__upMz-180" value="" style="edgeStyle=orthogonalEdgeStyle;rounded=0;orthogonalLoop=1;jettySize=auto;html=1;" edge="1" parent="1" source="EMGSAr9kfIs654__upMz-181" target="EMGSAr9kfIs654__upMz-184">
          <mxGeometry relative="1" as="geometry" />
        </mxCell>
        <mxCell id="EMGSAr9kfIs654__upMz-181" value="" style="sketch=0;outlineConnect=0;fontColor=#232F3E;gradientColor=none;fillColor=#2E27AD;strokeColor=none;dashed=0;verticalLabelPosition=bottom;verticalAlign=top;align=center;html=1;fontSize=12;fontStyle=0;aspect=fixed;pointerEvents=1;shape=mxgraph.aws4.rds_mysql_instance;" vertex="1" parent="1">
          <mxGeometry x="866" y="2351.5" width="78" height="78" as="geometry" />
        </mxCell>
        <mxCell id="EMGSAr9kfIs654__upMz-182" value="" style="sketch=0;outlineConnect=0;fontColor=#232F3E;gradientColor=none;fillColor=#2E27AD;strokeColor=none;dashed=0;verticalLabelPosition=bottom;verticalAlign=top;align=center;html=1;fontSize=12;fontStyle=0;aspect=fixed;pointerEvents=1;shape=mxgraph.aws4.elasticache_for_redis;" vertex="1" parent="1">
          <mxGeometry x="866" y="2700" width="78" height="69" as="geometry" />
        </mxCell>
        <mxCell id="EMGSAr9kfIs654__upMz-183" value="" style="edgeStyle=orthogonalEdgeStyle;rounded=0;orthogonalLoop=1;jettySize=auto;html=1;" edge="1" parent="1" source="EMGSAr9kfIs654__upMz-184" target="EMGSAr9kfIs654__upMz-189">
          <mxGeometry relative="1" as="geometry" />
        </mxCell>
        <mxCell id="EMGSAr9kfIs654__upMz-184" value="kbus服务" style="rounded=1;whiteSpace=wrap;html=1;fillColor=#E6E6E6;fontSize=14;" vertex="1" parent="1">
          <mxGeometry x="830" y="2470" width="150" height="70" as="geometry" />
        </mxCell>
        <mxCell id="EMGSAr9kfIs654__upMz-185" value="" style="rounded=1;whiteSpace=wrap;html=1;fillColor=#E6E6E6;fontSize=14;" vertex="1" parent="1">
          <mxGeometry x="1086" y="2480" width="150" height="70" as="geometry" />
        </mxCell>
        <mxCell id="EMGSAr9kfIs654__upMz-186" value="" style="rounded=1;whiteSpace=wrap;html=1;fillColor=#E6E6E6;fontSize=14;" vertex="1" parent="1">
          <mxGeometry x="1076" y="2490" width="150" height="70" as="geometry" />
        </mxCell>
        <mxCell id="EMGSAr9kfIs654__upMz-187" value="task服务" style="rounded=1;whiteSpace=wrap;html=1;fillColor=#E6E6E6;fontSize=14;" vertex="1" parent="1">
          <mxGeometry x="1066" y="2500" width="150" height="70" as="geometry" />
        </mxCell>
        <mxCell id="EMGSAr9kfIs654__upMz-188" value="" style="edgeStyle=orthogonalEdgeStyle;rounded=0;orthogonalLoop=1;jettySize=auto;html=1;" edge="1" parent="1" source="EMGSAr9kfIs654__upMz-189" target="EMGSAr9kfIs654__upMz-182">
          <mxGeometry relative="1" as="geometry" />
        </mxCell>
        <mxCell id="EMGSAr9kfIs654__upMz-189" value="cacheSetter服务" style="rounded=1;whiteSpace=wrap;html=1;fillColor=#E6E6E6;fontSize=14;" vertex="1" parent="1">
          <mxGeometry x="830" y="2580" width="150" height="70" as="geometry" />
        </mxCell>
        <mxCell id="EMGSAr9kfIs654__upMz-190" value="" style="edgeStyle=orthogonalEdgeStyle;rounded=0;orthogonalLoop=1;jettySize=auto;html=1;" edge="1" parent="1" source="EMGSAr9kfIs654__upMz-192" target="EMGSAr9kfIs654__upMz-181">
          <mxGeometry relative="1" as="geometry">
            <Array as="points">
              <mxPoint x="800" y="2515" />
              <mxPoint x="800" y="2410" />
            </Array>
          </mxGeometry>
        </mxCell>
        <mxCell id="EMGSAr9kfIs654__upMz-191" value="&lt;font style=&quot;font-size: 14px;&quot;&gt;兜底关闭状态&lt;/font&gt;" style="edgeLabel;html=1;align=center;verticalAlign=middle;resizable=0;points=[];" vertex="1" connectable="0" parent="EMGSAr9kfIs654__upMz-190">
          <mxGeometry x="-0.2806" relative="1" as="geometry">
            <mxPoint as="offset" />
          </mxGeometry>
        </mxCell>
        <mxCell id="EMGSAr9kfIs654__upMz-192" value="关播consumer" style="rounded=1;whiteSpace=wrap;html=1;fillColor=#ffe6cc;fontSize=14;strokeColor=#d79b00;" vertex="1" parent="1">
          <mxGeometry x="590" y="2580" width="150" height="70" as="geometry" />
        </mxCell>
        <mxCell id="EMGSAr9kfIs654__upMz-193" value="" style="edgeStyle=orthogonalEdgeStyle;rounded=0;orthogonalLoop=1;jettySize=auto;html=1;entryX=0;entryY=0.5;entryDx=0;entryDy=0;" edge="1" parent="1" source="EMGSAr9kfIs654__upMz-194" target="EMGSAr9kfIs654__upMz-192">
          <mxGeometry relative="1" as="geometry">
            <Array as="points">
              <mxPoint x="590" y="2615" />
            </Array>
          </mxGeometry>
        </mxCell>
        <mxCell id="EMGSAr9kfIs654__upMz-194" value="" style="rounded=0;whiteSpace=wrap;html=1;fillColor=#FFFFFF;strokeWidth=3;fontSize=14;" vertex="1" parent="1">
          <mxGeometry x="187" y="2540" width="270" height="150" as="geometry" />
        </mxCell>
        <mxCell id="EMGSAr9kfIs654__upMz-195" value="关播消息" style="text;html=1;align=center;verticalAlign=middle;resizable=0;points=[];autosize=1;fillColor=#000000;fontColor=#FFFFFF;fontSize=14;" vertex="1" parent="1">
          <mxGeometry x="187" y="2540" width="80" height="30" as="geometry" />
        </mxCell>
        <mxCell id="EMGSAr9kfIs654__upMz-196" value="Kafka" style="outlineConnect=0;fontColor=#232F3E;gradientColor=#945DF2;gradientDirection=north;fillColor=#5A30B5;strokeColor=#ffffff;dashed=0;verticalLabelPosition=bottom;verticalAlign=top;align=center;html=1;fontSize=14;fontStyle=0;aspect=fixed;shape=mxgraph.aws4.resourceIcon;resIcon=mxgraph.aws4.managed_streaming_for_kafka;" vertex="1" parent="1">
          <mxGeometry x="287" y="2587" width="66" height="66" as="geometry" />
        </mxCell>
        <mxCell id="EMGSAr9kfIs654__upMz-197" value="" style="edgeStyle=orthogonalEdgeStyle;rounded=0;orthogonalLoop=1;jettySize=auto;html=1;" edge="1" parent="1" source="EMGSAr9kfIs654__upMz-198" target="EMGSAr9kfIs654__upMz-173">
          <mxGeometry relative="1" as="geometry" />
        </mxCell>
        <mxCell id="EMGSAr9kfIs654__upMz-198" value="" style="rounded=0;whiteSpace=wrap;html=1;fillColor=#FFFFFF;strokeWidth=3;fontSize=14;" vertex="1" parent="1">
          <mxGeometry x="1340" y="2275.5" width="270" height="230" as="geometry" />
        </mxCell>
        <mxCell id="EMGSAr9kfIs654__upMz-199" value="第三方系统" style="text;html=1;align=center;verticalAlign=middle;resizable=0;points=[];autosize=1;fillColor=#000000;fontColor=#FFFFFF;fontSize=14;" vertex="1" parent="1">
          <mxGeometry x="1340" y="2275.5" width="90" height="30" as="geometry" />
        </mxCell>
        <mxCell id="EMGSAr9kfIs654__upMz-200" value="解绑直播间" style="rounded=1;whiteSpace=wrap;html=1;fillColor=#E6E6E6;fontSize=14;" vertex="1" parent="1">
          <mxGeometry x="1402" y="2413.5" width="150" height="70" as="geometry" />
        </mxCell>
        <mxCell id="EMGSAr9kfIs654__upMz-201" value="绑定直播间" style="rounded=1;whiteSpace=wrap;html=1;fillColor=#E6E6E6;fontSize=14;" vertex="1" parent="1">
          <mxGeometry x="1402" y="2320.5" width="150" height="70" as="geometry" />
        </mxCell>
        <mxCell id="EMGSAr9kfIs654__upMz-202" value="" style="curved=1;endArrow=classic;html=1;rounded=0;entryX=1;entryY=0.5;entryDx=0;entryDy=0;" edge="1" parent="1" source="EMGSAr9kfIs654__upMz-181" target="EMGSAr9kfIs654__upMz-189">
          <mxGeometry width="50" height="50" relative="1" as="geometry">
            <mxPoint x="980" y="2435" as="sourcePoint" />
            <mxPoint x="980" y="2625" as="targetPoint" />
            <Array as="points">
              <mxPoint x="1060" y="2475" />
              <mxPoint x="1060" y="2565" />
            </Array>
          </mxGeometry>
        </mxCell>
        <mxCell id="EMGSAr9kfIs654__upMz-203" value="&lt;font style=&quot;font-size: 14px;&quot;&gt;兜底状态不一致&lt;/font&gt;" style="edgeLabel;html=1;align=center;verticalAlign=middle;resizable=0;points=[];" vertex="1" connectable="0" parent="EMGSAr9kfIs654__upMz-202">
          <mxGeometry x="-0.4139" y="-8" relative="1" as="geometry">
            <mxPoint x="8" y="-3" as="offset" />
          </mxGeometry>
        </mxCell>
        <mxCell id="EMGSAr9kfIs654__upMz-204" value="" style="rounded=0;whiteSpace=wrap;html=1;strokeColor=none;" vertex="1" parent="1">
          <mxGeometry x="190" y="2870" width="1140" height="560" as="geometry" />
        </mxCell>
        <mxCell id="EMGSAr9kfIs654__upMz-205" value="" style="rounded=0;whiteSpace=wrap;html=1;fillColor=#FFFFFF;strokeWidth=3;fontSize=14;" vertex="1" parent="1">
          <mxGeometry x="550" y="2880" width="410" height="280" as="geometry" />
        </mxCell>
        <mxCell id="EMGSAr9kfIs654__upMz-206" value="平台服务端" style="text;html=1;align=center;verticalAlign=middle;resizable=0;points=[];autosize=1;fillColor=#000000;fontColor=#FFFFFF;fontSize=14;" vertex="1" parent="1">
          <mxGeometry x="550" y="2880" width="90" height="30" as="geometry" />
        </mxCell>
        <mxCell id="EMGSAr9kfIs654__upMz-207" value="" style="rounded=0;whiteSpace=wrap;html=1;fillColor=#FFFFFF;strokeWidth=3;fontSize=14;" vertex="1" parent="1">
          <mxGeometry x="197" y="2905.5" width="270" height="230" as="geometry" />
        </mxCell>
        <mxCell id="EMGSAr9kfIs654__upMz-208" value="伴侣客户端" style="text;html=1;align=center;verticalAlign=middle;resizable=0;points=[];autosize=1;fillColor=#000000;fontColor=#FFFFFF;fontSize=14;" vertex="1" parent="1">
          <mxGeometry x="197" y="2905.5" width="90" height="30" as="geometry" />
        </mxCell>
        <mxCell id="EMGSAr9kfIs654__upMz-209" value="上报心跳" style="rounded=1;whiteSpace=wrap;html=1;fillColor=#E6E6E6;fontSize=14;" vertex="1" parent="1">
          <mxGeometry x="259" y="3043.5" width="150" height="70" as="geometry" />
        </mxCell>
        <mxCell id="EMGSAr9kfIs654__upMz-210" value="状态变更" style="rounded=1;whiteSpace=wrap;html=1;fillColor=#E6E6E6;fontSize=14;" vertex="1" parent="1">
          <mxGeometry x="259" y="2950.5" width="150" height="70" as="geometry" />
        </mxCell>
        <mxCell id="EMGSAr9kfIs654__upMz-211" value="" style="rounded=0;whiteSpace=wrap;html=1;fillColor=#FFFFFF;strokeWidth=3;fontSize=14;" vertex="1" parent="1">
          <mxGeometry x="625" y="3270" width="270" height="150" as="geometry" />
        </mxCell>
        <mxCell id="EMGSAr9kfIs654__upMz-212" value="游戏客户端" style="text;html=1;align=center;verticalAlign=middle;resizable=0;points=[];autosize=1;fillColor=#000000;fontColor=#FFFFFF;fontSize=14;" vertex="1" parent="1">
          <mxGeometry x="625" y="3270" width="90" height="30" as="geometry" />
        </mxCell>
        <mxCell id="EMGSAr9kfIs654__upMz-213" value="" style="rounded=0;whiteSpace=wrap;html=1;fillColor=#FFFFFF;strokeWidth=3;fontSize=14;" vertex="1" parent="1">
          <mxGeometry x="1050" y="2905.5" width="270" height="230" as="geometry" />
        </mxCell>
        <mxCell id="EMGSAr9kfIs654__upMz-214" value="游戏服务端" style="text;html=1;align=center;verticalAlign=middle;resizable=0;points=[];autosize=1;fillColor=#000000;fontColor=#FFFFFF;fontSize=14;" vertex="1" parent="1">
          <mxGeometry x="1050" y="2905.5" width="90" height="30" as="geometry" />
        </mxCell>
        <mxCell id="EMGSAr9kfIs654__upMz-215" value="上报心跳" style="rounded=1;whiteSpace=wrap;html=1;fillColor=#E6E6E6;fontSize=14;" vertex="1" parent="1">
          <mxGeometry x="1112" y="3043.5" width="150" height="70" as="geometry" />
        </mxCell>
        <mxCell id="EMGSAr9kfIs654__upMz-216" value="状态变更" style="rounded=1;whiteSpace=wrap;html=1;fillColor=#E6E6E6;fontSize=14;" vertex="1" parent="1">
          <mxGeometry x="1112" y="2950.5" width="150" height="70" as="geometry" />
        </mxCell>
        <mxCell id="EMGSAr9kfIs654__upMz-217" value="状态中转通知器" style="rounded=1;whiteSpace=wrap;html=1;fillColor=#f8cecc;fontSize=14;strokeColor=#b85450;" vertex="1" parent="1">
          <mxGeometry x="680" y="2956" width="150" height="70" as="geometry" />
        </mxCell>
        <mxCell id="EMGSAr9kfIs654__upMz-218" value="游戏进程" style="rounded=1;whiteSpace=wrap;html=1;fillColor=#E6E6E6;fontSize=14;" vertex="1" parent="1">
          <mxGeometry x="685" y="3320" width="150" height="70" as="geometry" />
        </mxCell>
        <mxCell id="EMGSAr9kfIs654__upMz-219" value="" style="endArrow=classic;html=1;rounded=0;entryX=-0.001;entryY=0.37;entryDx=0;entryDy=0;entryPerimeter=0;exitX=0.999;exitY=0.337;exitDx=0;exitDy=0;exitPerimeter=0;fillColor=#dae8fc;strokeColor=#6c8ebf;strokeWidth=2;" edge="1" parent="1" source="EMGSAr9kfIs654__upMz-207" target="EMGSAr9kfIs654__upMz-217">
          <mxGeometry width="50" height="50" relative="1" as="geometry">
            <mxPoint x="470" y="2982" as="sourcePoint" />
            <mxPoint x="810" y="3070" as="targetPoint" />
          </mxGeometry>
        </mxCell>
        <mxCell id="EMGSAr9kfIs654__upMz-220" value="" style="endArrow=classic;html=1;rounded=0;exitX=-0.001;exitY=0.332;exitDx=0;exitDy=0;exitPerimeter=0;entryX=1.012;entryY=0.399;entryDx=0;entryDy=0;entryPerimeter=0;fillColor=#ffe6cc;strokeColor=#d79b00;strokeWidth=2;" edge="1" parent="1" source="EMGSAr9kfIs654__upMz-213" target="EMGSAr9kfIs654__upMz-217">
          <mxGeometry width="50" height="50" relative="1" as="geometry">
            <mxPoint x="760" y="3120" as="sourcePoint" />
            <mxPoint x="810" y="3070" as="targetPoint" />
          </mxGeometry>
        </mxCell>
        <mxCell id="EMGSAr9kfIs654__upMz-221" value="" style="endArrow=classic;html=1;rounded=0;exitX=0.25;exitY=1;exitDx=0;exitDy=0;entryX=0;entryY=0.75;entryDx=0;entryDy=0;fillColor=#dae8fc;strokeColor=#6c8ebf;strokeWidth=2;" edge="1" parent="1" source="EMGSAr9kfIs654__upMz-217" target="EMGSAr9kfIs654__upMz-213">
          <mxGeometry width="50" height="50" relative="1" as="geometry">
            <mxPoint x="760" y="3120" as="sourcePoint" />
            <mxPoint x="810" y="3070" as="targetPoint" />
            <Array as="points">
              <mxPoint x="718" y="3078" />
            </Array>
          </mxGeometry>
        </mxCell>
        <mxCell id="EMGSAr9kfIs654__upMz-222" value="&lt;font style=&quot;font-size: 14px;&quot;&gt;webhook通知&lt;/font&gt;" style="edgeLabel;html=1;align=center;verticalAlign=middle;resizable=0;points=[];" vertex="1" connectable="0" parent="EMGSAr9kfIs654__upMz-221">
          <mxGeometry x="0.0614" y="5" relative="1" as="geometry">
            <mxPoint x="20" y="-13" as="offset" />
          </mxGeometry>
        </mxCell>
        <mxCell id="EMGSAr9kfIs654__upMz-223" value="" style="endArrow=classic;html=1;rounded=0;exitX=0.75;exitY=1;exitDx=0;exitDy=0;entryX=0.999;entryY=0.88;entryDx=0;entryDy=0;entryPerimeter=0;fillColor=#ffe6cc;strokeColor=#d79b00;strokeWidth=2;" edge="1" parent="1" source="EMGSAr9kfIs654__upMz-217" target="EMGSAr9kfIs654__upMz-207">
          <mxGeometry width="50" height="50" relative="1" as="geometry">
            <mxPoint x="760" y="3120" as="sourcePoint" />
            <mxPoint x="810" y="3070" as="targetPoint" />
            <Array as="points">
              <mxPoint x="793" y="3108" />
            </Array>
          </mxGeometry>
        </mxCell>
        <mxCell id="EMGSAr9kfIs654__upMz-224" value="&lt;font style=&quot;font-size: 14px;&quot;&gt;直播长连接信令&lt;/font&gt;" style="edgeLabel;html=1;align=center;verticalAlign=middle;resizable=0;points=[];" vertex="1" connectable="0" parent="EMGSAr9kfIs654__upMz-223">
          <mxGeometry x="0.2845" y="2" relative="1" as="geometry">
            <mxPoint x="12" y="-20" as="offset" />
          </mxGeometry>
        </mxCell>
        <mxCell id="EMGSAr9kfIs654__upMz-225" value="" style="endArrow=classic;startArrow=classic;html=1;rounded=0;entryX=0.5;entryY=1;entryDx=0;entryDy=0;exitX=1;exitY=0.5;exitDx=0;exitDy=0;strokeWidth=2;" edge="1" parent="1" source="EMGSAr9kfIs654__upMz-211" target="EMGSAr9kfIs654__upMz-213">
          <mxGeometry width="50" height="50" relative="1" as="geometry">
            <mxPoint x="760" y="3230" as="sourcePoint" />
            <mxPoint x="810" y="3180" as="targetPoint" />
          </mxGeometry>
        </mxCell>
        <mxCell id="EMGSAr9kfIs654__upMz-226" value="&lt;font style=&quot;font-size: 14px;&quot;&gt;webSocket长连接&lt;/font&gt;" style="edgeLabel;html=1;align=center;verticalAlign=middle;resizable=0;points=[];" vertex="1" connectable="0" parent="EMGSAr9kfIs654__upMz-225">
          <mxGeometry x="0.0998" y="3" relative="1" as="geometry">
            <mxPoint as="offset" />
          </mxGeometry>
        </mxCell>
        <mxCell id="EMGSAr9kfIs654__upMz-227" value="" style="endArrow=classic;startArrow=classic;html=1;rounded=0;entryX=0.5;entryY=1;entryDx=0;entryDy=0;exitX=0;exitY=0.5;exitDx=0;exitDy=0;strokeWidth=2;" edge="1" parent="1" source="EMGSAr9kfIs654__upMz-211" target="EMGSAr9kfIs654__upMz-207">
          <mxGeometry width="50" height="50" relative="1" as="geometry">
            <mxPoint x="760" y="3230" as="sourcePoint" />
            <mxPoint x="810" y="3180" as="targetPoint" />
          </mxGeometry>
        </mxCell>
        <mxCell id="EMGSAr9kfIs654__upMz-228" value="&lt;font style=&quot;font-size: 14px;&quot;&gt;IPC通信&lt;br&gt;监听游戏进程&lt;/font&gt;" style="edgeLabel;html=1;align=center;verticalAlign=middle;resizable=0;points=[];" vertex="1" connectable="0" parent="EMGSAr9kfIs654__upMz-227">
          <mxGeometry x="0.1071" y="-2" relative="1" as="geometry">
            <mxPoint x="-1" as="offset" />
          </mxGeometry>
        </mxCell>
        <mxCell id="EMGSAr9kfIs654__upMz-229" value="" style="rounded=0;whiteSpace=wrap;html=1;strokeColor=none;" vertex="1" parent="1">
          <mxGeometry x="1210" y="20" width="930" height="950" as="geometry" />
        </mxCell>
        <mxCell id="EMGSAr9kfIs654__upMz-230" value="" style="endArrow=classic;html=1;rounded=0;" edge="1" parent="1">
          <mxGeometry width="50" height="50" relative="1" as="geometry">
            <mxPoint x="1270" y="970" as="sourcePoint" />
            <mxPoint x="1270" y="30" as="targetPoint" />
          </mxGeometry>
        </mxCell>
        <mxCell id="EMGSAr9kfIs654__upMz-231" value="" style="endArrow=classic;html=1;rounded=0;" edge="1" parent="1">
          <mxGeometry width="50" height="50" relative="1" as="geometry">
            <mxPoint x="1225" y="920" as="sourcePoint" />
            <mxPoint x="2115" y="920" as="targetPoint" />
          </mxGeometry>
        </mxCell>
        <mxCell id="EMGSAr9kfIs654__upMz-232" value="&lt;font style=&quot;font-size: 14px;&quot;&gt;&lt;b&gt;时间/秒&lt;/b&gt;&lt;/font&gt;" style="text;html=1;align=center;verticalAlign=middle;resizable=0;points=[];autosize=1;strokeColor=none;fillColor=none;" vertex="1" parent="1">
          <mxGeometry x="1210" y="50" width="70" height="30" as="geometry" />
        </mxCell>
        <mxCell id="EMGSAr9kfIs654__upMz-233" value="&lt;font style=&quot;font-size: 14px;&quot;&gt;&lt;b&gt;空间/实例个数&lt;/b&gt;&lt;/font&gt;" style="text;html=1;align=center;verticalAlign=middle;resizable=0;points=[];autosize=1;strokeColor=none;fillColor=none;" vertex="1" parent="1">
          <mxGeometry x="2020" y="930" width="110" height="30" as="geometry" />
        </mxCell>
        <mxCell id="EMGSAr9kfIs654__upMz-234" value="&lt;font style=&quot;font-size: 14px;&quot; color=&quot;#ff3333&quot;&gt;时&lt;br&gt;间&lt;br&gt;维&lt;br&gt;度&lt;br&gt;3&lt;br&gt;条&lt;br&gt;聚&lt;br&gt;合&lt;br&gt;为&lt;br&gt;1&lt;br&gt;条&lt;/font&gt;" style="text;html=1;align=center;verticalAlign=middle;resizable=0;points=[];autosize=1;strokeColor=none;fillColor=none;" vertex="1" parent="1">
          <mxGeometry x="1290" y="138.5" width="40" height="200" as="geometry" />
        </mxCell>
        <mxCell id="EMGSAr9kfIs654__upMz-235" value="&lt;font style=&quot;font-size: 14px;&quot; color=&quot;#ff3333&quot;&gt;空间维度3条聚合为1条&lt;/font&gt;" style="text;html=1;align=center;verticalAlign=middle;resizable=0;points=[];autosize=1;strokeColor=none;fillColor=none;" vertex="1" parent="1">
          <mxGeometry x="1399" y="540.73" width="170" height="30" as="geometry" />
        </mxCell>
        <mxCell id="EMGSAr9kfIs654__upMz-236" value="" style="rounded=0;whiteSpace=wrap;html=1;fontSize=18;fillColor=#f5f5f5;strokeColor=#666666;fontColor=#333333;" vertex="1" parent="1">
          <mxGeometry x="1340" y="70.5" width="210" height="380" as="geometry" />
        </mxCell>
        <mxCell id="EMGSAr9kfIs654__upMz-237" value="用户1 点赞1" style="rounded=1;whiteSpace=wrap;html=1;fontColor=#000000;align=center;" vertex="1" parent="1">
          <mxGeometry x="1380" y="120.49999999999977" width="130" height="60" as="geometry" />
        </mxCell>
        <mxCell id="EMGSAr9kfIs654__upMz-238" value="用户1 点赞2" style="rounded=1;whiteSpace=wrap;html=1;align=center;" vertex="1" parent="1">
          <mxGeometry x="1380" y="202.49999999999977" width="130" height="60" as="geometry" />
        </mxCell>
        <mxCell id="EMGSAr9kfIs654__upMz-239" value="用户1 点赞3" style="rounded=1;whiteSpace=wrap;html=1;align=center;" vertex="1" parent="1">
          <mxGeometry x="1380" y="285.2499999999998" width="130" height="60" as="geometry" />
        </mxCell>
        <mxCell id="EMGSAr9kfIs654__upMz-240" value="用户1 点赞6" style="rounded=1;whiteSpace=wrap;html=1;align=center;fillColor=#ffe6cc;strokeColor=#d79b00;" vertex="1" parent="1">
          <mxGeometry x="1380" y="368.65999999999985" width="130" height="60" as="geometry" />
        </mxCell>
        <mxCell id="EMGSAr9kfIs654__upMz-241" style="edgeStyle=orthogonalEdgeStyle;rounded=0;orthogonalLoop=1;jettySize=auto;html=1;exitX=0.5;exitY=1;exitDx=0;exitDy=0;fontSize=16;" edge="1" parent="1">
          <mxGeometry relative="1" as="geometry">
            <mxPoint x="1565" y="398.84000000000015" as="sourcePoint" />
            <mxPoint x="1565" y="398.84000000000015" as="targetPoint" />
          </mxGeometry>
        </mxCell>
        <mxCell id="EMGSAr9kfIs654__upMz-242" value="&lt;b&gt;&lt;font style=&quot;font-size: 18px;&quot;&gt;+&lt;/font&gt;&lt;/b&gt;" style="text;html=1;align=center;verticalAlign=middle;resizable=0;points=[];autosize=1;strokeColor=none;fillColor=none;" vertex="1" parent="1">
          <mxGeometry x="1430" y="170.5" width="30" height="40" as="geometry" />
        </mxCell>
        <mxCell id="EMGSAr9kfIs654__upMz-243" value="&lt;b&gt;&lt;font style=&quot;font-size: 18px;&quot;&gt;+&lt;/font&gt;&lt;/b&gt;" style="text;html=1;align=center;verticalAlign=middle;resizable=0;points=[];autosize=1;strokeColor=none;fillColor=none;" vertex="1" parent="1">
          <mxGeometry x="1430" y="250.5" width="30" height="40" as="geometry" />
        </mxCell>
        <mxCell id="EMGSAr9kfIs654__upMz-244" value="&lt;b&gt;&lt;font style=&quot;font-size: 18px;&quot;&gt;=&lt;/font&gt;&lt;/b&gt;" style="text;html=1;align=center;verticalAlign=middle;resizable=0;points=[];autosize=1;strokeColor=none;fillColor=none;rotation=90;" vertex="1" parent="1">
          <mxGeometry x="1433" y="338.5" width="30" height="40" as="geometry" />
        </mxCell>
        <mxCell id="EMGSAr9kfIs654__upMz-245" value="点赞consumer 0" style="rounded=0;whiteSpace=wrap;html=1;strokeWidth=1;fillColor=#000000;fontFamily=Verdana;align=center;fontColor=#FFFFFF;fontStyle=1" vertex="1" parent="1">
          <mxGeometry x="1340" y="71" width="120" height="25" as="geometry" />
        </mxCell>
        <mxCell id="EMGSAr9kfIs654__upMz-246" value="" style="rounded=0;whiteSpace=wrap;html=1;fontSize=18;fillColor=#f5f5f5;strokeColor=#666666;fontColor=#333333;" vertex="1" parent="1">
          <mxGeometry x="1590" y="70.5" width="210" height="380" as="geometry" />
        </mxCell>
        <mxCell id="EMGSAr9kfIs654__upMz-247" value="用户1 点赞2" style="rounded=1;whiteSpace=wrap;html=1;fontColor=#000000;align=center;" vertex="1" parent="1">
          <mxGeometry x="1630" y="120.49999999999977" width="130" height="60" as="geometry" />
        </mxCell>
        <mxCell id="EMGSAr9kfIs654__upMz-248" value="用户1 点赞3" style="rounded=1;whiteSpace=wrap;html=1;align=center;" vertex="1" parent="1">
          <mxGeometry x="1630" y="202.49999999999977" width="130" height="60" as="geometry" />
        </mxCell>
        <mxCell id="EMGSAr9kfIs654__upMz-249" value="用户2 点赞5" style="rounded=1;whiteSpace=wrap;html=1;align=center;" vertex="1" parent="1">
          <mxGeometry x="1630" y="285.2499999999998" width="130" height="60" as="geometry" />
        </mxCell>
        <mxCell id="EMGSAr9kfIs654__upMz-250" value="用户1 点赞5&lt;br style=&quot;border-color: var(--border-color);&quot;&gt;用户2 点赞5" style="rounded=1;whiteSpace=wrap;html=1;align=center;fillColor=#ffe6cc;strokeColor=#d79b00;" vertex="1" parent="1">
          <mxGeometry x="1630" y="368.65999999999985" width="130" height="60" as="geometry" />
        </mxCell>
        <mxCell id="EMGSAr9kfIs654__upMz-251" style="edgeStyle=orthogonalEdgeStyle;rounded=0;orthogonalLoop=1;jettySize=auto;html=1;exitX=0.5;exitY=1;exitDx=0;exitDy=0;fontSize=16;" edge="1" parent="1">
          <mxGeometry relative="1" as="geometry">
            <mxPoint x="1815" y="398.84000000000015" as="sourcePoint" />
            <mxPoint x="1815" y="398.84000000000015" as="targetPoint" />
          </mxGeometry>
        </mxCell>
        <mxCell id="EMGSAr9kfIs654__upMz-252" value="&lt;b&gt;&lt;font style=&quot;font-size: 18px;&quot;&gt;+&lt;/font&gt;&lt;/b&gt;" style="text;html=1;align=center;verticalAlign=middle;resizable=0;points=[];autosize=1;strokeColor=none;fillColor=none;" vertex="1" parent="1">
          <mxGeometry x="1680" y="170.5" width="30" height="40" as="geometry" />
        </mxCell>
        <mxCell id="EMGSAr9kfIs654__upMz-253" value="&lt;b&gt;&lt;font style=&quot;font-size: 18px;&quot;&gt;+&lt;/font&gt;&lt;/b&gt;" style="text;html=1;align=center;verticalAlign=middle;resizable=0;points=[];autosize=1;strokeColor=none;fillColor=none;" vertex="1" parent="1">
          <mxGeometry x="1680" y="250.5" width="30" height="40" as="geometry" />
        </mxCell>
        <mxCell id="EMGSAr9kfIs654__upMz-254" value="&lt;b&gt;&lt;font style=&quot;font-size: 18px;&quot;&gt;=&lt;/font&gt;&lt;/b&gt;" style="text;html=1;align=center;verticalAlign=middle;resizable=0;points=[];autosize=1;strokeColor=none;fillColor=none;rotation=90;" vertex="1" parent="1">
          <mxGeometry x="1683" y="338.5" width="30" height="40" as="geometry" />
        </mxCell>
        <mxCell id="EMGSAr9kfIs654__upMz-255" value="点赞consumer 1" style="rounded=0;whiteSpace=wrap;html=1;strokeWidth=1;fillColor=#000000;fontFamily=Verdana;align=center;fontColor=#FFFFFF;fontStyle=1" vertex="1" parent="1">
          <mxGeometry x="1590" y="71" width="120" height="25" as="geometry" />
        </mxCell>
        <mxCell id="EMGSAr9kfIs654__upMz-256" value="&lt;font style=&quot;font-size: 14px;&quot; color=&quot;#000000&quot;&gt;merged_like_topic&lt;br&gt;&lt;br&gt;&lt;/font&gt;" style="outlineConnect=0;fontColor=#232F3E;gradientColor=#945DF2;gradientDirection=north;fillColor=#5A30B5;strokeColor=#ffffff;dashed=0;verticalLabelPosition=bottom;verticalAlign=top;align=center;html=1;fontSize=12;fontStyle=0;aspect=fixed;shape=mxgraph.aws4.resourceIcon;resIcon=mxgraph.aws4.managed_streaming_for_kafka;" vertex="1" parent="1">
          <mxGeometry x="1665" y="510.73" width="60" height="60" as="geometry" />
        </mxCell>
        <mxCell id="EMGSAr9kfIs654__upMz-257" value="" style="rounded=0;whiteSpace=wrap;html=1;fontSize=18;fillColor=#f5f5f5;strokeColor=#666666;fontColor=#333333;" vertex="1" parent="1">
          <mxGeometry x="1590" y="640" width="210" height="130" as="geometry" />
        </mxCell>
        <mxCell id="EMGSAr9kfIs654__upMz-258" value="用户1 点赞6&lt;br&gt;用户1 点赞5&lt;br style=&quot;border-color: var(--border-color);&quot;&gt;用户2 点赞5&lt;br&gt;用户3 点赞8" style="rounded=1;whiteSpace=wrap;html=1;align=center;fillColor=#ffe6cc;strokeColor=#d79b00;" vertex="1" parent="1">
          <mxGeometry x="1630" y="679" width="130" height="74.27" as="geometry" />
        </mxCell>
        <mxCell id="EMGSAr9kfIs654__upMz-259" style="edgeStyle=orthogonalEdgeStyle;rounded=0;orthogonalLoop=1;jettySize=auto;html=1;exitX=0.5;exitY=1;exitDx=0;exitDy=0;fontSize=16;" edge="1" parent="1">
          <mxGeometry relative="1" as="geometry">
            <mxPoint x="1725" y="948.3400000000001" as="sourcePoint" />
            <mxPoint x="1725" y="948.3400000000001" as="targetPoint" />
          </mxGeometry>
        </mxCell>
        <mxCell id="EMGSAr9kfIs654__upMz-260" value="聚合点赞consumer" style="rounded=0;whiteSpace=wrap;html=1;strokeWidth=1;fillColor=#000000;fontFamily=Verdana;align=center;fontColor=#FFFFFF;fontStyle=1" vertex="1" parent="1">
          <mxGeometry x="1590" y="640.5" width="125" height="25" as="geometry" />
        </mxCell>
        <mxCell id="EMGSAr9kfIs654__upMz-261" value="" style="endArrow=classic;html=1;rounded=0;exitX=0.5;exitY=1;exitDx=0;exitDy=0;" edge="1" parent="1" source="EMGSAr9kfIs654__upMz-236" target="EMGSAr9kfIs654__upMz-256">
          <mxGeometry width="50" height="50" relative="1" as="geometry">
            <mxPoint x="1630" y="480" as="sourcePoint" />
            <mxPoint x="1680" y="430" as="targetPoint" />
          </mxGeometry>
        </mxCell>
        <mxCell id="EMGSAr9kfIs654__upMz-262" value="&lt;font style=&quot;font-size: 14px;&quot;&gt;authorId哈希&lt;/font&gt;" style="edgeLabel;html=1;align=center;verticalAlign=middle;resizable=0;points=[];" vertex="1" connectable="0" parent="EMGSAr9kfIs654__upMz-261">
          <mxGeometry x="-0.0566" relative="1" as="geometry">
            <mxPoint as="offset" />
          </mxGeometry>
        </mxCell>
        <mxCell id="EMGSAr9kfIs654__upMz-263" value="" style="endArrow=classic;html=1;rounded=0;exitX=0.5;exitY=1;exitDx=0;exitDy=0;" edge="1" parent="1" source="EMGSAr9kfIs654__upMz-246" target="EMGSAr9kfIs654__upMz-256">
          <mxGeometry width="50" height="50" relative="1" as="geometry">
            <mxPoint x="1630" y="480" as="sourcePoint" />
            <mxPoint x="1680" y="430" as="targetPoint" />
          </mxGeometry>
        </mxCell>
        <mxCell id="EMGSAr9kfIs654__upMz-264" value="&lt;font style=&quot;font-size: 14px;&quot;&gt;authorId哈希&lt;/font&gt;" style="edgeLabel;html=1;align=center;verticalAlign=middle;resizable=0;points=[];" vertex="1" connectable="0" parent="EMGSAr9kfIs654__upMz-263">
          <mxGeometry x="-0.0377" y="1" relative="1" as="geometry">
            <mxPoint as="offset" />
          </mxGeometry>
        </mxCell>
        <mxCell id="EMGSAr9kfIs654__upMz-265" value="" style="rounded=0;whiteSpace=wrap;html=1;fontSize=18;fillColor=#f5f5f5;strokeColor=#666666;fontColor=#333333;" vertex="1" parent="1">
          <mxGeometry x="1590" y="810" width="210" height="54.27" as="geometry" />
        </mxCell>
        <mxCell id="EMGSAr9kfIs654__upMz-266" value="第三方服务" style="rounded=0;whiteSpace=wrap;html=1;strokeWidth=1;fillColor=#000000;fontFamily=Verdana;align=center;fontColor=#FFFFFF;fontStyle=1" vertex="1" parent="1">
          <mxGeometry x="1590" y="810.5" width="102" height="25" as="geometry" />
        </mxCell>
        <mxCell id="EMGSAr9kfIs654__upMz-267" value="" style="endArrow=classic;html=1;rounded=0;" edge="1" parent="1" target="EMGSAr9kfIs654__upMz-257">
          <mxGeometry width="50" height="50" relative="1" as="geometry">
            <mxPoint x="1695" y="595.73" as="sourcePoint" />
            <mxPoint x="1705" y="525.73" as="targetPoint" />
          </mxGeometry>
        </mxCell>
        <mxCell id="EMGSAr9kfIs654__upMz-268" value="" style="endArrow=classic;html=1;rounded=0;exitX=0.5;exitY=1;exitDx=0;exitDy=0;entryX=0.5;entryY=0;entryDx=0;entryDy=0;" edge="1" parent="1" source="EMGSAr9kfIs654__upMz-257" target="EMGSAr9kfIs654__upMz-265">
          <mxGeometry width="50" height="50" relative="1" as="geometry">
            <mxPoint x="1655" y="730" as="sourcePoint" />
            <mxPoint x="1705" y="680" as="targetPoint" />
          </mxGeometry>
        </mxCell>
        <mxCell id="EMGSAr9kfIs654__upMz-269" value="&lt;font style=&quot;font-size: 14px;&quot; color=&quot;#ff3333&quot;&gt;9 qps 降低为 1 qps&amp;nbsp;&lt;/font&gt;" style="text;html=1;align=center;verticalAlign=middle;resizable=0;points=[];autosize=1;strokeColor=none;fillColor=none;" vertex="1" parent="1">
          <mxGeometry x="1410" y="770" width="150" height="30" as="geometry" />
        </mxCell>
        <mxCell id="EMGSAr9kfIs654__upMz-270" value="" style="rounded=0;whiteSpace=wrap;html=1;fontSize=18;fillColor=#f5f5f5;strokeColor=#666666;fontColor=#333333;" vertex="1" parent="1">
          <mxGeometry x="1840" y="70.5" width="210" height="380" as="geometry" />
        </mxCell>
        <mxCell id="EMGSAr9kfIs654__upMz-271" value="用户3 点赞2" style="rounded=1;whiteSpace=wrap;html=1;fontColor=#000000;align=center;" vertex="1" parent="1">
          <mxGeometry x="1880" y="120.49999999999977" width="130" height="60" as="geometry" />
        </mxCell>
        <mxCell id="EMGSAr9kfIs654__upMz-272" value="用户3 点赞3" style="rounded=1;whiteSpace=wrap;html=1;align=center;" vertex="1" parent="1">
          <mxGeometry x="1880" y="202.49999999999977" width="130" height="60" as="geometry" />
        </mxCell>
        <mxCell id="EMGSAr9kfIs654__upMz-273" value="用户3 点赞3" style="rounded=1;whiteSpace=wrap;html=1;align=center;" vertex="1" parent="1">
          <mxGeometry x="1880" y="285.2499999999998" width="130" height="60" as="geometry" />
        </mxCell>
        <mxCell id="EMGSAr9kfIs654__upMz-274" value="用户3 点赞8" style="rounded=1;whiteSpace=wrap;html=1;align=center;fillColor=#ffe6cc;strokeColor=#d79b00;" vertex="1" parent="1">
          <mxGeometry x="1880" y="368.65999999999985" width="130" height="60" as="geometry" />
        </mxCell>
        <mxCell id="EMGSAr9kfIs654__upMz-275" style="edgeStyle=orthogonalEdgeStyle;rounded=0;orthogonalLoop=1;jettySize=auto;html=1;exitX=0.5;exitY=1;exitDx=0;exitDy=0;fontSize=16;" edge="1" parent="1">
          <mxGeometry relative="1" as="geometry">
            <mxPoint x="2065" y="398.84000000000015" as="sourcePoint" />
            <mxPoint x="2065" y="398.84000000000015" as="targetPoint" />
          </mxGeometry>
        </mxCell>
        <mxCell id="EMGSAr9kfIs654__upMz-276" value="&lt;b&gt;&lt;font style=&quot;font-size: 18px;&quot;&gt;+&lt;/font&gt;&lt;/b&gt;" style="text;html=1;align=center;verticalAlign=middle;resizable=0;points=[];autosize=1;strokeColor=none;fillColor=none;" vertex="1" parent="1">
          <mxGeometry x="1930" y="170.5" width="30" height="40" as="geometry" />
        </mxCell>
        <mxCell id="EMGSAr9kfIs654__upMz-277" value="&lt;b&gt;&lt;font style=&quot;font-size: 18px;&quot;&gt;+&lt;/font&gt;&lt;/b&gt;" style="text;html=1;align=center;verticalAlign=middle;resizable=0;points=[];autosize=1;strokeColor=none;fillColor=none;" vertex="1" parent="1">
          <mxGeometry x="1930" y="250.5" width="30" height="40" as="geometry" />
        </mxCell>
        <mxCell id="EMGSAr9kfIs654__upMz-278" value="&lt;b&gt;&lt;font style=&quot;font-size: 18px;&quot;&gt;=&lt;/font&gt;&lt;/b&gt;" style="text;html=1;align=center;verticalAlign=middle;resizable=0;points=[];autosize=1;strokeColor=none;fillColor=none;rotation=90;" vertex="1" parent="1">
          <mxGeometry x="1933" y="338.5" width="30" height="40" as="geometry" />
        </mxCell>
        <mxCell id="EMGSAr9kfIs654__upMz-279" value="点赞consumer 2" style="rounded=0;whiteSpace=wrap;html=1;strokeWidth=1;fillColor=#000000;fontFamily=Verdana;align=center;fontColor=#FFFFFF;fontStyle=1" vertex="1" parent="1">
          <mxGeometry x="1840" y="71" width="120" height="25" as="geometry" />
        </mxCell>
        <mxCell id="EMGSAr9kfIs654__upMz-280" value="" style="endArrow=classic;html=1;rounded=0;exitX=0.5;exitY=1;exitDx=0;exitDy=0;" edge="1" parent="1" source="EMGSAr9kfIs654__upMz-270" target="EMGSAr9kfIs654__upMz-256">
          <mxGeometry width="50" height="50" relative="1" as="geometry">
            <mxPoint x="1810" y="530" as="sourcePoint" />
            <mxPoint x="1830" y="550" as="targetPoint" />
          </mxGeometry>
        </mxCell>
        <mxCell id="EMGSAr9kfIs654__upMz-281" value="&lt;font style=&quot;font-size: 14px;&quot;&gt;authorId哈希&lt;/font&gt;" style="edgeLabel;html=1;align=center;verticalAlign=middle;resizable=0;points=[];" vertex="1" connectable="0" parent="EMGSAr9kfIs654__upMz-280">
          <mxGeometry x="0.0377" y="-1" relative="1" as="geometry">
            <mxPoint as="offset" />
          </mxGeometry>
        </mxCell>
        <mxCell id="EMGSAr9kfIs654__upMz-282" value="" style="rounded=0;whiteSpace=wrap;html=1;strokeColor=none;" vertex="1" parent="1">
          <mxGeometry x="188.64" y="3500" width="790" height="660" as="geometry" />
        </mxCell>
        <mxCell id="EMGSAr9kfIs654__upMz-283" value="" style="rounded=0;whiteSpace=wrap;html=1;fontSize=18;fillColor=#f5f5f5;strokeColor=#666666;fontColor=#333333;" vertex="1" parent="1">
          <mxGeometry x="198.64" y="3510.5" width="210" height="549.5" as="geometry" />
        </mxCell>
        <mxCell id="EMGSAr9kfIs654__upMz-284" value="" style="edgeStyle=orthogonalEdgeStyle;rounded=0;orthogonalLoop=1;jettySize=auto;html=1;" edge="1" parent="1" source="EMGSAr9kfIs654__upMz-285">
          <mxGeometry relative="1" as="geometry">
            <mxPoint x="508.64" y="3590" as="targetPoint" />
          </mxGeometry>
        </mxCell>
        <mxCell id="EMGSAr9kfIs654__upMz-285" value="随机丢弃" style="rounded=1;whiteSpace=wrap;html=1;fontColor=#000000;align=center;" vertex="1" parent="1">
          <mxGeometry x="238.64" y="3560.5" width="130" height="59.5" as="geometry" />
        </mxCell>
        <mxCell id="EMGSAr9kfIs654__upMz-286" value="用户一级频控" style="rounded=1;whiteSpace=wrap;html=1;align=center;" vertex="1" parent="1">
          <mxGeometry x="238.64" y="3642.5" width="130" height="60" as="geometry" />
        </mxCell>
        <mxCell id="EMGSAr9kfIs654__upMz-287" value="用户二级频控" style="rounded=1;whiteSpace=wrap;html=1;align=center;" vertex="1" parent="1">
          <mxGeometry x="238.64" y="3725.25" width="130" height="60" as="geometry" />
        </mxCell>
        <mxCell id="EMGSAr9kfIs654__upMz-288" style="edgeStyle=orthogonalEdgeStyle;rounded=0;orthogonalLoop=1;jettySize=auto;html=1;exitX=0.5;exitY=1;exitDx=0;exitDy=0;fontSize=16;" edge="1" parent="1">
          <mxGeometry relative="1" as="geometry">
            <mxPoint x="423.64" y="3838.84" as="sourcePoint" />
            <mxPoint x="423.64" y="3838.84" as="targetPoint" />
          </mxGeometry>
        </mxCell>
        <mxCell id="EMGSAr9kfIs654__upMz-289" value="点赞consumer&amp;nbsp;" style="rounded=0;whiteSpace=wrap;html=1;strokeWidth=1;fillColor=#000000;fontFamily=Verdana;align=center;fontColor=#FFFFFF;fontStyle=1" vertex="1" parent="1">
          <mxGeometry x="198.64" y="3511" width="120" height="25" as="geometry" />
        </mxCell>
        <mxCell id="EMGSAr9kfIs654__upMz-290" value="" style="rounded=0;whiteSpace=wrap;html=1;fontSize=18;fillColor=#f5f5f5;strokeColor=#666666;fontColor=#333333;" vertex="1" parent="1">
          <mxGeometry x="198.64" y="4100" width="210" height="54.27" as="geometry" />
        </mxCell>
        <mxCell id="EMGSAr9kfIs654__upMz-291" value="第三方服务" style="rounded=0;whiteSpace=wrap;html=1;strokeWidth=1;fillColor=#000000;fontFamily=Verdana;align=center;fontColor=#FFFFFF;fontStyle=1" vertex="1" parent="1">
          <mxGeometry x="198.64" y="4100.5" width="102" height="25" as="geometry" />
        </mxCell>
        <mxCell id="EMGSAr9kfIs654__upMz-292" value="" style="rounded=0;whiteSpace=wrap;html=1;fillColor=#FFFFFF;strokeWidth=3;fontSize=14;" vertex="1" parent="1">
          <mxGeometry x="510.36" y="3527.25" width="149.57" height="127.5" as="geometry" />
        </mxCell>
        <mxCell id="EMGSAr9kfIs654__upMz-293" value="直播系统" style="text;html=1;align=center;verticalAlign=middle;resizable=0;points=[];autosize=1;fillColor=#000000;fontColor=#FFFFFF;fontSize=14;" vertex="1" parent="1">
          <mxGeometry x="510.3599999999999" y="3527.25" width="80" height="30" as="geometry" />
        </mxCell>
        <mxCell id="EMGSAr9kfIs654__upMz-294" value="" style="outlineConnect=0;fillColor=#82B366;strokeColor=#82b366;dashed=0;verticalLabelPosition=bottom;verticalAlign=top;align=center;html=1;fontSize=12;fontStyle=0;aspect=fixed;pointerEvents=1;shape=mxgraph.aws4.elasticache_for_memcached;" vertex="1" parent="1">
          <mxGeometry x="565.3599999999999" y="3578.9099999999994" width="39.57" height="35" as="geometry" />
        </mxCell>
        <mxCell id="EMGSAr9kfIs654__upMz-295" value="&lt;span style=&quot;font-family: arial; font-size: 13px;&quot;&gt;onlineCount&lt;/span&gt;" style="text;html=1;strokeColor=none;fillColor=none;align=center;verticalAlign=middle;whiteSpace=wrap;rounded=0;" vertex="1" parent="1">
          <mxGeometry x="504.92999999999984" y="3613.91" width="160.43" height="30" as="geometry" />
        </mxCell>
        <mxCell id="EMGSAr9kfIs654__upMz-296" value="" style="rounded=0;whiteSpace=wrap;html=1;fillColor=#FFFFFF;strokeWidth=3;fontSize=14;" vertex="1" parent="1">
          <mxGeometry x="510.3599999999998" y="3763.66" width="149.57" height="150" as="geometry" />
        </mxCell>
        <mxCell id="EMGSAr9kfIs654__upMz-297" value="风控系统" style="text;html=1;align=center;verticalAlign=middle;resizable=0;points=[];autosize=1;fillColor=#000000;fontColor=#FFFFFF;fontSize=14;" vertex="1" parent="1">
          <mxGeometry x="510.3599999999998" y="3763.66" width="80" height="30" as="geometry" />
        </mxCell>
        <mxCell id="EMGSAr9kfIs654__upMz-298" value="antispamRpc" style="rounded=1;whiteSpace=wrap;html=1;align=center;" vertex="1" parent="1">
          <mxGeometry x="520.14" y="3823.66" width="130" height="60" as="geometry" />
        </mxCell>
        <mxCell id="EMGSAr9kfIs654__upMz-299" value="" style="edgeStyle=orthogonalEdgeStyle;rounded=0;orthogonalLoop=1;jettySize=auto;html=1;entryX=0;entryY=0.5;entryDx=0;entryDy=0;" edge="1" parent="1" source="EMGSAr9kfIs654__upMz-300" target="EMGSAr9kfIs654__upMz-296">
          <mxGeometry relative="1" as="geometry">
            <mxPoint x="448.64" y="3838.66" as="targetPoint" />
          </mxGeometry>
        </mxCell>
        <mxCell id="EMGSAr9kfIs654__upMz-300" value="风控" style="rounded=1;whiteSpace=wrap;html=1;align=center;" vertex="1" parent="1">
          <mxGeometry x="238.64" y="3808.66" width="130" height="60" as="geometry" />
        </mxCell>
        <mxCell id="EMGSAr9kfIs654__upMz-301" value="直播维度频控" style="rounded=1;whiteSpace=wrap;html=1;align=center;" vertex="1" parent="1">
          <mxGeometry x="238.64" y="3890.5" width="130" height="60" as="geometry" />
        </mxCell>
        <mxCell id="EMGSAr9kfIs654__upMz-302" value="app维度频控" style="rounded=1;whiteSpace=wrap;html=1;align=center;" vertex="1" parent="1">
          <mxGeometry x="238.64" y="3970" width="130" height="60" as="geometry" />
        </mxCell>
        <mxCell id="EMGSAr9kfIs654__upMz-303" value="" style="rounded=0;whiteSpace=wrap;html=1;fontSize=18;fillColor=#f5f5f5;strokeColor=#666666;fontColor=#333333;" vertex="1" parent="1">
          <mxGeometry x="755.64" y="3511" width="210" height="549.5" as="geometry" />
        </mxCell>
        <mxCell id="EMGSAr9kfIs654__upMz-304" value="" style="edgeStyle=orthogonalEdgeStyle;rounded=0;orthogonalLoop=1;jettySize=auto;html=1;entryX=1;entryY=0.5;entryDx=0;entryDy=0;" edge="1" parent="1" source="EMGSAr9kfIs654__upMz-305" target="EMGSAr9kfIs654__upMz-292">
          <mxGeometry relative="1" as="geometry">
            <mxPoint x="715.64" y="3591" as="targetPoint" />
          </mxGeometry>
        </mxCell>
        <mxCell id="EMGSAr9kfIs654__upMz-305" value="随机丢弃" style="rounded=1;whiteSpace=wrap;html=1;fontColor=#000000;align=center;" vertex="1" parent="1">
          <mxGeometry x="795.64" y="3561" width="130" height="60" as="geometry" />
        </mxCell>
        <mxCell id="EMGSAr9kfIs654__upMz-306" value="用户一级频控" style="rounded=1;whiteSpace=wrap;html=1;align=center;" vertex="1" parent="1">
          <mxGeometry x="795.64" y="3643" width="130" height="60" as="geometry" />
        </mxCell>
        <mxCell id="EMGSAr9kfIs654__upMz-307" value="用户二级频控" style="rounded=1;whiteSpace=wrap;html=1;align=center;" vertex="1" parent="1">
          <mxGeometry x="795.64" y="3725.75" width="130" height="60" as="geometry" />
        </mxCell>
        <mxCell id="EMGSAr9kfIs654__upMz-308" style="edgeStyle=orthogonalEdgeStyle;rounded=0;orthogonalLoop=1;jettySize=auto;html=1;exitX=0.5;exitY=1;exitDx=0;exitDy=0;fontSize=16;" edge="1" parent="1">
          <mxGeometry relative="1" as="geometry">
            <mxPoint x="980.64" y="3839.34" as="sourcePoint" />
            <mxPoint x="980.64" y="3839.34" as="targetPoint" />
          </mxGeometry>
        </mxCell>
        <mxCell id="EMGSAr9kfIs654__upMz-309" value="评论consumer&amp;nbsp;" style="rounded=0;whiteSpace=wrap;html=1;strokeWidth=1;fillColor=#000000;fontFamily=Verdana;align=center;fontColor=#FFFFFF;fontStyle=1" vertex="1" parent="1">
          <mxGeometry x="755.64" y="3511.5" width="120" height="25" as="geometry" />
        </mxCell>
        <mxCell id="EMGSAr9kfIs654__upMz-310" value="" style="edgeStyle=orthogonalEdgeStyle;rounded=0;orthogonalLoop=1;jettySize=auto;html=1;entryX=1;entryY=0.5;entryDx=0;entryDy=0;" edge="1" parent="1" source="EMGSAr9kfIs654__upMz-311" target="EMGSAr9kfIs654__upMz-296">
          <mxGeometry relative="1" as="geometry">
            <mxPoint x="715.64" y="3839.16" as="targetPoint" />
          </mxGeometry>
        </mxCell>
        <mxCell id="EMGSAr9kfIs654__upMz-311" value="风控" style="rounded=1;whiteSpace=wrap;html=1;align=center;" vertex="1" parent="1">
          <mxGeometry x="795.64" y="3809.16" width="130" height="60" as="geometry" />
        </mxCell>
        <mxCell id="EMGSAr9kfIs654__upMz-312" value="直播维度频控" style="rounded=1;whiteSpace=wrap;html=1;align=center;" vertex="1" parent="1">
          <mxGeometry x="795.64" y="3891" width="130" height="60" as="geometry" />
        </mxCell>
        <mxCell id="EMGSAr9kfIs654__upMz-313" value="app维度频控" style="rounded=1;whiteSpace=wrap;html=1;align=center;" vertex="1" parent="1">
          <mxGeometry x="795.64" y="3970.5" width="130" height="60" as="geometry" />
        </mxCell>
        <mxCell id="EMGSAr9kfIs654__upMz-314" value="" style="endArrow=classic;html=1;rounded=0;exitX=0.5;exitY=1;exitDx=0;exitDy=0;" edge="1" parent="1" source="EMGSAr9kfIs654__upMz-285" target="EMGSAr9kfIs654__upMz-286">
          <mxGeometry width="50" height="50" relative="1" as="geometry">
            <mxPoint x="668.64" y="3890" as="sourcePoint" />
            <mxPoint x="718.64" y="3840" as="targetPoint" />
          </mxGeometry>
        </mxCell>
        <mxCell id="EMGSAr9kfIs654__upMz-315" value="" style="endArrow=classic;html=1;rounded=0;exitX=0.5;exitY=1;exitDx=0;exitDy=0;entryX=0.5;entryY=0;entryDx=0;entryDy=0;" edge="1" parent="1" source="EMGSAr9kfIs654__upMz-286" target="EMGSAr9kfIs654__upMz-287">
          <mxGeometry width="50" height="50" relative="1" as="geometry">
            <mxPoint x="668.64" y="3890" as="sourcePoint" />
            <mxPoint x="718.64" y="3840" as="targetPoint" />
          </mxGeometry>
        </mxCell>
        <mxCell id="EMGSAr9kfIs654__upMz-316" value="" style="endArrow=classic;html=1;rounded=0;exitX=0.5;exitY=1;exitDx=0;exitDy=0;" edge="1" parent="1" source="EMGSAr9kfIs654__upMz-287" target="EMGSAr9kfIs654__upMz-300">
          <mxGeometry width="50" height="50" relative="1" as="geometry">
            <mxPoint x="668.64" y="3890" as="sourcePoint" />
            <mxPoint x="718.64" y="3840" as="targetPoint" />
          </mxGeometry>
        </mxCell>
        <mxCell id="EMGSAr9kfIs654__upMz-317" value="" style="endArrow=classic;html=1;rounded=0;exitX=0.5;exitY=1;exitDx=0;exitDy=0;" edge="1" parent="1" source="EMGSAr9kfIs654__upMz-300" target="EMGSAr9kfIs654__upMz-301">
          <mxGeometry width="50" height="50" relative="1" as="geometry">
            <mxPoint x="668.64" y="3890" as="sourcePoint" />
            <mxPoint x="558.64" y="3910" as="targetPoint" />
          </mxGeometry>
        </mxCell>
        <mxCell id="EMGSAr9kfIs654__upMz-318" value="" style="endArrow=classic;html=1;rounded=0;exitX=0.5;exitY=1;exitDx=0;exitDy=0;" edge="1" parent="1" source="EMGSAr9kfIs654__upMz-301" target="EMGSAr9kfIs654__upMz-302">
          <mxGeometry width="50" height="50" relative="1" as="geometry">
            <mxPoint x="668.64" y="3890" as="sourcePoint" />
            <mxPoint x="718.64" y="3840" as="targetPoint" />
          </mxGeometry>
        </mxCell>
        <mxCell id="EMGSAr9kfIs654__upMz-319" value="" style="endArrow=classic;html=1;rounded=0;exitX=0.5;exitY=1;exitDx=0;exitDy=0;entryX=0.5;entryY=0;entryDx=0;entryDy=0;" edge="1" parent="1" source="EMGSAr9kfIs654__upMz-283" target="EMGSAr9kfIs654__upMz-290">
          <mxGeometry width="50" height="50" relative="1" as="geometry">
            <mxPoint x="668.64" y="3890" as="sourcePoint" />
            <mxPoint x="718.64" y="3840" as="targetPoint" />
          </mxGeometry>
        </mxCell>
        <mxCell id="EMGSAr9kfIs654__upMz-320" value="" style="rounded=0;whiteSpace=wrap;html=1;fontSize=18;fillColor=#f5f5f5;strokeColor=#666666;fontColor=#333333;" vertex="1" parent="1">
          <mxGeometry x="755.64" y="4091" width="210" height="54.27" as="geometry" />
        </mxCell>
        <mxCell id="EMGSAr9kfIs654__upMz-321" value="第三方服务" style="rounded=0;whiteSpace=wrap;html=1;strokeWidth=1;fillColor=#000000;fontFamily=Verdana;align=center;fontColor=#FFFFFF;fontStyle=1" vertex="1" parent="1">
          <mxGeometry x="755.64" y="4091.5" width="102" height="25" as="geometry" />
        </mxCell>
        <mxCell id="EMGSAr9kfIs654__upMz-322" value="" style="endArrow=classic;html=1;rounded=0;exitX=0.5;exitY=1;exitDx=0;exitDy=0;entryX=0.5;entryY=0;entryDx=0;entryDy=0;" edge="1" parent="1" source="EMGSAr9kfIs654__upMz-303" target="EMGSAr9kfIs654__upMz-320">
          <mxGeometry width="50" height="50" relative="1" as="geometry">
            <mxPoint x="668.64" y="3940.5" as="sourcePoint" />
            <mxPoint x="718.64" y="3890.5" as="targetPoint" />
          </mxGeometry>
        </mxCell>
        <mxCell id="EMGSAr9kfIs654__upMz-323" value="" style="endArrow=classic;html=1;rounded=0;exitX=0.5;exitY=1;exitDx=0;exitDy=0;entryX=0.5;entryY=0;entryDx=0;entryDy=0;" edge="1" parent="1" source="EMGSAr9kfIs654__upMz-305" target="EMGSAr9kfIs654__upMz-306">
          <mxGeometry width="50" height="50" relative="1" as="geometry">
            <mxPoint x="668.64" y="3860" as="sourcePoint" />
            <mxPoint x="718.64" y="3810" as="targetPoint" />
          </mxGeometry>
        </mxCell>
        <mxCell id="EMGSAr9kfIs654__upMz-324" value="" style="endArrow=classic;html=1;rounded=0;exitX=0.5;exitY=1;exitDx=0;exitDy=0;" edge="1" parent="1" source="EMGSAr9kfIs654__upMz-306" target="EMGSAr9kfIs654__upMz-307">
          <mxGeometry width="50" height="50" relative="1" as="geometry">
            <mxPoint x="668.64" y="3860" as="sourcePoint" />
            <mxPoint x="718.64" y="3810" as="targetPoint" />
          </mxGeometry>
        </mxCell>
        <mxCell id="EMGSAr9kfIs654__upMz-325" value="" style="endArrow=classic;html=1;rounded=0;exitX=0.5;exitY=1;exitDx=0;exitDy=0;entryX=0.5;entryY=0;entryDx=0;entryDy=0;" edge="1" parent="1" source="EMGSAr9kfIs654__upMz-307" target="EMGSAr9kfIs654__upMz-311">
          <mxGeometry width="50" height="50" relative="1" as="geometry">
            <mxPoint x="668.64" y="3860" as="sourcePoint" />
            <mxPoint x="718.64" y="3810" as="targetPoint" />
          </mxGeometry>
        </mxCell>
        <mxCell id="EMGSAr9kfIs654__upMz-326" value="" style="endArrow=classic;html=1;rounded=0;exitX=0.5;exitY=1;exitDx=0;exitDy=0;entryX=0.5;entryY=0;entryDx=0;entryDy=0;" edge="1" parent="1" source="EMGSAr9kfIs654__upMz-311" target="EMGSAr9kfIs654__upMz-312">
          <mxGeometry width="50" height="50" relative="1" as="geometry">
            <mxPoint x="668.64" y="3860" as="sourcePoint" />
            <mxPoint x="718.64" y="3810" as="targetPoint" />
          </mxGeometry>
        </mxCell>
        <mxCell id="EMGSAr9kfIs654__upMz-327" value="" style="endArrow=classic;html=1;rounded=0;exitX=0.5;exitY=1;exitDx=0;exitDy=0;entryX=0.5;entryY=0;entryDx=0;entryDy=0;" edge="1" parent="1" source="EMGSAr9kfIs654__upMz-312" target="EMGSAr9kfIs654__upMz-313">
          <mxGeometry width="50" height="50" relative="1" as="geometry">
            <mxPoint x="659.93" y="3970.5" as="sourcePoint" />
            <mxPoint x="709.93" y="3920.5" as="targetPoint" />
          </mxGeometry>
        </mxCell>
        <mxCell id="EMGSAr9kfIs654__upMz-328" value="" style="rounded=0;whiteSpace=wrap;html=1;strokeColor=none;" vertex="1" parent="1">
          <mxGeometry x="2240" y="120.5" width="1120" height="510" as="geometry" />
        </mxCell>
        <mxCell id="EMGSAr9kfIs654__upMz-329" value="" style="rounded=0;whiteSpace=wrap;html=1;strokeColor=#000000;fillColor=#FFFFFF;fontColor=#000000;align=left;strokeWidth=3;" vertex="1" parent="1">
          <mxGeometry x="2580" y="130.5" width="770" height="400" as="geometry" />
        </mxCell>
        <mxCell id="EMGSAr9kfIs654__upMz-330" value="" style="rounded=0;whiteSpace=wrap;html=1;strokeColor=#000000;fillColor=#FFFFFF;fontColor=#000000;align=left;strokeWidth=3;" vertex="1" parent="1">
          <mxGeometry x="2974.5" y="559.5" width="201" height="61" as="geometry" />
        </mxCell>
        <mxCell id="EMGSAr9kfIs654__upMz-331" value="" style="rounded=0;whiteSpace=wrap;html=1;strokeColor=#000000;fillColor=#FFFFFF;fontColor=#000000;align=left;strokeWidth=3;" vertex="1" parent="1">
          <mxGeometry x="2250" y="344.5899999999999" width="205.25" height="120" as="geometry" />
        </mxCell>
        <mxCell id="EMGSAr9kfIs654__upMz-332" value="" style="rounded=1;whiteSpace=wrap;html=1;fontSize=18;fillColor=#f5f5f5;strokeColor=#666666;fontColor=#333333;" vertex="1" parent="1">
          <mxGeometry x="2630" y="248.83999999999992" width="160" height="181.66" as="geometry" />
        </mxCell>
        <mxCell id="EMGSAr9kfIs654__upMz-333" value="" style="edgeStyle=none;rounded=0;orthogonalLoop=1;jettySize=auto;html=1;strokeWidth=2;fontColor=#FFFFFF;" edge="1" parent="1" source="EMGSAr9kfIs654__upMz-334" target="EMGSAr9kfIs654__upMz-337">
          <mxGeometry relative="1" as="geometry" />
        </mxCell>
        <mxCell id="EMGSAr9kfIs654__upMz-334" value="&lt;span style=&quot;font-size: 14px;&quot;&gt;查询用户信息&lt;/span&gt;" style="rounded=1;whiteSpace=wrap;html=1;fontColor=#000000;align=center;" vertex="1" parent="1">
          <mxGeometry x="2645" y="270.4999999999998" width="130" height="60" as="geometry" />
        </mxCell>
        <mxCell id="EMGSAr9kfIs654__upMz-335" value="" style="edgeStyle=orthogonalEdgeStyle;rounded=0;orthogonalLoop=1;jettySize=auto;html=1;" edge="1" parent="1" source="EMGSAr9kfIs654__upMz-337" target="EMGSAr9kfIs654__upMz-367">
          <mxGeometry relative="1" as="geometry" />
        </mxCell>
        <mxCell id="EMGSAr9kfIs654__upMz-336" value="预缓存" style="edgeLabel;html=1;align=center;verticalAlign=middle;resizable=0;points=[];" vertex="1" connectable="0" parent="EMGSAr9kfIs654__upMz-335">
          <mxGeometry x="-0.1951" y="-1" relative="1" as="geometry">
            <mxPoint x="16" y="-1" as="offset" />
          </mxGeometry>
        </mxCell>
        <mxCell id="EMGSAr9kfIs654__upMz-337" value="&lt;span style=&quot;font-size: 14px;&quot;&gt;缓存用户信息&lt;/span&gt;" style="rounded=1;whiteSpace=wrap;html=1;align=center;" vertex="1" parent="1">
          <mxGeometry x="2645" y="352.4999999999998" width="130" height="60" as="geometry" />
        </mxCell>
        <mxCell id="EMGSAr9kfIs654__upMz-338" value="" style="edgeStyle=none;rounded=0;orthogonalLoop=1;jettySize=auto;html=1;strokeWidth=2;fontColor=#FFFFFF;" edge="1" parent="1" source="EMGSAr9kfIs654__upMz-339" target="EMGSAr9kfIs654__upMz-334">
          <mxGeometry relative="1" as="geometry" />
        </mxCell>
        <mxCell id="EMGSAr9kfIs654__upMz-339" value="用户进房" style="ellipse;whiteSpace=wrap;html=1;strokeColor=#000000;fontColor=#000000;align=center;" vertex="1" parent="1">
          <mxGeometry x="2675" y="195.07999999999993" width="70" height="46.67" as="geometry" />
        </mxCell>
        <mxCell id="EMGSAr9kfIs654__upMz-340" value="Text" style="text;html=1;align=center;verticalAlign=middle;resizable=0;points=[];autosize=1;fontColor=#FFFFFF;" vertex="1" parent="1">
          <mxGeometry x="2865.5" y="158.83999999999992" width="40" height="20" as="geometry" />
        </mxCell>
        <mxCell id="EMGSAr9kfIs654__upMz-341" value="&lt;span&gt;直播推送系统&lt;/span&gt;" style="rounded=0;whiteSpace=wrap;html=1;strokeWidth=1;fillColor=#000000;fontFamily=Verdana;align=center;fontColor=#FFFFFF;fontStyle=1" vertex="1" parent="1">
          <mxGeometry x="2580" y="130.5" width="102" height="25" as="geometry" />
        </mxCell>
        <mxCell id="EMGSAr9kfIs654__upMz-342" value="&lt;span&gt;社交关系链系统&lt;/span&gt;" style="rounded=0;whiteSpace=wrap;html=1;strokeWidth=1;fillColor=#000000;fontFamily=Verdana;align=center;fontColor=#FFFFFF;fontStyle=1" vertex="1" parent="1">
          <mxGeometry x="2250" y="346.0899999999997" width="102" height="25" as="geometry" />
        </mxCell>
        <mxCell id="EMGSAr9kfIs654__upMz-343" value="&lt;span&gt;第三方系统&lt;/span&gt;" style="rounded=0;whiteSpace=wrap;html=1;strokeWidth=1;fillColor=#000000;fontFamily=Verdana;align=center;fontColor=#FFFFFF;fontStyle=1" vertex="1" parent="1">
          <mxGeometry x="2974.5" y="559.5" width="100" height="25" as="geometry" />
        </mxCell>
        <mxCell id="EMGSAr9kfIs654__upMz-344" style="edgeStyle=orthogonalEdgeStyle;rounded=0;orthogonalLoop=1;jettySize=auto;html=1;exitX=0.5;exitY=1;exitDx=0;exitDy=0;fontSize=16;" edge="1" parent="1">
          <mxGeometry relative="1" as="geometry">
            <mxPoint x="2545" y="548.8400000000001" as="sourcePoint" />
            <mxPoint x="2545" y="548.8400000000001" as="targetPoint" />
          </mxGeometry>
        </mxCell>
        <mxCell id="EMGSAr9kfIs654__upMz-345" value="" style="rounded=0;whiteSpace=wrap;html=1;strokeColor=#000000;fillColor=#FFFFFF;fontColor=#000000;align=left;strokeWidth=3;" vertex="1" parent="1">
          <mxGeometry x="2250" y="189.5" width="205.25" height="115.09" as="geometry" />
        </mxCell>
        <mxCell id="EMGSAr9kfIs654__upMz-346" value="&lt;span&gt;openapi系统&lt;/span&gt;" style="rounded=0;whiteSpace=wrap;html=1;strokeWidth=1;fillColor=#000000;fontFamily=Verdana;align=center;fontColor=#FFFFFF;fontStyle=1" vertex="1" parent="1">
          <mxGeometry x="2250" y="191" width="102" height="25" as="geometry" />
        </mxCell>
        <mxCell id="EMGSAr9kfIs654__upMz-347" value="&lt;b style=&quot;font-family: arial; font-size: 13px;&quot;&gt;Grpc&lt;/b&gt;&lt;br style=&quot;font-family: arial; font-size: 13px;&quot;&gt;&lt;span style=&quot;font-family: arial; font-size: 13px;&quot;&gt;anticrawlRealTime&lt;/span&gt;&lt;br style=&quot;font-family: arial; font-size: 13px;&quot;&gt;&lt;span style=&quot;font-family: arial; font-size: 13px;&quot;&gt;AntispamService&lt;/span&gt;" style="rounded=1;whiteSpace=wrap;html=1;strokeColor=#6c8ebf;fillColor=#dae8fc;align=center;" vertex="1" parent="1">
          <mxGeometry x="2290" y="234.5899999999997" width="120" height="51.66" as="geometry" />
        </mxCell>
        <mxCell id="EMGSAr9kfIs654__upMz-348" style="edgeStyle=none;rounded=0;orthogonalLoop=1;jettySize=auto;html=1;strokeWidth=1;fontColor=#FFFFFF;entryX=1;entryY=0.5;entryDx=0;entryDy=0;exitX=0;exitY=0.5;exitDx=0;exitDy=0;" edge="1" parent="1" source="EMGSAr9kfIs654__upMz-334" target="EMGSAr9kfIs654__upMz-347">
          <mxGeometry relative="1" as="geometry">
            <mxPoint x="3405.25" y="826.0799999999999" as="targetPoint" />
          </mxGeometry>
        </mxCell>
        <mxCell id="EMGSAr9kfIs654__upMz-349" value="查询用户openId" style="edgeLabel;html=1;align=center;verticalAlign=middle;resizable=0;points=[];" vertex="1" connectable="0" parent="EMGSAr9kfIs654__upMz-348">
          <mxGeometry x="0.1702" y="-1" relative="1" as="geometry">
            <mxPoint y="-1" as="offset" />
          </mxGeometry>
        </mxCell>
        <mxCell id="EMGSAr9kfIs654__upMz-350" value="" style="outlineConnect=0;fillColor=#82B366;strokeColor=#82b366;dashed=0;verticalLabelPosition=bottom;verticalAlign=top;align=center;html=1;fontSize=12;fontStyle=0;aspect=fixed;pointerEvents=1;shape=mxgraph.aws4.elasticache_for_memcached;" vertex="1" parent="1">
          <mxGeometry x="2325.4300000000003" y="384.58999999999946" width="39.57" height="35" as="geometry" />
        </mxCell>
        <mxCell id="EMGSAr9kfIs654__upMz-351" value="&lt;span style=&quot;font-family: arial; font-size: 13px;&quot;&gt;userCacheNew&lt;/span&gt;" style="text;html=1;strokeColor=none;fillColor=none;align=center;verticalAlign=middle;whiteSpace=wrap;rounded=0;" vertex="1" parent="1">
          <mxGeometry x="2265" y="416.2499999999998" width="160.43" height="30" as="geometry" />
        </mxCell>
        <mxCell id="EMGSAr9kfIs654__upMz-352" style="edgeStyle=orthogonalEdgeStyle;rounded=0;orthogonalLoop=1;jettySize=auto;html=1;exitX=0.5;exitY=1;exitDx=0;exitDy=0;" edge="1" parent="1" source="EMGSAr9kfIs654__upMz-341" target="EMGSAr9kfIs654__upMz-341">
          <mxGeometry relative="1" as="geometry" />
        </mxCell>
        <mxCell id="EMGSAr9kfIs654__upMz-353" value="" style="rounded=1;whiteSpace=wrap;html=1;fontSize=18;fillColor=#f5f5f5;strokeColor=#666666;fontColor=#333333;" vertex="1" parent="1">
          <mxGeometry x="2990" y="248.83999999999992" width="170" height="261.66" as="geometry" />
        </mxCell>
        <mxCell id="EMGSAr9kfIs654__upMz-354" value="" style="edgeStyle=none;rounded=0;orthogonalLoop=1;jettySize=auto;html=1;strokeWidth=2;fontColor=#FFFFFF;" edge="1" parent="1" source="EMGSAr9kfIs654__upMz-355" target="EMGSAr9kfIs654__upMz-359">
          <mxGeometry relative="1" as="geometry" />
        </mxCell>
        <mxCell id="EMGSAr9kfIs654__upMz-355" value="&lt;span style=&quot;font-size: 14px;&quot;&gt;消费互动消息&lt;/span&gt;" style="rounded=1;whiteSpace=wrap;html=1;fontColor=#000000;align=center;" vertex="1" parent="1">
          <mxGeometry x="3010" y="270.4999999999998" width="130" height="60" as="geometry" />
        </mxCell>
        <mxCell id="EMGSAr9kfIs654__upMz-356" value="" style="edgeStyle=none;rounded=0;orthogonalLoop=1;jettySize=auto;html=1;strokeWidth=2;fontColor=#FFFFFF;" edge="1" parent="1" source="EMGSAr9kfIs654__upMz-359" target="EMGSAr9kfIs654__upMz-361">
          <mxGeometry relative="1" as="geometry" />
        </mxCell>
        <mxCell id="EMGSAr9kfIs654__upMz-357" value="" style="edgeStyle=orthogonalEdgeStyle;rounded=0;orthogonalLoop=1;jettySize=auto;html=1;" edge="1" parent="1" source="EMGSAr9kfIs654__upMz-359">
          <mxGeometry relative="1" as="geometry">
            <mxPoint x="3270" y="382.5" as="targetPoint" />
          </mxGeometry>
        </mxCell>
        <mxCell id="EMGSAr9kfIs654__upMz-358" value="二次查询失败" style="edgeLabel;html=1;align=center;verticalAlign=middle;resizable=0;points=[];" vertex="1" connectable="0" parent="EMGSAr9kfIs654__upMz-357">
          <mxGeometry x="0.1168" y="-1" relative="1" as="geometry">
            <mxPoint as="offset" />
          </mxGeometry>
        </mxCell>
        <mxCell id="EMGSAr9kfIs654__upMz-359" value="&lt;font style=&quot;font-size: 14px;&quot;&gt;查询用户信息&lt;/font&gt;" style="rounded=1;whiteSpace=wrap;html=1;align=center;" vertex="1" parent="1">
          <mxGeometry x="3010" y="352.4999999999998" width="130" height="60" as="geometry" />
        </mxCell>
        <mxCell id="EMGSAr9kfIs654__upMz-360" value="" style="edgeStyle=none;rounded=0;orthogonalLoop=1;jettySize=auto;html=1;strokeWidth=2;fontColor=#FFFFFF;entryX=0.5;entryY=0;entryDx=0;entryDy=0;" edge="1" parent="1" source="EMGSAr9kfIs654__upMz-361" target="EMGSAr9kfIs654__upMz-330">
          <mxGeometry relative="1" as="geometry">
            <mxPoint x="3075" y="518.6599999999999" as="targetPoint" />
          </mxGeometry>
        </mxCell>
        <mxCell id="EMGSAr9kfIs654__upMz-361" value="&lt;span style=&quot;font-size: 14px;&quot;&gt;组装互动信息&lt;/span&gt;" style="rounded=1;whiteSpace=wrap;html=1;align=center;" vertex="1" parent="1">
          <mxGeometry x="3010" y="435.2499999999998" width="130" height="60" as="geometry" />
        </mxCell>
        <mxCell id="EMGSAr9kfIs654__upMz-362" value="" style="edgeStyle=none;rounded=0;orthogonalLoop=1;jettySize=auto;html=1;strokeWidth=2;fontColor=#FFFFFF;" edge="1" parent="1" source="EMGSAr9kfIs654__upMz-363" target="EMGSAr9kfIs654__upMz-355">
          <mxGeometry relative="1" as="geometry" />
        </mxCell>
        <mxCell id="EMGSAr9kfIs654__upMz-363" value="用户互动" style="ellipse;whiteSpace=wrap;html=1;strokeColor=#000000;fontColor=#000000;align=center;" vertex="1" parent="1">
          <mxGeometry x="3040" y="195.07999999999993" width="70" height="46.67" as="geometry" />
        </mxCell>
        <mxCell id="EMGSAr9kfIs654__upMz-364" style="edgeStyle=orthogonalEdgeStyle;rounded=0;orthogonalLoop=1;jettySize=auto;html=1;exitX=0.5;exitY=1;exitDx=0;exitDy=0;fontSize=16;" edge="1" parent="1">
          <mxGeometry relative="1" as="geometry">
            <mxPoint x="2830" y="548.8400000000001" as="sourcePoint" />
            <mxPoint x="2830" y="548.8400000000001" as="targetPoint" />
          </mxGeometry>
        </mxCell>
        <mxCell id="EMGSAr9kfIs654__upMz-365" value="" style="endArrow=classic;html=1;rounded=0;exitX=0;exitY=0.5;exitDx=0;exitDy=0;entryX=1;entryY=0.5;entryDx=0;entryDy=0;" edge="1" parent="1" source="EMGSAr9kfIs654__upMz-334" target="EMGSAr9kfIs654__upMz-331">
          <mxGeometry width="50" height="50" relative="1" as="geometry">
            <mxPoint x="2570" y="600.5" as="sourcePoint" />
            <mxPoint x="2620" y="550.5" as="targetPoint" />
          </mxGeometry>
        </mxCell>
        <mxCell id="EMGSAr9kfIs654__upMz-366" value="查询用户头像、昵称" style="edgeLabel;html=1;align=center;verticalAlign=middle;resizable=0;points=[];" vertex="1" connectable="0" parent="EMGSAr9kfIs654__upMz-365">
          <mxGeometry x="0.2355" relative="1" as="geometry">
            <mxPoint as="offset" />
          </mxGeometry>
        </mxCell>
        <mxCell id="EMGSAr9kfIs654__upMz-367" value="" style="outlineConnect=0;fontColor=#232F3E;gradientColor=none;fillColor=#3334B9;strokeColor=none;dashed=0;verticalLabelPosition=bottom;verticalAlign=top;align=center;html=1;fontSize=12;fontStyle=0;aspect=fixed;pointerEvents=1;shape=mxgraph.aws4.elasticache_for_redis;" vertex="1" parent="1">
          <mxGeometry x="2870" y="362.5" width="45.22" height="40" as="geometry" />
        </mxCell>
        <mxCell id="EMGSAr9kfIs654__upMz-368" value="" style="endArrow=classic;html=1;rounded=0;exitX=0;exitY=0.5;exitDx=0;exitDy=0;" edge="1" parent="1" source="EMGSAr9kfIs654__upMz-359" target="EMGSAr9kfIs654__upMz-367">
          <mxGeometry width="50" height="50" relative="1" as="geometry">
            <mxPoint x="2830" y="400.5" as="sourcePoint" />
            <mxPoint x="2880" y="350.5" as="targetPoint" />
          </mxGeometry>
        </mxCell>
        <mxCell id="EMGSAr9kfIs654__upMz-369" value="" style="endArrow=classic;html=1;rounded=0;entryX=1;entryY=0.5;entryDx=0;entryDy=0;" edge="1" parent="1" target="EMGSAr9kfIs654__upMz-334">
          <mxGeometry width="50" height="50" relative="1" as="geometry">
            <mxPoint x="2960" y="380.5" as="sourcePoint" />
            <mxPoint x="2880" y="350.5" as="targetPoint" />
            <Array as="points">
              <mxPoint x="2960" y="300.5" />
            </Array>
          </mxGeometry>
        </mxCell>
        <mxCell id="EMGSAr9kfIs654__upMz-370" value="回源" style="edgeLabel;html=1;align=center;verticalAlign=middle;resizable=0;points=[];" vertex="1" connectable="0" parent="EMGSAr9kfIs654__upMz-369">
          <mxGeometry x="0.2251" y="1" relative="1" as="geometry">
            <mxPoint as="offset" />
          </mxGeometry>
        </mxCell>
        <mxCell id="EMGSAr9kfIs654__upMz-371" value="MQ" style="sketch=0;outlineConnect=0;fontColor=#232F3E;gradientColor=none;fillColor=#B0084D;strokeColor=none;dashed=0;verticalLabelPosition=bottom;verticalAlign=top;align=center;html=1;fontSize=12;fontStyle=0;aspect=fixed;pointerEvents=1;shape=mxgraph.aws4.mq_broker;" vertex="1" parent="1">
          <mxGeometry x="3280" y="350.66999999999985" width="58" height="58" as="geometry" />
        </mxCell>
        <mxCell id="EMGSAr9kfIs654__upMz-372" value="" style="endArrow=none;html=1;rounded=0;dashed=1;" edge="1" parent="1">
          <mxGeometry width="50" height="50" relative="1" as="geometry">
            <mxPoint x="2940" y="155.5" as="sourcePoint" />
            <mxPoint x="2940" y="505.5" as="targetPoint" />
          </mxGeometry>
        </mxCell>
        <mxCell id="EMGSAr9kfIs654__upMz-373" value="" style="rounded=0;whiteSpace=wrap;html=1;strokeColor=none;" vertex="1" parent="1">
          <mxGeometry x="2265" y="790" width="1430" height="680" as="geometry" />
        </mxCell>
        <mxCell id="EMGSAr9kfIs654__upMz-374" value="" style="rounded=0;whiteSpace=wrap;html=1;fillColor=#FFFFFF;strokeWidth=3;fontSize=14;" vertex="1" parent="1">
          <mxGeometry x="2605" y="800" width="780" height="660" as="geometry" />
        </mxCell>
        <mxCell id="EMGSAr9kfIs654__upMz-375" value="webhook系统" style="text;html=1;align=center;verticalAlign=middle;resizable=0;points=[];autosize=1;fillColor=#000000;fontColor=#FFFFFF;fontSize=14;" vertex="1" parent="1">
          <mxGeometry x="2605" y="800" width="110" height="30" as="geometry" />
        </mxCell>
        <mxCell id="EMGSAr9kfIs654__upMz-376" value="" style="edgeStyle=orthogonalEdgeStyle;rounded=0;orthogonalLoop=1;jettySize=auto;html=1;fontSize=14;" edge="1" parent="1" target="EMGSAr9kfIs654__upMz-396">
          <mxGeometry relative="1" as="geometry">
            <mxPoint x="2645" y="1032" as="sourcePoint" />
            <Array as="points">
              <mxPoint x="2635" y="1032" />
              <mxPoint x="2635" y="908" />
            </Array>
          </mxGeometry>
        </mxCell>
        <mxCell id="EMGSAr9kfIs654__upMz-377" value="rpc" style="rounded=1;whiteSpace=wrap;html=1;fillColor=#E6E6E6;fontSize=14;" vertex="1" parent="1">
          <mxGeometry x="2685" y="996.5" width="150" height="70" as="geometry" />
        </mxCell>
        <mxCell id="EMGSAr9kfIs654__upMz-378" value="" style="endArrow=classic;html=1;entryX=0;entryY=0.5;entryDx=0;entryDy=0;fontSize=14;" edge="1" parent="1" target="EMGSAr9kfIs654__upMz-377">
          <mxGeometry width="50" height="50" relative="1" as="geometry">
            <mxPoint x="2545" y="1032" as="sourcePoint" />
            <mxPoint x="2641.5" y="1027.5" as="targetPoint" />
          </mxGeometry>
        </mxCell>
        <mxCell id="EMGSAr9kfIs654__upMz-379" value="" style="edgeStyle=orthogonalEdgeStyle;rounded=0;orthogonalLoop=1;jettySize=auto;html=1;fontSize=14;" edge="1" parent="1" source="EMGSAr9kfIs654__upMz-382" target="EMGSAr9kfIs654__upMz-387">
          <mxGeometry relative="1" as="geometry">
            <mxPoint x="3390" y="1031.5" as="targetPoint" />
          </mxGeometry>
        </mxCell>
        <mxCell id="EMGSAr9kfIs654__upMz-380" value="" style="edgeStyle=orthogonalEdgeStyle;rounded=0;orthogonalLoop=1;jettySize=auto;html=1;entryX=1;entryY=0.5;entryDx=0;entryDy=0;fontSize=14;" edge="1" parent="1" source="EMGSAr9kfIs654__upMz-382" target="EMGSAr9kfIs654__upMz-398">
          <mxGeometry relative="1" as="geometry">
            <mxPoint x="3235" y="1310" as="targetPoint" />
            <Array as="points">
              <mxPoint x="3255" y="1300" />
            </Array>
          </mxGeometry>
        </mxCell>
        <mxCell id="EMGSAr9kfIs654__upMz-381" value="失败次数&amp;gt;3" style="edgeLabel;html=1;align=center;verticalAlign=middle;resizable=0;points=[];fontSize=14;" vertex="1" connectable="0" parent="EMGSAr9kfIs654__upMz-380">
          <mxGeometry x="0.1425" y="-2" relative="1" as="geometry">
            <mxPoint y="13" as="offset" />
          </mxGeometry>
        </mxCell>
        <mxCell id="EMGSAr9kfIs654__upMz-382" value="代理服务" style="rounded=1;whiteSpace=wrap;html=1;fillColor=#E6E6E6;fontSize=14;" vertex="1" parent="1">
          <mxGeometry x="3184" y="996.5" width="150" height="70" as="geometry" />
        </mxCell>
        <mxCell id="EMGSAr9kfIs654__upMz-383" value="" style="edgeStyle=orthogonalEdgeStyle;rounded=0;orthogonalLoop=1;jettySize=auto;html=1;fontSize=14;" edge="1" parent="1" source="EMGSAr9kfIs654__upMz-384" target="EMGSAr9kfIs654__upMz-382">
          <mxGeometry relative="1" as="geometry" />
        </mxCell>
        <mxCell id="EMGSAr9kfIs654__upMz-384" value="推送任务服务" style="rounded=1;whiteSpace=wrap;html=1;fillColor=#E6E6E6;fontSize=14;" vertex="1" parent="1">
          <mxGeometry x="2895" y="996.5" width="150" height="70" as="geometry" />
        </mxCell>
        <mxCell id="EMGSAr9kfIs654__upMz-385" value="" style="endArrow=classic;html=1;exitX=1;exitY=0.5;exitDx=0;exitDy=0;entryX=0;entryY=0.5;entryDx=0;entryDy=0;fontSize=14;" edge="1" parent="1" source="EMGSAr9kfIs654__upMz-377" target="EMGSAr9kfIs654__upMz-384">
          <mxGeometry width="50" height="50" relative="1" as="geometry">
            <mxPoint x="2791.5" y="1028.5" as="sourcePoint" />
            <mxPoint x="3199.5" y="1016.5" as="targetPoint" />
          </mxGeometry>
        </mxCell>
        <mxCell id="EMGSAr9kfIs654__upMz-386" value="&lt;font color=&quot;#000000&quot; style=&quot;font-size: 14px;&quot;&gt;rpc调用失败&lt;/font&gt;" style="text;html=1;align=center;verticalAlign=middle;resizable=0;points=[];autosize=1;fontColor=#FFFFFF;fontSize=14;" vertex="1" parent="1">
          <mxGeometry x="2600" y="926.5" width="100" height="30" as="geometry" />
        </mxCell>
        <mxCell id="EMGSAr9kfIs654__upMz-387" value="" style="rounded=0;whiteSpace=wrap;html=1;fillColor=#FFFFFF;strokeWidth=3;fontSize=14;" vertex="1" parent="1">
          <mxGeometry x="3445" y="936.5" width="240" height="190" as="geometry" />
        </mxCell>
        <mxCell id="EMGSAr9kfIs654__upMz-388" value="第三方系统" style="text;html=1;align=center;verticalAlign=middle;resizable=0;points=[];autosize=1;fillColor=#000000;fontColor=#FFFFFF;fontSize=14;" vertex="1" parent="1">
          <mxGeometry x="3445" y="936.5" width="90" height="30" as="geometry" />
        </mxCell>
        <mxCell id="EMGSAr9kfIs654__upMz-389" value="http服务" style="rounded=1;whiteSpace=wrap;html=1;fillColor=#E6E6E6;fontSize=14;" vertex="1" parent="1">
          <mxGeometry x="3490" y="1000" width="150" height="70" as="geometry" />
        </mxCell>
        <mxCell id="EMGSAr9kfIs654__upMz-390" value="" style="rounded=0;whiteSpace=wrap;html=1;fillColor=#FFFFFF;strokeWidth=3;fontSize=14;" vertex="1" parent="1">
          <mxGeometry x="2275" y="861.5" width="270" height="340" as="geometry" />
        </mxCell>
        <mxCell id="EMGSAr9kfIs654__upMz-391" value="业务系统" style="text;html=1;align=center;verticalAlign=middle;resizable=0;points=[];autosize=1;fillColor=#000000;fontColor=#FFFFFF;fontSize=14;" vertex="1" parent="1">
          <mxGeometry x="2275" y="861.5" width="80" height="30" as="geometry" />
        </mxCell>
        <mxCell id="EMGSAr9kfIs654__upMz-392" value="送礼消息" style="rounded=1;whiteSpace=wrap;html=1;fillColor=#E6E6E6;fontSize=14;" vertex="1" parent="1">
          <mxGeometry x="2333" y="999.5" width="150" height="70" as="geometry" />
        </mxCell>
        <mxCell id="EMGSAr9kfIs654__upMz-393" value="点赞消息" style="rounded=1;whiteSpace=wrap;html=1;fillColor=#E6E6E6;fontSize=14;" vertex="1" parent="1">
          <mxGeometry x="2337" y="906.5" width="150" height="70" as="geometry" />
        </mxCell>
        <mxCell id="EMGSAr9kfIs654__upMz-394" value="评论消息" style="rounded=1;whiteSpace=wrap;html=1;fillColor=#E6E6E6;fontSize=14;" vertex="1" parent="1">
          <mxGeometry x="2333" y="1100.5" width="150" height="70" as="geometry" />
        </mxCell>
        <mxCell id="EMGSAr9kfIs654__upMz-395" value="" style="edgeStyle=orthogonalEdgeStyle;rounded=0;orthogonalLoop=1;jettySize=auto;html=1;entryX=0;entryY=0.5;entryDx=0;entryDy=0;fontSize=14;" edge="1" parent="1" source="EMGSAr9kfIs654__upMz-396" target="EMGSAr9kfIs654__upMz-404">
          <mxGeometry relative="1" as="geometry">
            <mxPoint x="2835.5" y="908" as="targetPoint" />
          </mxGeometry>
        </mxCell>
        <mxCell id="EMGSAr9kfIs654__upMz-396" value="Kafka" style="outlineConnect=0;fontColor=#232F3E;gradientColor=#945DF2;gradientDirection=north;fillColor=#5A30B5;strokeColor=#ffffff;dashed=0;verticalLabelPosition=bottom;verticalAlign=top;align=center;html=1;fontSize=14;fontStyle=0;aspect=fixed;shape=mxgraph.aws4.resourceIcon;resIcon=mxgraph.aws4.managed_streaming_for_kafka;" vertex="1" parent="1">
          <mxGeometry x="2742" y="885" width="46" height="46" as="geometry" />
        </mxCell>
        <mxCell id="EMGSAr9kfIs654__upMz-397" value="" style="edgeStyle=orthogonalEdgeStyle;rounded=0;orthogonalLoop=1;jettySize=auto;html=1;fontSize=14;" edge="1" parent="1" source="EMGSAr9kfIs654__upMz-398" target="EMGSAr9kfIs654__upMz-412">
          <mxGeometry relative="1" as="geometry" />
        </mxCell>
        <mxCell id="EMGSAr9kfIs654__upMz-398" value="死信HIVE" style="shape=cylinder;whiteSpace=wrap;html=1;boundedLbl=1;backgroundOutline=1;fontSize=14;" vertex="1" parent="1">
          <mxGeometry x="3073" y="1270" width="98" height="60" as="geometry" />
        </mxCell>
        <mxCell id="EMGSAr9kfIs654__upMz-399" value="" style="endArrow=classic;html=1;rounded=0;fontSize=14;" edge="1" parent="1">
          <mxGeometry width="50" height="50" relative="1" as="geometry">
            <mxPoint x="3255" y="1165" as="sourcePoint" />
            <mxPoint x="3151" y="1165" as="targetPoint" />
          </mxGeometry>
        </mxCell>
        <mxCell id="EMGSAr9kfIs654__upMz-400" value="失败次数&amp;lt;3" style="edgeLabel;html=1;align=center;verticalAlign=middle;resizable=0;points=[];fontSize=14;" vertex="1" connectable="0" parent="EMGSAr9kfIs654__upMz-399">
          <mxGeometry x="-0.0431" y="1" relative="1" as="geometry">
            <mxPoint as="offset" />
          </mxGeometry>
        </mxCell>
        <mxCell id="EMGSAr9kfIs654__upMz-401" value="" style="edgeStyle=orthogonalEdgeStyle;rounded=0;orthogonalLoop=1;jettySize=auto;html=1;fontSize=14;" edge="1" parent="1" source="EMGSAr9kfIs654__upMz-402" target="EMGSAr9kfIs654__upMz-384">
          <mxGeometry relative="1" as="geometry" />
        </mxCell>
        <mxCell id="EMGSAr9kfIs654__upMz-402" value="consumer服务" style="rounded=1;whiteSpace=wrap;html=1;fillColor=#E6E6E6;fontSize=14;" vertex="1" parent="1">
          <mxGeometry x="2895" y="1130" width="150" height="70" as="geometry" />
        </mxCell>
        <mxCell id="EMGSAr9kfIs654__upMz-403" value="" style="edgeStyle=orthogonalEdgeStyle;rounded=0;orthogonalLoop=1;jettySize=auto;html=1;fontSize=14;" edge="1" parent="1" source="EMGSAr9kfIs654__upMz-404" target="EMGSAr9kfIs654__upMz-384">
          <mxGeometry relative="1" as="geometry" />
        </mxCell>
        <mxCell id="EMGSAr9kfIs654__upMz-404" value="consumer服务" style="rounded=1;whiteSpace=wrap;html=1;fillColor=#E6E6E6;fontSize=14;" vertex="1" parent="1">
          <mxGeometry x="2895" y="873" width="150" height="70" as="geometry" />
        </mxCell>
        <mxCell id="EMGSAr9kfIs654__upMz-405" value="" style="edgeStyle=orthogonalEdgeStyle;rounded=0;orthogonalLoop=1;jettySize=auto;html=1;fontSize=14;" edge="1" parent="1" source="EMGSAr9kfIs654__upMz-407" target="EMGSAr9kfIs654__upMz-398">
          <mxGeometry relative="1" as="geometry" />
        </mxCell>
        <mxCell id="EMGSAr9kfIs654__upMz-406" value="人工重放" style="edgeLabel;html=1;align=center;verticalAlign=middle;resizable=0;points=[];fontSize=14;" vertex="1" connectable="0" parent="EMGSAr9kfIs654__upMz-405">
          <mxGeometry x="-0.1817" y="1" relative="1" as="geometry">
            <mxPoint as="offset" />
          </mxGeometry>
        </mxCell>
        <mxCell id="EMGSAr9kfIs654__upMz-407" value="" style="pointerEvents=1;shadow=0;dashed=0;html=1;strokeColor=none;fillColor=#505050;labelPosition=center;verticalLabelPosition=bottom;verticalAlign=top;outlineConnect=0;align=center;shape=mxgraph.office.services.user_services;fontSize=14;" vertex="1" parent="1">
          <mxGeometry x="3092.5" y="1390" width="59" height="59" as="geometry" />
        </mxCell>
        <mxCell id="EMGSAr9kfIs654__upMz-408" value="&lt;font color=&quot;#ff3333&quot; style=&quot;font-size: 14px;&quot;&gt;一次重试&lt;/font&gt;" style="text;html=1;align=center;verticalAlign=middle;resizable=0;points=[];autosize=1;strokeColor=none;fillColor=none;fontSize=14;" vertex="1" parent="1">
          <mxGeometry x="2645" y="860" width="80" height="30" as="geometry" />
        </mxCell>
        <mxCell id="EMGSAr9kfIs654__upMz-409" value="&lt;font color=&quot;#ff3333&quot; style=&quot;font-size: 14px;&quot;&gt;二次重试&lt;/font&gt;" style="text;html=1;align=center;verticalAlign=middle;resizable=0;points=[];autosize=1;strokeColor=none;fillColor=none;fontSize=14;" vertex="1" parent="1">
          <mxGeometry x="2645" y="1140.5" width="80" height="30" as="geometry" />
        </mxCell>
        <mxCell id="EMGSAr9kfIs654__upMz-410" value="&lt;font color=&quot;#ff3333&quot; style=&quot;font-size: 14px;&quot;&gt;三次重试&lt;/font&gt;" style="text;html=1;align=center;verticalAlign=middle;resizable=0;points=[];autosize=1;strokeColor=none;fillColor=none;fontSize=14;" vertex="1" parent="1">
          <mxGeometry x="2645" y="1320" width="80" height="30" as="geometry" />
        </mxCell>
        <mxCell id="EMGSAr9kfIs654__upMz-411" value="" style="edgeStyle=orthogonalEdgeStyle;rounded=0;orthogonalLoop=1;jettySize=auto;html=1;fontSize=14;" edge="1" parent="1" source="EMGSAr9kfIs654__upMz-412" target="EMGSAr9kfIs654__upMz-402">
          <mxGeometry relative="1" as="geometry" />
        </mxCell>
        <mxCell id="EMGSAr9kfIs654__upMz-412" value="MQ" style="sketch=0;outlineConnect=0;fontColor=#232F3E;gradientColor=none;fillColor=#B0084D;strokeColor=none;dashed=0;verticalLabelPosition=bottom;verticalAlign=top;align=center;html=1;fontSize=14;fontStyle=0;aspect=fixed;pointerEvents=1;shape=mxgraph.aws4.mq_broker;" vertex="1" parent="1">
          <mxGeometry x="3093" y="1135.9999999999998" width="58" height="58" as="geometry" />
        </mxCell>
        <mxCell id="EMGSAr9kfIs654__upMz-413" value="" style="endArrow=none;html=1;rounded=0;dashed=1;" edge="1" parent="1">
          <mxGeometry width="50" height="50" relative="1" as="geometry">
            <mxPoint x="2635" y="1230" as="sourcePoint" />
            <mxPoint x="3375" y="1230" as="targetPoint" />
          </mxGeometry>
        </mxCell>
        <mxCell id="EMGSAr9kfIs654__upMz-414" value="" style="endArrow=none;html=1;rounded=0;dashed=1;" edge="1" parent="1">
          <mxGeometry width="50" height="50" relative="1" as="geometry">
            <mxPoint x="2625" y="966.5" as="sourcePoint" />
            <mxPoint x="3375" y="967" as="targetPoint" />
          </mxGeometry>
        </mxCell>
        <mxCell id="EMGSAr9kfIs654__upMz-415" value="" style="rounded=0;whiteSpace=wrap;html=1;strokeColor=none;" vertex="1" parent="1">
          <mxGeometry x="2240" y="1547.75" width="920" height="340" as="geometry" />
        </mxCell>
        <mxCell id="EMGSAr9kfIs654__upMz-416" value="" style="edgeStyle=orthogonalEdgeStyle;rounded=0;orthogonalLoop=1;jettySize=auto;html=1;fontSize=16;entryX=0;entryY=0.5;entryDx=0;entryDy=0;" edge="1" parent="1" source="EMGSAr9kfIs654__upMz-417" target="EMGSAr9kfIs654__upMz-419">
          <mxGeometry relative="1" as="geometry">
            <mxPoint x="2630" y="1747.75" as="targetPoint" />
          </mxGeometry>
        </mxCell>
        <mxCell id="EMGSAr9kfIs654__upMz-417" value="平台服务端" style="rounded=0;whiteSpace=wrap;html=1;fontSize=16;fillColor=#ffe6cc;strokeColor=#d79b00;" vertex="1" parent="1">
          <mxGeometry x="2450" y="1717.75" width="120" height="60" as="geometry" />
        </mxCell>
        <mxCell id="EMGSAr9kfIs654__upMz-418" value="" style="edgeStyle=orthogonalEdgeStyle;rounded=0;orthogonalLoop=1;jettySize=auto;html=1;fontSize=16;" edge="1" parent="1" source="EMGSAr9kfIs654__upMz-419" target="EMGSAr9kfIs654__upMz-420">
          <mxGeometry relative="1" as="geometry" />
        </mxCell>
        <mxCell id="EMGSAr9kfIs654__upMz-419" value="cp服务端" style="rounded=0;whiteSpace=wrap;html=1;fontSize=16;fillColor=#f5f5f5;strokeColor=#666666;fontColor=#333333;" vertex="1" parent="1">
          <mxGeometry x="2805" y="1717.75" width="120" height="60" as="geometry" />
        </mxCell>
        <mxCell id="EMGSAr9kfIs654__upMz-420" value="cp客户端" style="rounded=0;whiteSpace=wrap;html=1;fontSize=16;fillColor=#dae8fc;strokeColor=#6c8ebf;" vertex="1" parent="1">
          <mxGeometry x="3035" y="1717.75" width="120" height="60" as="geometry" />
        </mxCell>
        <mxCell id="EMGSAr9kfIs654__upMz-421" value="&lt;font color=&quot;#ff3333&quot; style=&quot;font-size: 16px;&quot;&gt;1、push推送（主）&lt;/font&gt;" style="text;html=1;align=center;verticalAlign=middle;resizable=0;points=[];autosize=1;strokeColor=none;fillColor=none;fontSize=16;" vertex="1" parent="1">
          <mxGeometry x="2610" y="1717.75" width="160" height="30" as="geometry" />
        </mxCell>
        <mxCell id="EMGSAr9kfIs654__upMz-422" value="推送/轮询" style="text;html=1;align=center;verticalAlign=middle;resizable=0;points=[];autosize=1;strokeColor=none;fillColor=none;fontSize=16;" vertex="1" parent="1">
          <mxGeometry x="2930" y="1717.75" width="90" height="30" as="geometry" />
        </mxCell>
        <mxCell id="EMGSAr9kfIs654__upMz-423" value="" style="curved=1;endArrow=classic;html=1;rounded=0;fontSize=16;exitX=0.5;exitY=0;exitDx=0;exitDy=0;entryX=0.5;entryY=0;entryDx=0;entryDy=0;strokeColor=#000000;dashed=1;" edge="1" parent="1" source="EMGSAr9kfIs654__upMz-419" target="EMGSAr9kfIs654__upMz-417">
          <mxGeometry width="50" height="50" relative="1" as="geometry">
            <mxPoint x="2660" y="1587.75" as="sourcePoint" />
            <mxPoint x="2610" y="1637.75" as="targetPoint" />
            <Array as="points">
              <mxPoint x="2810" y="1577.75" />
              <mxPoint x="2560" y="1577.75" />
            </Array>
          </mxGeometry>
        </mxCell>
        <mxCell id="EMGSAr9kfIs654__upMz-424" value="&lt;font color=&quot;#ff3333&quot; style=&quot;font-size: 16px;&quot;&gt;2、pull拉取（辅）&lt;/font&gt;" style="text;html=1;align=center;verticalAlign=middle;resizable=0;points=[];autosize=1;strokeColor=none;fillColor=none;fontSize=16;" vertex="1" parent="1">
          <mxGeometry x="2615" y="1547.75" width="150" height="30" as="geometry" />
        </mxCell>
        <mxCell id="EMGSAr9kfIs654__upMz-425" value="" style="edgeStyle=orthogonalEdgeStyle;rounded=0;orthogonalLoop=1;jettySize=auto;html=1;fontSize=16;" edge="1" parent="1" source="EMGSAr9kfIs654__upMz-426" target="EMGSAr9kfIs654__upMz-417">
          <mxGeometry relative="1" as="geometry" />
        </mxCell>
        <mxCell id="EMGSAr9kfIs654__upMz-426" value="互动消息" style="rounded=0;whiteSpace=wrap;html=1;fontSize=16;fillColor=#ffe6cc;strokeColor=#d79b00;" vertex="1" parent="1">
          <mxGeometry x="2250" y="1717.75" width="120" height="60" as="geometry" />
        </mxCell>
        <mxCell id="EMGSAr9kfIs654__upMz-427" value="" style="curved=1;endArrow=classic;html=1;rounded=0;fontSize=16;" edge="1" parent="1">
          <mxGeometry width="50" height="50" relative="1" as="geometry">
            <mxPoint x="2820" y="1787.75" as="sourcePoint" />
            <mxPoint x="2910" y="1787.75" as="targetPoint" />
            <Array as="points">
              <mxPoint x="2820" y="1837.75" />
              <mxPoint x="2870" y="1857.75" />
              <mxPoint x="2900" y="1807.75" />
            </Array>
          </mxGeometry>
        </mxCell>
        <mxCell id="EMGSAr9kfIs654__upMz-428" value="&lt;font color=&quot;#ff3333&quot; style=&quot;font-size: 16px;&quot;&gt;3、uniqueMessageId去重&lt;/font&gt;" style="text;html=1;align=center;verticalAlign=middle;resizable=0;points=[];autosize=1;strokeColor=none;fillColor=none;fontSize=16;" vertex="1" parent="1">
          <mxGeometry x="2750" y="1857.75" width="210" height="30" as="geometry" />
        </mxCell>
        <mxCell id="EMGSAr9kfIs654__upMz-429" value="" style="rounded=0;whiteSpace=wrap;html=1;fontSize=18;fillColor=#f5f5f5;strokeColor=#666666;fontColor=#333333;" vertex="1" parent="1">
          <mxGeometry x="2245" y="1980" width="225" height="380" as="geometry" />
        </mxCell>
        <mxCell id="EMGSAr9kfIs654__upMz-430" value="用户1送500快币" style="rounded=1;whiteSpace=wrap;html=1;fontColor=#000000;align=center;" vertex="1" parent="1">
          <mxGeometry x="2288" y="2019.4999999999998" width="130" height="60" as="geometry" />
        </mxCell>
        <mxCell id="EMGSAr9kfIs654__upMz-431" value="用户1送1快币" style="rounded=1;whiteSpace=wrap;html=1;align=center;" vertex="1" parent="1">
          <mxGeometry x="2288" y="2101.5" width="130" height="60" as="geometry" />
        </mxCell>
        <mxCell id="EMGSAr9kfIs654__upMz-432" value="用户2送1快币" style="rounded=1;whiteSpace=wrap;html=1;align=center;" vertex="1" parent="1">
          <mxGeometry x="2288" y="2184.25" width="130" height="60" as="geometry" />
        </mxCell>
        <mxCell id="EMGSAr9kfIs654__upMz-433" value="用户1送1快币&lt;br&gt;用户2送1快币" style="rounded=1;whiteSpace=wrap;html=1;align=center;fillColor=#f8cecc;strokeColor=#b85450;" vertex="1" parent="1">
          <mxGeometry x="2288" y="2267.66" width="130" height="60" as="geometry" />
        </mxCell>
        <mxCell id="EMGSAr9kfIs654__upMz-434" style="edgeStyle=orthogonalEdgeStyle;rounded=0;orthogonalLoop=1;jettySize=auto;html=1;exitX=0.5;exitY=1;exitDx=0;exitDy=0;fontSize=16;" edge="1" parent="1">
          <mxGeometry relative="1" as="geometry">
            <mxPoint x="2473" y="2297.84" as="sourcePoint" />
            <mxPoint x="2473" y="2297.84" as="targetPoint" />
          </mxGeometry>
        </mxCell>
        <mxCell id="EMGSAr9kfIs654__upMz-435" value="&lt;b&gt;&lt;font style=&quot;font-size: 18px;&quot;&gt;+&lt;/font&gt;&lt;/b&gt;" style="text;html=1;align=center;verticalAlign=middle;resizable=0;points=[];autosize=1;strokeColor=none;fillColor=none;" vertex="1" parent="1">
          <mxGeometry x="2338" y="2149.5" width="30" height="40" as="geometry" />
        </mxCell>
        <mxCell id="EMGSAr9kfIs654__upMz-436" value="&lt;b&gt;&lt;font style=&quot;font-size: 18px;&quot;&gt;=&lt;/font&gt;&lt;/b&gt;" style="text;html=1;align=center;verticalAlign=middle;resizable=0;points=[];autosize=1;strokeColor=none;fillColor=none;rotation=90;" vertex="1" parent="1">
          <mxGeometry x="2341" y="2237.5" width="30" height="40" as="geometry" />
        </mxCell>
        <mxCell id="EMGSAr9kfIs654__upMz-437" value="送礼consumer&amp;nbsp;" style="rounded=0;whiteSpace=wrap;html=1;strokeWidth=1;fillColor=#000000;fontFamily=Verdana;align=center;fontColor=#FFFFFF;fontStyle=1" vertex="1" parent="1">
          <mxGeometry x="2245" y="1980.5" width="105" height="25" as="geometry" />
        </mxCell>
        <mxCell id="EMGSAr9kfIs654__upMz-438" value="" style="rounded=0;whiteSpace=wrap;html=1;fontSize=18;fillColor=#f5f5f5;strokeColor=#666666;fontColor=#333333;" vertex="1" parent="1">
          <mxGeometry x="2248" y="2410" width="210" height="50" as="geometry" />
        </mxCell>
        <mxCell id="EMGSAr9kfIs654__upMz-439" value="第三方服务" style="rounded=0;whiteSpace=wrap;html=1;strokeWidth=1;fillColor=#000000;fontFamily=Verdana;align=center;fontColor=#FFFFFF;fontStyle=1" vertex="1" parent="1">
          <mxGeometry x="2248" y="2410" width="102" height="25" as="geometry" />
        </mxCell>
        <mxCell id="EMGSAr9kfIs654__upMz-440" value="" style="endArrow=classic;html=1;rounded=0;exitX=0.5;exitY=1;exitDx=0;exitDy=0;entryX=0.5;entryY=0;entryDx=0;entryDy=0;" edge="1" parent="1" source="EMGSAr9kfIs654__upMz-433" target="EMGSAr9kfIs654__upMz-438">
          <mxGeometry width="50" height="50" relative="1" as="geometry">
            <mxPoint x="2380" y="2219.5" as="sourcePoint" />
            <mxPoint x="2430" y="2169.5" as="targetPoint" />
          </mxGeometry>
        </mxCell>
        <mxCell id="EMGSAr9kfIs654__upMz-441" value="&lt;font color=&quot;#ff3333&quot;&gt;低价值礼物bufferTrigger聚合推&lt;/font&gt;" style="edgeLabel;html=1;align=center;verticalAlign=middle;resizable=0;points=[];" vertex="1" connectable="0" parent="EMGSAr9kfIs654__upMz-440">
          <mxGeometry x="0.1163" y="1" relative="1" as="geometry">
            <mxPoint as="offset" />
          </mxGeometry>
        </mxCell>
        <mxCell id="EMGSAr9kfIs654__upMz-442" value="" style="endArrow=classic;html=1;rounded=0;exitX=1;exitY=0.5;exitDx=0;exitDy=0;" edge="1" parent="1" source="EMGSAr9kfIs654__upMz-430">
          <mxGeometry width="50" height="50" relative="1" as="geometry">
            <mxPoint x="2380" y="2219.5" as="sourcePoint" />
            <mxPoint x="2460" y="2439.5" as="targetPoint" />
            <Array as="points">
              <mxPoint x="2510" y="2049.5" />
              <mxPoint x="2510" y="2439.5" />
            </Array>
          </mxGeometry>
        </mxCell>
        <mxCell id="EMGSAr9kfIs654__upMz-443" value="&lt;font color=&quot;#ff3333&quot;&gt;高价值礼物优先推送&lt;/font&gt;" style="text;html=1;align=center;verticalAlign=middle;resizable=0;points=[];autosize=1;strokeColor=none;fillColor=none;" vertex="1" parent="1">
          <mxGeometry x="2470" y="2237.5" width="130" height="30" as="geometry" />
        </mxCell>
        <mxCell id="EMGSAr9kfIs654__upMz-444" value="" style="rounded=0;whiteSpace=wrap;html=1;strokeColor=none;" vertex="1" parent="1">
          <mxGeometry x="2250" y="2540" width="980" height="720" as="geometry" />
        </mxCell>
        <mxCell id="EMGSAr9kfIs654__upMz-445" value="" style="rounded=0;whiteSpace=wrap;html=1;fillColor=#FFFFFF;strokeWidth=3;fontSize=14;" vertex="1" parent="1">
          <mxGeometry x="2600" y="2545.5" width="470" height="434.5" as="geometry" />
        </mxCell>
        <mxCell id="EMGSAr9kfIs654__upMz-446" value="" style="edgeStyle=orthogonalEdgeStyle;rounded=0;orthogonalLoop=1;jettySize=auto;html=1;" edge="1" parent="1" source="EMGSAr9kfIs654__upMz-447" target="EMGSAr9kfIs654__upMz-459">
          <mxGeometry relative="1" as="geometry" />
        </mxCell>
        <mxCell id="EMGSAr9kfIs654__upMz-447" value="" style="rounded=1;whiteSpace=wrap;html=1;fillColor=#E6E6E6;fontSize=14;" vertex="1" parent="1">
          <mxGeometry x="2709" y="2650" width="190" height="160" as="geometry" />
        </mxCell>
        <mxCell id="EMGSAr9kfIs654__upMz-448" value="直播弹幕互动系统" style="text;html=1;align=center;verticalAlign=middle;resizable=0;points=[];autosize=1;fillColor=#000000;fontColor=#FFFFFF;fontSize=14;" vertex="1" parent="1">
          <mxGeometry x="2600" y="2545.5" width="140" height="30" as="geometry" />
        </mxCell>
        <mxCell id="EMGSAr9kfIs654__upMz-449" value="" style="rounded=0;whiteSpace=wrap;html=1;fillColor=#FFFFFF;strokeWidth=3;fontSize=14;" vertex="1" parent="1">
          <mxGeometry x="2260" y="2620" width="240" height="310" as="geometry" />
        </mxCell>
        <mxCell id="EMGSAr9kfIs654__upMz-450" value="伴侣客户端" style="text;html=1;align=center;verticalAlign=middle;resizable=0;points=[];autosize=1;fillColor=#000000;fontColor=#FFFFFF;fontSize=14;" vertex="1" parent="1">
          <mxGeometry x="2260" y="2620" width="90" height="30" as="geometry" />
        </mxCell>
        <mxCell id="EMGSAr9kfIs654__upMz-451" value="" style="edgeStyle=orthogonalEdgeStyle;rounded=0;orthogonalLoop=1;jettySize=auto;html=1;entryX=0;entryY=0.5;entryDx=0;entryDy=0;" edge="1" parent="1" source="EMGSAr9kfIs654__upMz-453" target="EMGSAr9kfIs654__upMz-447">
          <mxGeometry relative="1" as="geometry">
            <mxPoint x="2588.86" y="2744.09" as="targetPoint" />
            <Array as="points">
              <mxPoint x="2550" y="2730" />
              <mxPoint x="2550" y="2730" />
            </Array>
          </mxGeometry>
        </mxCell>
        <mxCell id="EMGSAr9kfIs654__upMz-452" value="&lt;font style=&quot;font-size: 14px;&quot;&gt;1、开启游戏&lt;/font&gt;" style="edgeLabel;html=1;align=center;verticalAlign=middle;resizable=0;points=[];" vertex="1" connectable="0" parent="EMGSAr9kfIs654__upMz-451">
          <mxGeometry x="-0.2331" y="4" relative="1" as="geometry">
            <mxPoint x="96" y="-21" as="offset" />
          </mxGeometry>
        </mxCell>
        <mxCell id="EMGSAr9kfIs654__upMz-453" value="打开游戏" style="rounded=1;whiteSpace=wrap;html=1;fillColor=#E6E6E6;fontSize=14;" vertex="1" parent="1">
          <mxGeometry x="2307" y="2695" width="150" height="70" as="geometry" />
        </mxCell>
        <mxCell id="EMGSAr9kfIs654__upMz-454" value="" style="rounded=0;whiteSpace=wrap;html=1;fillColor=#FFFFFF;strokeWidth=3;fontSize=14;" vertex="1" parent="1">
          <mxGeometry x="2694" y="3100" width="220" height="150" as="geometry" />
        </mxCell>
        <mxCell id="EMGSAr9kfIs654__upMz-455" value="音视频系统" style="text;html=1;align=center;verticalAlign=middle;resizable=0;points=[];autosize=1;fillColor=#000000;fontColor=#FFFFFF;fontSize=14;" vertex="1" parent="1">
          <mxGeometry x="2694" y="3100" width="90" height="30" as="geometry" />
        </mxCell>
        <mxCell id="EMGSAr9kfIs654__upMz-456" value="" style="edgeStyle=orthogonalEdgeStyle;rounded=0;orthogonalLoop=1;jettySize=auto;html=1;" edge="1" parent="1" source="EMGSAr9kfIs654__upMz-457" target="EMGSAr9kfIs654__upMz-458">
          <mxGeometry relative="1" as="geometry" />
        </mxCell>
        <mxCell id="EMGSAr9kfIs654__upMz-457" value="db" style="shape=cylinder3;whiteSpace=wrap;html=1;boundedLbl=1;backgroundOutline=1;size=15;" vertex="1" parent="1">
          <mxGeometry x="2723.5" y="2690" width="60" height="80" as="geometry" />
        </mxCell>
        <mxCell id="EMGSAr9kfIs654__upMz-458" value="redis" style="shape=cylinder3;whiteSpace=wrap;html=1;boundedLbl=1;backgroundOutline=1;size=15;" vertex="1" parent="1">
          <mxGeometry x="2820" y="2690" width="60" height="80" as="geometry" />
        </mxCell>
        <mxCell id="EMGSAr9kfIs654__upMz-459" value="readRpc" style="rounded=1;whiteSpace=wrap;html=1;fillColor=#E6E6E6;fontSize=14;" vertex="1" parent="1">
          <mxGeometry x="2729" y="2870" width="150" height="70" as="geometry" />
        </mxCell>
        <mxCell id="EMGSAr9kfIs654__upMz-460" value="" style="edgeStyle=orthogonalEdgeStyle;rounded=0;orthogonalLoop=1;jettySize=auto;html=1;entryX=0;entryY=0.5;entryDx=0;entryDy=0;entryPerimeter=0;" edge="1" parent="1" source="EMGSAr9kfIs654__upMz-461" target="EMGSAr9kfIs654__upMz-463">
          <mxGeometry relative="1" as="geometry">
            <mxPoint x="3100" y="2730" as="targetPoint" />
          </mxGeometry>
        </mxCell>
        <mxCell id="EMGSAr9kfIs654__upMz-461" value="" style="html=1;strokeWidth=1;shadow=0;dashed=0;shape=mxgraph.ios7.misc.broadcast;fillColor=#D79B00;strokeColor=#d79b00;buttonText=;strokeColor2=#222222;fontSize=8;verticalLabelPosition=bottom;verticalAlign=top;align=center;sketch=0;" vertex="1" parent="1">
          <mxGeometry x="2960" y="2700" width="60" height="60" as="geometry" />
        </mxCell>
        <mxCell id="EMGSAr9kfIs654__upMz-462" value="" style="edgeStyle=orthogonalEdgeStyle;rounded=0;orthogonalLoop=1;jettySize=auto;html=1;" edge="1" parent="1" source="EMGSAr9kfIs654__upMz-463">
          <mxGeometry relative="1" as="geometry">
            <mxPoint x="2860" y="3100" as="targetPoint" />
            <Array as="points">
              <mxPoint x="3200" y="3040" />
              <mxPoint x="2860" y="3040" />
              <mxPoint x="2860" y="3100" />
            </Array>
          </mxGeometry>
        </mxCell>
        <mxCell id="EMGSAr9kfIs654__upMz-463" value="" style="verticalLabelPosition=bottom;html=1;verticalAlign=top;align=center;strokeColor=none;fillColor=#505050;shape=mxgraph.azure.mobile;pointerEvents=1;" vertex="1" parent="1">
          <mxGeometry x="3180" y="2697.5" width="40" height="65" as="geometry" />
        </mxCell>
        <mxCell id="EMGSAr9kfIs654__upMz-464" value="" style="edgeStyle=orthogonalEdgeStyle;rounded=0;orthogonalLoop=1;jettySize=auto;html=1;exitX=0.5;exitY=1;exitDx=0;exitDy=0;" edge="1" parent="1" source="EMGSAr9kfIs654__upMz-470">
          <mxGeometry relative="1" as="geometry">
            <mxPoint x="2730" y="3099" as="targetPoint" />
            <Array as="points">
              <mxPoint x="2380" y="2883" />
              <mxPoint x="2380" y="3040" />
              <mxPoint x="2730" y="3040" />
              <mxPoint x="2730" y="3099" />
            </Array>
          </mxGeometry>
        </mxCell>
        <mxCell id="EMGSAr9kfIs654__upMz-465" value="&lt;font style=&quot;font-size: 14px;&quot;&gt;0、推流&lt;/font&gt;" style="edgeLabel;html=1;align=center;verticalAlign=middle;resizable=0;points=[];" vertex="1" connectable="0" parent="EMGSAr9kfIs654__upMz-464">
          <mxGeometry x="0.076" y="4" relative="1" as="geometry">
            <mxPoint y="-16" as="offset" />
          </mxGeometry>
        </mxCell>
        <mxCell id="EMGSAr9kfIs654__upMz-466" value="&lt;font style=&quot;font-size: 14px;&quot;&gt;3、重新拉流&lt;/font&gt;" style="text;html=1;align=center;verticalAlign=middle;resizable=0;points=[];autosize=1;strokeColor=none;fillColor=none;" vertex="1" parent="1">
          <mxGeometry x="3065" y="3000" width="100" height="30" as="geometry" />
        </mxCell>
        <mxCell id="EMGSAr9kfIs654__upMz-467" value="&lt;font style=&quot;font-size: 14px;&quot;&gt;2、重新拉流信令&lt;/font&gt;" style="text;html=1;align=center;verticalAlign=middle;resizable=0;points=[];autosize=1;strokeColor=none;fillColor=none;" vertex="1" parent="1">
          <mxGeometry x="2924" y="2665" width="130" height="30" as="geometry" />
        </mxCell>
        <mxCell id="EMGSAr9kfIs654__upMz-468" value="" style="endArrow=classic;html=1;rounded=0;entryX=0.5;entryY=1;entryDx=0;entryDy=0;exitX=0.5;exitY=0;exitDx=0;exitDy=0;" edge="1" parent="1" source="EMGSAr9kfIs654__upMz-454" target="EMGSAr9kfIs654__upMz-459">
          <mxGeometry width="50" height="50" relative="1" as="geometry">
            <mxPoint x="2804" y="3080" as="sourcePoint" />
            <mxPoint x="2830" y="2940" as="targetPoint" />
          </mxGeometry>
        </mxCell>
        <mxCell id="EMGSAr9kfIs654__upMz-469" value="&lt;font style=&quot;font-size: 14px;&quot;&gt;4、查询游戏状态&lt;/font&gt;" style="edgeLabel;html=1;align=center;verticalAlign=middle;resizable=0;points=[];" vertex="1" connectable="0" parent="EMGSAr9kfIs654__upMz-468">
          <mxGeometry x="-0.1172" relative="1" as="geometry">
            <mxPoint y="-9" as="offset" />
          </mxGeometry>
        </mxCell>
        <mxCell id="EMGSAr9kfIs654__upMz-470" value="画面合流" style="rounded=1;whiteSpace=wrap;html=1;fillColor=#E6E6E6;fontSize=14;" vertex="1" parent="1">
          <mxGeometry x="2307" y="2812.75" width="150" height="70" as="geometry" />
        </mxCell>
        <mxCell id="EMGSAr9kfIs654__upMz-471" value="" style="endArrow=classic;html=1;rounded=0;exitX=1;exitY=0.5;exitDx=0;exitDy=0;entryX=0.019;entryY=0.491;entryDx=0;entryDy=0;entryPerimeter=0;" edge="1" parent="1" source="EMGSAr9kfIs654__upMz-447" target="EMGSAr9kfIs654__upMz-461">
          <mxGeometry width="50" height="50" relative="1" as="geometry">
            <mxPoint x="2850" y="2850" as="sourcePoint" />
            <mxPoint x="2900" y="2800" as="targetPoint" />
          </mxGeometry>
        </mxCell>
        <mxCell id="EMGSAr9kfIs654__upMz-472" value="流处理服务" style="rounded=1;whiteSpace=wrap;html=1;fillColor=#E6E6E6;fontSize=14;" vertex="1" parent="1">
          <mxGeometry x="2729" y="3150" width="150" height="70" as="geometry" />
        </mxCell>
        <mxCell id="EMGSAr9kfIs654__upMz-473" value="" style="endArrow=classic;html=1;rounded=0;exitX=0.824;exitY=-0.008;exitDx=0;exitDy=0;exitPerimeter=0;" edge="1" parent="1" source="EMGSAr9kfIs654__upMz-454">
          <mxGeometry width="50" height="50" relative="1" as="geometry">
            <mxPoint x="2490" y="3090" as="sourcePoint" />
            <mxPoint x="3210" y="2760" as="targetPoint" />
            <Array as="points">
              <mxPoint x="2875" y="3050" />
              <mxPoint x="3211" y="3050" />
            </Array>
          </mxGeometry>
        </mxCell>
        <mxCell id="EMGSAr9kfIs654__upMz-474" value="&lt;font style=&quot;font-size: 14px;&quot;&gt;5、返回低延时流&lt;/font&gt;" style="text;html=1;align=center;verticalAlign=middle;resizable=0;points=[];autosize=1;strokeColor=none;fillColor=none;" vertex="1" parent="1">
          <mxGeometry x="3050" y="3058" width="130" height="30" as="geometry" />
        </mxCell>
        <mxCell id="EMGSAr9kfIs654__upMz-475" value="" style="rounded=0;whiteSpace=wrap;html=1;strokeColor=none;" vertex="1" parent="1">
          <mxGeometry x="2240" y="3390" width="760" height="210" as="geometry" />
        </mxCell>
        <mxCell id="EMGSAr9kfIs654__upMz-476" value="平台服务端" style="rounded=0;whiteSpace=wrap;html=1;fontSize=16;fillColor=#ffe6cc;strokeColor=#d79b00;" vertex="1" parent="1">
          <mxGeometry x="2250" y="3400" width="120" height="60" as="geometry" />
        </mxCell>
        <mxCell id="EMGSAr9kfIs654__upMz-477" value="" style="edgeStyle=orthogonalEdgeStyle;rounded=0;orthogonalLoop=1;jettySize=auto;html=1;fontSize=16;exitX=1;exitY=0.5;exitDx=0;exitDy=0;" edge="1" parent="1" source="EMGSAr9kfIs654__upMz-476" target="EMGSAr9kfIs654__upMz-479">
          <mxGeometry relative="1" as="geometry">
            <mxPoint x="2490" y="3430" as="sourcePoint" />
          </mxGeometry>
        </mxCell>
        <mxCell id="EMGSAr9kfIs654__upMz-478" value="" style="edgeStyle=orthogonalEdgeStyle;rounded=0;orthogonalLoop=1;jettySize=auto;html=1;fontSize=16;" edge="1" parent="1" source="EMGSAr9kfIs654__upMz-479" target="EMGSAr9kfIs654__upMz-480">
          <mxGeometry relative="1" as="geometry" />
        </mxCell>
        <mxCell id="EMGSAr9kfIs654__upMz-479" value="cp服务端" style="rounded=0;whiteSpace=wrap;html=1;fontSize=16;fillColor=#f5f5f5;strokeColor=#666666;fontColor=#333333;" vertex="1" parent="1">
          <mxGeometry x="2620" y="3400" width="120" height="60" as="geometry" />
        </mxCell>
        <mxCell id="EMGSAr9kfIs654__upMz-480" value="cp客户端" style="rounded=0;whiteSpace=wrap;html=1;fontSize=16;fillColor=#dae8fc;strokeColor=#6c8ebf;" vertex="1" parent="1">
          <mxGeometry x="2870" y="3400" width="120" height="60" as="geometry" />
        </mxCell>
        <mxCell id="EMGSAr9kfIs654__upMz-481" value="平台api网关" style="rounded=0;whiteSpace=wrap;html=1;fontSize=16;fillColor=#ffe6cc;strokeColor=#d79b00;" vertex="1" parent="1">
          <mxGeometry x="2430" y="3528" width="120" height="60" as="geometry" />
        </mxCell>
        <mxCell id="EMGSAr9kfIs654__upMz-482" value="推送" style="text;html=1;align=center;verticalAlign=middle;resizable=0;points=[];autosize=1;strokeColor=none;fillColor=none;fontSize=16;" vertex="1" parent="1">
          <mxGeometry x="2455" y="3398" width="60" height="30" as="geometry" />
        </mxCell>
        <mxCell id="EMGSAr9kfIs654__upMz-483" value="推送" style="text;html=1;align=center;verticalAlign=middle;resizable=0;points=[];autosize=1;strokeColor=none;fillColor=none;fontSize=16;" vertex="1" parent="1">
          <mxGeometry x="2770" y="3398" width="60" height="30" as="geometry" />
        </mxCell>
        <mxCell id="EMGSAr9kfIs654__upMz-484" value="" style="endArrow=classic;html=1;rounded=0;exitX=0;exitY=0.75;exitDx=0;exitDy=0;entryX=1;entryY=0.75;entryDx=0;entryDy=0;strokeWidth=2;strokeColor=#FF3333;fontSize=16;" edge="1" parent="1" source="EMGSAr9kfIs654__upMz-480" target="EMGSAr9kfIs654__upMz-479">
          <mxGeometry width="50" height="50" relative="1" as="geometry">
            <mxPoint x="2640" y="3570" as="sourcePoint" />
            <mxPoint x="2690" y="3520" as="targetPoint" />
          </mxGeometry>
        </mxCell>
        <mxCell id="EMGSAr9kfIs654__upMz-485" value="receiveAck" style="edgeLabel;html=1;align=center;verticalAlign=middle;resizable=0;points=[];fontSize=16;" vertex="1" connectable="0" parent="EMGSAr9kfIs654__upMz-484">
          <mxGeometry x="0.082" y="3" relative="1" as="geometry">
            <mxPoint as="offset" />
          </mxGeometry>
        </mxCell>
        <mxCell id="EMGSAr9kfIs654__upMz-486" value="" style="endArrow=classic;html=1;rounded=0;exitX=0.5;exitY=1;exitDx=0;exitDy=0;entryX=1;entryY=0.5;entryDx=0;entryDy=0;strokeColor=#FF3333;strokeWidth=2;fontSize=16;" edge="1" parent="1" source="EMGSAr9kfIs654__upMz-479" target="EMGSAr9kfIs654__upMz-481">
          <mxGeometry width="50" height="50" relative="1" as="geometry">
            <mxPoint x="2380" y="3630" as="sourcePoint" />
            <mxPoint x="2430" y="3580" as="targetPoint" />
          </mxGeometry>
        </mxCell>
        <mxCell id="EMGSAr9kfIs654__upMz-487" value="receiveAck" style="edgeLabel;html=1;align=center;verticalAlign=middle;resizable=0;points=[];fontSize=16;" vertex="1" connectable="0" parent="EMGSAr9kfIs654__upMz-486">
          <mxGeometry x="-0.0947" y="-1" relative="1" as="geometry">
            <mxPoint as="offset" />
          </mxGeometry>
        </mxCell>
        <mxCell id="EMGSAr9kfIs654__upMz-488" value="" style="endArrow=classic;html=1;rounded=0;exitX=0;exitY=0.5;exitDx=0;exitDy=0;entryX=0.5;entryY=1;entryDx=0;entryDy=0;strokeColor=#FF3333;strokeWidth=2;fontSize=16;" edge="1" parent="1" source="EMGSAr9kfIs654__upMz-481" target="EMGSAr9kfIs654__upMz-476">
          <mxGeometry width="50" height="50" relative="1" as="geometry">
            <mxPoint x="2740" y="3550" as="sourcePoint" />
            <mxPoint x="2790" y="3500" as="targetPoint" />
          </mxGeometry>
        </mxCell>
        <mxCell id="EMGSAr9kfIs654__upMz-489" value="receiveAck" style="edgeLabel;html=1;align=center;verticalAlign=middle;resizable=0;points=[];fontSize=16;" vertex="1" connectable="0" parent="EMGSAr9kfIs654__upMz-488">
          <mxGeometry x="-0.0865" y="-2" relative="1" as="geometry">
            <mxPoint as="offset" />
          </mxGeometry>
        </mxCell>
        <mxCell id="EMGSAr9kfIs654__upMz-490" value="" style="rounded=0;whiteSpace=wrap;html=1;" vertex="1" parent="1">
          <mxGeometry x="2235" y="3702.5" width="920" height="210" as="geometry" />
        </mxCell>
        <mxCell id="EMGSAr9kfIs654__upMz-491" value="" style="sketch=0;pointerEvents=1;shadow=0;dashed=0;html=1;strokeColor=none;fillColor=#505050;labelPosition=center;verticalLabelPosition=bottom;verticalAlign=top;outlineConnect=0;align=center;shape=mxgraph.office.devices.mac_client;" vertex="1" parent="1">
          <mxGeometry x="3085" y="3720.5" width="58" height="48" as="geometry" />
        </mxCell>
        <mxCell id="EMGSAr9kfIs654__upMz-492" value="平台服务端" style="rounded=0;whiteSpace=wrap;html=1;fontSize=16;fillColor=#ffe6cc;strokeColor=#d79b00;" vertex="1" parent="1">
          <mxGeometry x="2245" y="3714.5" width="120" height="60" as="geometry" />
        </mxCell>
        <mxCell id="EMGSAr9kfIs654__upMz-493" value="" style="edgeStyle=orthogonalEdgeStyle;rounded=0;orthogonalLoop=1;jettySize=auto;html=1;fontSize=16;exitX=1;exitY=0.5;exitDx=0;exitDy=0;" edge="1" parent="1" source="EMGSAr9kfIs654__upMz-492" target="EMGSAr9kfIs654__upMz-495">
          <mxGeometry relative="1" as="geometry">
            <mxPoint x="2485" y="3744.5" as="sourcePoint" />
          </mxGeometry>
        </mxCell>
        <mxCell id="EMGSAr9kfIs654__upMz-494" value="" style="edgeStyle=orthogonalEdgeStyle;rounded=0;orthogonalLoop=1;jettySize=auto;html=1;fontSize=16;" edge="1" parent="1" source="EMGSAr9kfIs654__upMz-495" target="EMGSAr9kfIs654__upMz-497">
          <mxGeometry relative="1" as="geometry" />
        </mxCell>
        <mxCell id="EMGSAr9kfIs654__upMz-495" value="cp服务端" style="rounded=0;whiteSpace=wrap;html=1;fontSize=16;fillColor=#f5f5f5;strokeColor=#666666;fontColor=#333333;" vertex="1" parent="1">
          <mxGeometry x="2615" y="3714.5" width="120" height="60" as="geometry" />
        </mxCell>
        <mxCell id="EMGSAr9kfIs654__upMz-496" value="" style="edgeStyle=orthogonalEdgeStyle;rounded=0;orthogonalLoop=1;jettySize=auto;html=1;" edge="1" parent="1" source="EMGSAr9kfIs654__upMz-497" target="EMGSAr9kfIs654__upMz-491">
          <mxGeometry relative="1" as="geometry" />
        </mxCell>
        <mxCell id="EMGSAr9kfIs654__upMz-497" value="cp客户端" style="rounded=0;whiteSpace=wrap;html=1;fontSize=16;fillColor=#dae8fc;strokeColor=#6c8ebf;" vertex="1" parent="1">
          <mxGeometry x="2865" y="3714.5" width="120" height="60" as="geometry" />
        </mxCell>
        <mxCell id="EMGSAr9kfIs654__upMz-498" value="平台api网关" style="rounded=0;whiteSpace=wrap;html=1;fontSize=16;fillColor=#ffe6cc;strokeColor=#d79b00;" vertex="1" parent="1">
          <mxGeometry x="2425" y="3842.5" width="120" height="60" as="geometry" />
        </mxCell>
        <mxCell id="EMGSAr9kfIs654__upMz-499" value="推送" style="text;html=1;align=center;verticalAlign=middle;resizable=0;points=[];autosize=1;strokeColor=none;fillColor=none;fontSize=16;" vertex="1" parent="1">
          <mxGeometry x="2450" y="3712.5" width="60" height="30" as="geometry" />
        </mxCell>
        <mxCell id="EMGSAr9kfIs654__upMz-500" value="推送" style="text;html=1;align=center;verticalAlign=middle;resizable=0;points=[];autosize=1;strokeColor=none;fillColor=none;fontSize=16;" vertex="1" parent="1">
          <mxGeometry x="2765" y="3712.5" width="60" height="30" as="geometry" />
        </mxCell>
        <mxCell id="EMGSAr9kfIs654__upMz-501" value="" style="endArrow=classic;html=1;rounded=0;exitX=0;exitY=0.75;exitDx=0;exitDy=0;entryX=1;entryY=0.75;entryDx=0;entryDy=0;strokeWidth=2;strokeColor=#FF3333;fontSize=16;" edge="1" parent="1" source="EMGSAr9kfIs654__upMz-497" target="EMGSAr9kfIs654__upMz-495">
          <mxGeometry width="50" height="50" relative="1" as="geometry">
            <mxPoint x="2635" y="3884.5" as="sourcePoint" />
            <mxPoint x="2685" y="3834.5" as="targetPoint" />
          </mxGeometry>
        </mxCell>
        <mxCell id="EMGSAr9kfIs654__upMz-502" value="showAck" style="edgeLabel;html=1;align=center;verticalAlign=middle;resizable=0;points=[];fontSize=16;" vertex="1" connectable="0" parent="EMGSAr9kfIs654__upMz-501">
          <mxGeometry x="0.082" y="3" relative="1" as="geometry">
            <mxPoint as="offset" />
          </mxGeometry>
        </mxCell>
        <mxCell id="EMGSAr9kfIs654__upMz-503" value="" style="endArrow=classic;html=1;rounded=0;exitX=0.5;exitY=1;exitDx=0;exitDy=0;entryX=1;entryY=0.5;entryDx=0;entryDy=0;strokeColor=#FF3333;strokeWidth=2;fontSize=16;" edge="1" parent="1" source="EMGSAr9kfIs654__upMz-495" target="EMGSAr9kfIs654__upMz-498">
          <mxGeometry width="50" height="50" relative="1" as="geometry">
            <mxPoint x="2375" y="3944.5" as="sourcePoint" />
            <mxPoint x="2425" y="3894.5" as="targetPoint" />
          </mxGeometry>
        </mxCell>
        <mxCell id="EMGSAr9kfIs654__upMz-504" value="showAck" style="edgeLabel;html=1;align=center;verticalAlign=middle;resizable=0;points=[];fontSize=16;" vertex="1" connectable="0" parent="EMGSAr9kfIs654__upMz-503">
          <mxGeometry x="-0.0947" y="-1" relative="1" as="geometry">
            <mxPoint as="offset" />
          </mxGeometry>
        </mxCell>
        <mxCell id="EMGSAr9kfIs654__upMz-505" value="" style="endArrow=classic;html=1;rounded=0;exitX=0;exitY=0.5;exitDx=0;exitDy=0;entryX=0.5;entryY=1;entryDx=0;entryDy=0;strokeColor=#FF3333;strokeWidth=2;fontSize=16;" edge="1" parent="1" source="EMGSAr9kfIs654__upMz-498" target="EMGSAr9kfIs654__upMz-492">
          <mxGeometry width="50" height="50" relative="1" as="geometry">
            <mxPoint x="2735" y="3864.5" as="sourcePoint" />
            <mxPoint x="2785" y="3814.5" as="targetPoint" />
          </mxGeometry>
        </mxCell>
        <mxCell id="EMGSAr9kfIs654__upMz-506" value="showAck" style="edgeLabel;html=1;align=center;verticalAlign=middle;resizable=0;points=[];fontSize=16;" vertex="1" connectable="0" parent="EMGSAr9kfIs654__upMz-505">
          <mxGeometry x="-0.0865" y="-2" relative="1" as="geometry">
            <mxPoint as="offset" />
          </mxGeometry>
        </mxCell>
        <mxCell id="EMGSAr9kfIs654__upMz-507" value="&lt;font style=&quot;font-size: 16px;&quot;&gt;出兵动效&lt;/font&gt;" style="text;html=1;align=center;verticalAlign=middle;resizable=0;points=[];autosize=1;strokeColor=none;fillColor=none;" vertex="1" parent="1">
          <mxGeometry x="2985" y="3714.5" width="90" height="30" as="geometry" />
        </mxCell>
      </root>
    </mxGraphModel>
  </diagram>
</mxfile>
